{
copyright = "Copyright (c) 2015, Cadson Demak (info@cadsondemak.com)";
customParameters = (
{
name = vendorID;
value = CDK;
},
{
name = description;
value = "Copyright (c) 2015, Cadson Demak (info@cadsondemak.com)";
},
{
name = license;

glyphs = (
{
glyphname = A;
lastChange = "2015-11-29 15:09:35 +0000";
layers = (
{
layerId = "956CC02E-6E79-4121-A7B2-01E3BBD48F66";
name = Bold;
paths = (
{
closed = 1;
nodes = (
"247 0 LINE",
"247 16 LINE",
"220 26 OFFCURVE",
"195 35 OFFCURVE",
"165 39 CURVE",
"353 562 LINE",
"537 41 LINE",
"518 38 OFFCURVE",
"492 32 OFFCURVE",
"457 20 CURVE",
"457 0 LINE",
"770 0 LINE",
"770 18 LINE",
"744 27 OFFCURVE",
"717 35 OFFCURVE",
"692 40 CURVE",
"444 704 LINE",
"332 704 LINE",
"85 42 LINE",
"76 41 OFFCURVE",
"33 30 OFFCURVE",
"6 21 CURVE",
"6 0 LINE"
);
},
{
closed = 1;
nodes = (
"531 178 LINE",
"531 228 LINE",
"190 228 LINE",
"190 178 LINE"
);
}
);
width = 777;
}
);
leftKerningGroup = A;
note = A;
rightKerningGroup = A;
unicode = 0041;
},
{
glyphname = Aacute;
lastChange = "2015-11-29 15:09:34 +0000";
layers = (
{
layerId = "956CC02E-6E79-4121-A7B2-01E3BBD48F66";
name = Bold;
paths = (
{
closed = 1;
nodes = (
"247 0 LINE",
"247 16 LINE",
"220 26 OFFCURVE",
"195 35 OFFCURVE",
"165 39 CURVE",
"353 562 LINE",
"537 41 LINE",
"518 38 OFFCURVE",
"492 32 OFFCURVE",
"457 20 CURVE",
"457 0 LINE",
"770 0 LINE",
"770 18 LINE",
"744 27 OFFCURVE",
"717 35 OFFCURVE",
"692 40 CURVE",
"444 704 LINE",
"332 704 LINE",
"85 42 LINE",
"76 41 OFFCURVE",
"33 30 OFFCURVE",
"6 21 CURVE",
"6 0 LINE"
);
},
{
closed = 1;
nodes = (
"531 178 LINE",
"531 228 LINE",
"190 228 LINE",
"190 178 LINE"
);
},
{
closed = 1;
nodes = (
"471 879 LINE SMOOTH",
"503 898 OFFCURVE",
"521 916 OFFCURVE",
"521 940 CURVE SMOOTH",
"521 959 OFFCURVE",
"506 982 OFFCURVE",
"472 982 CURVE SMOOTH",
"438 982 OFFCURVE",
"414 954 OFFCURVE",
"408 947 CURVE",
"286 821 LINE",
"311 786 LINE"
);
}
);
width = 777;
}
);
leftKerningGroup = A;
note = Aacute;
rightKerningGroup = A;
unicode = 00C1;
},
{
glyphname = Abreve;
lastChange = "2015-11-29 15:11:25 +0000";
layers = (
{
layerId = "956CC02E-6E79-4121-A7B2-01E3BBD48F66";
name = Bold;
paths = (
{
closed = 1;
nodes = (
"247 0 LINE",
"247 16 LINE",
"220 26 OFFCURVE",
"195 35 OFFCURVE",
"165 39 CURVE",
"353 562 LINE",
"537 41 LINE",
"518 38 OFFCURVE",
"492 32 OFFCURVE",
"457 20 CURVE",
"457 0 LINE",
"770 0 LINE",
"770 18 LINE",
"744 27 OFFCURVE",
"717 35 OFFCURVE",
"692 40 CURVE",
"444 704 LINE",
"332 704 LINE",
"85 42 LINE",
"76 41 OFFCURVE",
"33 30 OFFCURVE",
"6 21 CURVE",
"6 0 LINE"
);
},
{
closed = 1;
nodes = (
"531 178 LINE",
"531 228 LINE",
"190 228 LINE",
"190 178 LINE"
);
},
{
closed = 1;
nodes = (
"486 781 OFFCURVE",
"554 824 OFFCURVE",
"569 915 CURVE",
"483 915 LINE",
"475 842 OFFCURVE",
"429 833 OFFCURVE",
"388 833 CURVE SMOOTH",
"347 833 OFFCURVE",
"300 842 OFFCURVE",
"293 915 CURVE",
"207 915 LINE",
"222 824 OFFCURVE",
"290 781 OFFCURVE",
"388 781 CURVE SMOOTH"
);
}
);
width = 777;
}
);
leftKerningGroup = A;
note = Abreve;
rightKerningGroup = A;
unicode = 0102;
},
{
glyphname = Abreveacute;
lastChange = "2015-11-29 15:11:37 +0000";
layers = (
{
layerId = "956CC02E-6E79-4121-A7B2-01E3BBD48F66";
name = Bold;
paths = (
{
closed = 1;
nodes = (
"247 0 LINE",
"247 16 LINE",
"220 26 OFFCURVE",
"195 35 OFFCURVE",
"165 39 CURVE",
"353 562 LINE",
"537 41 LINE",
"518 38 OFFCURVE",
"492 32 OFFCURVE",
"457 20 CURVE",
"457 0 LINE",
"770 0 LINE",
"770 18 LINE",
"744 27 OFFCURVE",
"717 35 OFFCURVE",
"692 40 CURVE",
"444 704 LINE",
"332 704 LINE",
"85 42 LINE",
"76 41 OFFCURVE",
"33 30 OFFCURVE",
"6 21 CURVE",
"6 0 LINE"
);
},
{
closed = 1;
nodes = (
"531 178 LINE",
"531 228 LINE",
"190 228 LINE",
"190 178 LINE"
);
},
{
closed = 1;
nodes = (
"486 781 OFFCURVE",
"554 824 OFFCURVE",
"569 915 CURVE",
"483 915 LINE",
"475 842 OFFCURVE",
"429 833 OFFCURVE",
"388 833 CURVE SMOOTH",
"347 833 OFFCURVE",
"300 842 OFFCURVE",
"293 915 CURVE",
"207 915 LINE",
"222 824 OFFCURVE",
"290 781 OFFCURVE",
"388 781 CURVE SMOOTH"
);
},
{
closed = 1;
nodes = (
"480 975 LINE SMOOTH",
"520 995 OFFCURVE",
"542 1020 OFFCURVE",
"542 1044 CURVE SMOOTH",
"542 1063 OFFCURVE",
"527 1084 OFFCURVE",
"497 1084 CURVE SMOOTH",
"471 1084 OFFCURVE",
"446 1065 OFFCURVE",
"424 1040 CURVE SMOOTH",
"349 952 LINE",
"373 921 LINE"
);
}
);
width = 777;
}
);
leftKerningGroup = A;
note = Abreveacute;
rightKerningGroup = A;
unicode = 1EAE;
},
{
glyphname = Abrevedotbelow;
lastChange = "2015-11-29 15:11:58 +0000";
layers = (
{
layerId = "956CC02E-6E79-4121-A7B2-01E3BBD48F66";
name = Bold;
paths = (
{
closed = 1;
nodes = (
"247 0 LINE",
"247 16 LINE",
"220 26 OFFCURVE",
"195 35 OFFCURVE",
"165 39 CURVE",
"353 562 LINE",
"537 41 LINE",
"518 38 OFFCURVE",
"492 32 OFFCURVE",
"457 20 CURVE",
"457 0 LINE",
"770 0 LINE",
"770 18 LINE",
"744 27 OFFCURVE",
"717 35 OFFCURVE",
"692 40 CURVE",
"444 704 LINE",
"332 704 LINE",
"85 42 LINE",
"76 41 OFFCURVE",
"33 30 OFFCURVE",
"6 21 CURVE",
"6 0 LINE"
);
},
{
closed = 1;
nodes = (
"420 -178 OFFCURVE",
"444 -151 OFFCURVE",
"444 -116 CURVE SMOOTH",
"444 -81 OFFCURVE",
"420 -54 OFFCURVE",
"382 -54 CURVE SMOOTH",
"345 -54 OFFCURVE",
"321 -81 OFFCURVE",
"321 -116 CURVE SMOOTH",
"321 -151 OFFCURVE",
"345 -178 OFFCURVE",
"382 -178 CURVE SMOOTH"
);
},
{
closed = 1;
nodes = (
"531 178 LINE",
"531 228 LINE",
"190 228 LINE",
"190 178 LINE"
);
},
{
closed = 1;
nodes = (
"486 781 OFFCURVE",
"554 824 OFFCURVE",
"569 915 CURVE",
"483 915 LINE",
"475 842 OFFCURVE",
"429 833 OFFCURVE",
"388 833 CURVE SMOOTH",
"347 833 OFFCURVE",
"300 842 OFFCURVE",
"293 915 CURVE",
"207 915 LINE",
"222 824 OFFCURVE",
"290 781 OFFCURVE",
"388 781 CURVE SMOOTH"
);
}
);
width = 777;
}
);
leftKerningGroup = A;
note = Abrevedotbelow;
rightKerningGroup = A;
unicode = 1EB6;
},
{
glyphname = Abrevegrave;
lastChange = "2015-11-29 15:12:04 +0000";
layers = (
{
layerId = "956CC02E-6E79-4121-A7B2-01E3BBD48F66";
name = Bold;
paths = (
{
closed = 1;
nodes = (
"247 0 LINE",
"247 16 LINE",
"220 26 OFFCURVE",
"195 35 OFFCURVE",
"165 39 CURVE",
"353 562 LINE",
"537 41 LINE",
"518 38 OFFCURVE",
"492 32 OFFCURVE",
"457 20 CURVE",
"457 0 LINE",
"770 0 LINE",
"770 18 LINE",
"744 27 OFFCURVE",
"717 35 OFFCURVE",
"692 40 CURVE",
"444 704 LINE",
"332 704 LINE",
"85 42 LINE",
"76 41 OFFCURVE",
"33 30 OFFCURVE",
"6 21 CURVE",
"6 0 LINE"
);
},
{
closed = 1;
nodes = (
"531 178 LINE",
"531 228 LINE",
"190 228 LINE",
"190 178 LINE"
);
},
{
closed = 1;
nodes = (
"486 781 OFFCURVE",
"554 824 OFFCURVE",
"569 915 CURVE",
"483 915 LINE",
"475 842 OFFCURVE",
"429 833 OFFCURVE",
"388 833 CURVE SMOOTH",
"347 833 OFFCURVE",
"300 842 OFFCURVE",
"293 915 CURVE",
"207 915 LINE",
"222 824 OFFCURVE",
"290 781 OFFCURVE",
"388 781 CURVE SMOOTH"
);
},
{
closed = 1;
nodes = (
"425 952 LINE",
"350 1040 LINE SMOOTH",
"328 1065 OFFCURVE",
"303 1084 OFFCURVE",
"277 1084 CURVE SMOOTH",
"247 1084 OFFCURVE",
"232 1063 OFFCURVE",
"232 1044 CURVE SMOOTH",
"232 1020 OFFCURVE",
"254 995 OFFCURVE",
"294 975 CURVE SMOOTH",
"401 921 LINE"
);
}
);
width = 777;
}
);
leftKerningGroup = A;
note = Abrevegrave;
rightKerningGroup = A;
unicode = 1EB0;
},
{
glyphname = Abrevehookabove;
lastChange = "2015-11-29 15:12:13 +0000";
layers = (
{
layerId = "956CC02E-6E79-4121-A7B2-01E3BBD48F66";
name = Bold;
paths = (
{
closed = 1;
nodes = (
"247 0 LINE",
"247 16 LINE",
"220 26 OFFCURVE",
"195 35 OFFCURVE",
"165 39 CURVE",
"353 562 LINE",
"537 41 LINE",
"518 38 OFFCURVE",
"492 32 OFFCURVE",
"457 20 CURVE",
"457 0 LINE",
"770 0 LINE",
"770 18 LINE",
"744 27 OFFCURVE",
"717 35 OFFCURVE",
"692 40 CURVE",
"444 704 LINE",
"332 704 LINE",
"85 42 LINE",
"76 41 OFFCURVE",
"33 30 OFFCURVE",
"6 21 CURVE",
"6 0 LINE"
);
},
{
closed = 1;
nodes = (
"531 178 LINE",
"531 228 LINE",
"190 228 LINE",
"190 178 LINE"
);
},
{
closed = 1;
nodes = (
"486 781 OFFCURVE",
"554 824 OFFCURVE",
"569 915 CURVE",
"483 915 LINE",
"475 842 OFFCURVE",
"429 833 OFFCURVE",
"388 833 CURVE SMOOTH",
"347 833 OFFCURVE",
"300 842 OFFCURVE",
"293 915 CURVE",
"207 915 LINE",
"222 824 OFFCURVE",
"290 781 OFFCURVE",
"388 781 CURVE SMOOTH"
);
},
{
closed = 1;
nodes = (
"416 932 LINE",
"425 980 LINE",
"472 984 OFFCURVE",
"508 1002 OFFCURVE",
"508 1055 CURVE SMOOTH",
"508 1113 OFFCURVE",
"455 1135 OFFCURVE",
"402 1135 CURVE SMOOTH",
"373 1135 OFFCURVE",
"345 1128 OFFCURVE",
"327 1120 CURVE",
"333 1084 LINE",
"350 1092 OFFCURVE",
"371 1096 OFFCURVE",
"387 1096 CURVE SMOOTH",
"423 1096 OFFCURVE",
"441 1078 OFFCURVE",
"441 1056 CURVE SMOOTH",
"441 1023 OFFCURVE",
"415 1011 OFFCURVE",
"390 1011 CURVE SMOOTH",
"357 1011 LINE",
"361 932 LINE"
);
}
);
width = 777;
}
);
leftKerningGroup = A;
note = Abrevehookabove;
rightKerningGroup = A;
unicode = 1EB2;
},
{
glyphname = Abrevetilde;
lastChange = "2015-11-29 15:12:19 +0000";
layers = (
{
layerId = "956CC02E-6E79-4121-A7B2-01E3BBD48F66";
name = Bold;
paths = (
{
closed = 1;
nodes = (
"247 0 LINE",
"247 16 LINE",
"220 26 OFFCURVE",
"195 35 OFFCURVE",
"165 39 CURVE",
"353 562 LINE",
"537 41 LINE",
"518 38 OFFCURVE",
"492 32 OFFCURVE",
"457 20 CURVE",
"457 0 LINE",
"770 0 LINE",
"770 18 LINE",
"744 27 OFFCURVE",
"717 35 OFFCURVE",
"692 40 CURVE",
"444 704 LINE",
"332 704 LINE",
"85 42 LINE",
"76 41 OFFCURVE",
"33 30 OFFCURVE",
"6 21 CURVE",
"6 0 LINE"
);
},
{
closed = 1;
nodes = (
"531 178 LINE",
"531 228 LINE",
"190 228 LINE",
"190 178 LINE"
);
},
{
closed = 1;
nodes = (
"486 781 OFFCURVE",
"554 824 OFFCURVE",
"569 915 CURVE",
"483 915 LINE",
"475 842 OFFCURVE",
"429 833 OFFCURVE",
"388 833 CURVE SMOOTH",
"347 833 OFFCURVE",
"300 842 OFFCURVE",
"293 915 CURVE",
"207 915 LINE",
"222 824 OFFCURVE",
"290 781 OFFCURVE",
"388 781 CURVE SMOOTH"
);
},
{
closed = 1;
nodes = (
"250 978 LINE",
"256 1010 OFFCURVE",
"281 1030 OFFCURVE",
"313 1030 CURVE SMOOTH",
"358 1030 OFFCURVE",
"398 979 OFFCURVE",
"456 979 CURVE SMOOTH",
"531 979 OFFCURVE",
"568 1025 OFFCURVE",
"576 1095 CURVE",
"525 1095 LINE",
"514 1050 OFFCURVE",
"479 1041 OFFCURVE",
"455 1041 CURVE SMOOTH",
"415 1041 OFFCURVE",
"387 1092 OFFCURVE",
"317 1092 CURVE SMOOTH",
"250 1092 OFFCURVE",
"208 1054 OFFCURVE",
"198 978 CURVE"
);
}
);
width = 777;
}
);
leftKerningGroup = A;
note = Abrevetilde;
rightKerningGroup = A;
unicode = 1EB4;
},
{
glyphname = Acaron;
lastChange = "2015-11-29 15:09:36 +0000";
layers = (
{
layerId = "956CC02E-6E79-4121-A7B2-01E3BBD48F66";
name = Bold;
paths = (
{
closed = 1;
nodes = (
"247 0 LINE",
"247 16 LINE",
"220 26 OFFCURVE",
"195 35 OFFCURVE",
"165 39 CURVE",
"353 562 LINE",
"537 41 LINE",
"518 38 OFFCURVE",
"492 32 OFFCURVE",
"457 20 CURVE",
"457 0 LINE",
"770 0 LINE",
"770 18 LINE",
"744 27 OFFCURVE",
"717 35 OFFCURVE",
"692 40 CURVE",
"444 704 LINE",
"332 704 LINE",
"85 42 LINE",
"76 41 OFFCURVE",
"33 30 OFFCURVE",
"6 21 CURVE",
"6 0 LINE"
);
},
{
closed = 1;
nodes = (
"531 178 LINE",
"531 228 LINE",
"190 228 LINE",
"190 178 LINE"
);
},
{
closed = 1;
nodes = (
"361 786 OFFCURVE",
"415 786 OFFCURVE",
"424 786 CURVE",
"448 822 OFFCURVE",
"535 900 OFFCURVE",
"579 929 CURVE",
"517 974 LINE",
"475 942 OFFCURVE",
"414 882 OFFCURVE",
"390 846 CURVE",
"389 846 OFFCURVE",
"387 846 OFFCURVE",
"386 846 CURVE",
"363 882 OFFCURVE",
"301 942 OFFCURVE",
"260 974 CURVE",
"197 929 LINE",
"242 900 OFFCURVE",
"328 822 OFFCURVE",
"352 786 CURVE"
);
}
);
width = 777;
}
);
leftKerningGroup = A;
note = Acaron;
rightKerningGroup = A;
unicode = 01CD;
},
{
glyphname = Acircumflex;
lastChange = "2015-11-29 15:09:34 +0000";
layers = (
{
layerId = "956CC02E-6E79-4121-A7B2-01E3BBD48F66";
name = Bold;
paths = (
{
closed = 1;
nodes = (
"247 0 LINE",
"247 16 LINE",
"220 26 OFFCURVE",
"195 35 OFFCURVE",
"165 39 CURVE",
"353 562 LINE",
"537 41 LINE",
"518 38 OFFCURVE",
"492 32 OFFCURVE",
"457 20 CURVE",
"457 0 LINE",
"770 0 LINE",
"770 18 LINE",
"744 27 OFFCURVE",
"717 35 OFFCURVE",
"692 40 CURVE",
"444 704 LINE",
"332 704 LINE",
"85 42 LINE",
"76 41 OFFCURVE",
"33 30 OFFCURVE",
"6 21 CURVE",
"6 0 LINE"
);
},
{
closed = 1;
nodes = (
"531 178 LINE",
"531 228 LINE",
"190 228 LINE",
"190 178 LINE"
);
},
{
closed = 1;
nodes = (
"301 816 OFFCURVE",
"363 876 OFFCURVE",
"386 912 CURVE",
"387 912 OFFCURVE",
"389 912 OFFCURVE",
"390 912 CURVE",
"414 876 OFFCURVE",
"475 816 OFFCURVE",
"517 783 CURVE",
"579 829 LINE",
"535 857 OFFCURVE",
"448 936 OFFCURVE",
"424 972 CURVE",
"415 972 OFFCURVE",
"361 972 OFFCURVE",
"352 972 CURVE",
"328 936 OFFCURVE",
"242 857 OFFCURVE",
"197 829 CURVE",
"260 783 LINE"
);
}
);
width = 777;
}
);
leftKerningGroup = A;
note = Acircumflex;
rightKerningGroup = A;
unicode = 00C2;
},
{
glyphname = Acircumflexacute;
lastChange = "2015-11-29 15:09:34 +0000";
layers = (
{
layerId = "956CC02E-6E79-4121-A7B2-01E3BBD48F66";
name = Bold;
paths = (
{
closed = 1;
nodes = (
"247 0 LINE",
"247 16 LINE",
"220 26 OFFCURVE",
"195 35 OFFCURVE",
"165 39 CURVE",
"353 562 LINE",
"537 41 LINE",
"518 38 OFFCURVE",
"492 32 OFFCURVE",
"457 20 CURVE",
"457 0 LINE",
"770 0 LINE",
"770 18 LINE",
"744 27 OFFCURVE",
"717 35 OFFCURVE",
"692 40 CURVE",
"444 704 LINE",
"332 704 LINE",
"85 42 LINE",
"76 41 OFFCURVE",
"33 30 OFFCURVE",
"6 21 CURVE",
"6 0 LINE"
);
},
{
closed = 1;
nodes = (
"531 178 LINE",
"531 228 LINE",
"190 228 LINE",
"190 178 LINE"
);
},
{
closed = 1;
nodes = (
"302 816 OFFCURVE",
"363 876 OFFCURVE",
"387 912 CURVE",
"391 912 LINE",
"415 876 OFFCURVE",
"476 816 OFFCURVE",
"517 783 CURVE",
"580 829 LINE",
"536 857 OFFCURVE",
"449 936 OFFCURVE",
"425 972 CURVE",
"353 972 LINE",
"329 936 OFFCURVE",
"242 857 OFFCURVE",
"198 829 CURVE",
"261 783 LINE"
);
},
{
closed = 1;
nodes = (
"639 976 LINE SMOOTH",
"679 996 OFFCURVE",
"701 1021 OFFCURVE",
"701 1045 CURVE SMOOTH",
"701 1064 OFFCURVE",
"686 1085 OFFCURVE",
"656 1085 CURVE SMOOTH",
"630 1085 OFFCURVE",
"605 1066 OFFCURVE",
"583 1041 CURVE SMOOTH",
"508 953 LINE",
"532 922 LINE"
);
}
);
width = 777;
}
);
leftKerningGroup = A;
note = Acircumflexacute;
rightKerningGroup = A;
unicode = 1EA4;
},
{
glyphname = Acircumflexdotbelow;
lastChange = "2015-11-29 15:12:37 +0000";
layers = (
{
layerId = "956CC02E-6E79-4121-A7B2-01E3BBD48F66";
name = Bold;
paths = (
{
closed = 1;
nodes = (
"247 0 LINE",
"247 16 LINE",
"220 26 OFFCURVE",
"195 35 OFFCURVE",
"165 39 CURVE",
"353 562 LINE",
"537 41 LINE",
"518 38 OFFCURVE",
"492 32 OFFCURVE",
"457 20 CURVE",
"457 0 LINE",
"770 0 LINE",
"770 18 LINE",
"744 27 OFFCURVE",
"717 35 OFFCURVE",
"692 40 CURVE",
"444 704 LINE",
"332 704 LINE",
"85 42 LINE",
"76 41 OFFCURVE",
"33 30 OFFCURVE",
"6 21 CURVE",
"6 0 LINE"
);
},
{
closed = 1;
nodes = (
"427 -178 OFFCURVE",
"451 -151 OFFCURVE",
"451 -116 CURVE SMOOTH",
"451 -81 OFFCURVE",
"427 -54 OFFCURVE",
"389 -54 CURVE SMOOTH",
"352 -54 OFFCURVE",
"328 -81 OFFCURVE",
"328 -116 CURVE SMOOTH",
"328 -151 OFFCURVE",
"352 -178 OFFCURVE",
"389 -178 CURVE SMOOTH"
);
},
{
closed = 1;
nodes = (
"531 178 LINE",
"531 228 LINE",
"190 228 LINE",
"190 178 LINE"
);
},
{
closed = 1;
nodes = (
"302 816 OFFCURVE",
"364 876 OFFCURVE",
"387 912 CURVE",
"388 912 OFFCURVE",
"390 912 OFFCURVE",
"391 912 CURVE",
"415 876 OFFCURVE",
"476 816 OFFCURVE",
"518 783 CURVE",
"580 829 LINE",
"536 857 OFFCURVE",
"449 936 OFFCURVE",
"425 972 CURVE",
"416 972 OFFCURVE",
"362 972 OFFCURVE",
"353 972 CURVE",
"329 936 OFFCURVE",
"243 857 OFFCURVE",
"198 829 CURVE",
"261 783 LINE"
);
}
);
width = 777;
}
);
leftKerningGroup = A;
note = Acircumflexdotbelow;
rightKerningGroup = A;
unicode = 1EAC;
},
{
glyphname = Acircumflexgrave;
lastChange = "2015-11-29 15:09:34 +0000";
layers = (
{
layerId = "956CC02E-6E79-4121-A7B2-01E3BBD48F66";
name = Bold;
paths = (
{
closed = 1;
nodes = (
"247 0 LINE",
"247 16 LINE",
"220 26 OFFCURVE",
"195 35 OFFCURVE",
"165 39 CURVE",
"353 562 LINE",
"537 41 LINE",
"518 38 OFFCURVE",
"492 32 OFFCURVE",
"457 20 CURVE",
"457 0 LINE",
"770 0 LINE",
"770 18 LINE",
"744 27 OFFCURVE",
"717 35 OFFCURVE",
"692 40 CURVE",
"444 704 LINE",
"332 704 LINE",
"85 42 LINE",
"76 41 OFFCURVE",
"33 30 OFFCURVE",
"6 21 CURVE",
"6 0 LINE"
);
},
{
closed = 1;
nodes = (
"531 178 LINE",
"531 228 LINE",
"190 228 LINE",
"190 178 LINE"
);
},
{
closed = 1;
nodes = (
"270 953 LINE",
"195 1041 LINE SMOOTH",
"173 1066 OFFCURVE",
"148 1085 OFFCURVE",
"122 1085 CURVE SMOOTH",
"92 1085 OFFCURVE",
"77 1064 OFFCURVE",
"77 1045 CURVE SMOOTH",
"77 1021 OFFCURVE",
"99 996 OFFCURVE",
"139 976 CURVE SMOOTH",
"246 922 LINE"
);
},
{
closed = 1;
nodes = (
"302 816 OFFCURVE",
"363 876 OFFCURVE",
"387 912 CURVE",
"391 912 LINE",
"415 876 OFFCURVE",
"476 816 OFFCURVE",
"517 783 CURVE",
"580 829 LINE",
"536 857 OFFCURVE",
"449 936 OFFCURVE",
"425 972 CURVE",
"353 972 LINE",
"329 936 OFFCURVE",
"242 857 OFFCURVE",
"198 829 CURVE",
"261 783 LINE"
);
}
);
width = 777;
}
);
leftKerningGroup = A;
note = Acircumflexgrave;
rightKerningGroup = A;
unicode = 1EA6;
},
{
glyphname = Acircumflexhookabove;
lastChange = "2015-11-29 15:09:34 +0000";
layers = (
{
layerId = "956CC02E-6E79-4121-A7B2-01E3BBD48F66";
name = Bold;
paths = (
{
closed = 1;
nodes = (
"247 0 LINE",
"247 16 LINE",
"220 26 OFFCURVE",
"195 35 OFFCURVE",
"165 39 CURVE",
"353 562 LINE",
"537 41 LINE",
"518 38 OFFCURVE",
"492 32 OFFCURVE",
"457 20 CURVE",
"457 0 LINE",
"770 0 LINE",
"770 18 LINE",
"744 27 OFFCURVE",
"717 35 OFFCURVE",
"692 40 CURVE",
"444 704 LINE",
"332 704 LINE",
"85 42 LINE",
"76 41 OFFCURVE",
"33 30 OFFCURVE",
"6 21 CURVE",
"6 0 LINE"
);
},
{
closed = 1;
nodes = (
"531 178 LINE",
"531 228 LINE",
"190 228 LINE",
"190 178 LINE"
);
},
{
closed = 1;
nodes = (
"302 816 OFFCURVE",
"363 876 OFFCURVE",
"387 912 CURVE",
"391 912 LINE",
"415 876 OFFCURVE",
"476 816 OFFCURVE",
"517 783 CURVE",
"580 829 LINE",
"536 857 OFFCURVE",
"449 936 OFFCURVE",
"425 972 CURVE",
"353 972 LINE",
"329 936 OFFCURVE",
"242 857 OFFCURVE",
"198 829 CURVE",
"261 783 LINE"
);
},
{
closed = 1;
nodes = (
"564 933 LINE",
"573 981 LINE",
"620 985 OFFCURVE",
"656 1003 OFFCURVE",
"656 1056 CURVE SMOOTH",
"656 1114 OFFCURVE",
"603 1136 OFFCURVE",
"550 1136 CURVE SMOOTH",
"521 1136 OFFCURVE",
"493 1129 OFFCURVE",
"475 1121 CURVE",
"481 1085 LINE",
"498 1093 OFFCURVE",
"519 1097 OFFCURVE",
"535 1097 CURVE SMOOTH",
"571 1097 OFFCURVE",
"589 1079 OFFCURVE",
"589 1057 CURVE SMOOTH",
"589 1024 OFFCURVE",
"563 1012 OFFCURVE",
"538 1012 CURVE SMOOTH",
"505 1012 LINE",
"509 933 LINE"
);
}
);
width = 777;
}
);
leftKerningGroup = A;
note = Acircumflexhookabove;
rightKerningGroup = A;
unicode = 1EA8;
},
{
glyphname = Acircumflextilde;
lastChange = "2015-11-29 15:09:36 +0000";
layers = (
{
layerId = "956CC02E-6E79-4121-A7B2-01E3BBD48F66";
name = Bold;
paths = (
{
closed = 1;
nodes = (
"247 0 LINE",
"247 16 LINE",
"220 26 OFFCURVE",
"195 35 OFFCURVE",
"165 39 CURVE",
"353 562 LINE",
"537 41 LINE",
"518 38 OFFCURVE",
"492 32 OFFCURVE",
"457 20 CURVE",
"457 0 LINE",
"770 0 LINE",
"770 18 LINE",
"744 27 OFFCURVE",
"717 35 OFFCURVE",
"692 40 CURVE",
"444 704 LINE",
"332 704 LINE",
"85 42 LINE",
"76 41 OFFCURVE",
"33 30 OFFCURVE",
"6 21 CURVE",
"6 0 LINE"
);
},
{
closed = 1;
nodes = (
"531 178 LINE",
"531 228 LINE",
"190 228 LINE",
"190 178 LINE"
);
},
{
closed = 1;
nodes = (
"302 816 OFFCURVE",
"363 876 OFFCURVE",
"387 912 CURVE",
"391 912 LINE",
"415 876 OFFCURVE",
"476 816 OFFCURVE",
"517 783 CURVE",
"580 829 LINE",
"536 857 OFFCURVE",
"449 936 OFFCURVE",
"425 972 CURVE",
"353 972 LINE",
"329 936 OFFCURVE",
"242 857 OFFCURVE",
"198 829 CURVE",
"261 783 LINE"
);
},
{
closed = 1;
nodes = (
"259 1004 LINE",
"265 1036 OFFCURVE",
"290 1056 OFFCURVE",
"322 1056 CURVE SMOOTH",
"367 1056 OFFCURVE",
"407 1005 OFFCURVE",
"465 1005 CURVE SMOOTH",
"540 1005 OFFCURVE",
"577 1051 OFFCURVE",
"585 1121 CURVE",
"534 1121 LINE",
"523 1076 OFFCURVE",
"488 1067 OFFCURVE",
"464 1067 CURVE SMOOTH",
"424 1067 OFFCURVE",
"396 1118 OFFCURVE",
"326 1118 CURVE SMOOTH",
"259 1118 OFFCURVE",
"217 1080 OFFCURVE",
"207 1004 CURVE"
);
}
);
width = 777;
}
);
leftKerningGroup = A;
note = Acircumflextilde;
rightKerningGroup = A;
unicode = 1EAA;
},
{
glyphname = Adieresis;
lastChange = "2015-11-29 15:09:34 +0000";
layers = (
{
layerId = "956CC02E-6E79-4121-A7B2-01E3BBD48F66";
name = Bold;
paths = (
{
closed = 1;
nodes = (
"247 0 LINE",
"247 16 LINE",
"220 26 OFFCURVE",
"195 35 OFFCURVE",
"165 39 CURVE",
"353 562 LINE",
"537 41 LINE",
"518 38 OFFCURVE",
"492 32 OFFCURVE",
"457 20 CURVE",
"457 0 LINE",
"770 0 LINE",
"770 18 LINE",
"744 27 OFFCURVE",
"717 35 OFFCURVE",
"692 40 CURVE",
"444 704 LINE",
"332 704 LINE",
"85 42 LINE",
"76 41 OFFCURVE",
"33 30 OFFCURVE",
"6 21 CURVE",
"6 0 LINE"
);
},
{
closed = 1;
nodes = (
"531 178 LINE",
"531 228 LINE",
"190 228 LINE",
"190 178 LINE"
);
},
{
closed = 1;
nodes = (
"290 785 OFFCURVE",
"314 812 OFFCURVE",
"314 847 CURVE SMOOTH",
"314 882 OFFCURVE",
"290 909 OFFCURVE",
"252 909 CURVE SMOOTH",
"215 909 OFFCURVE",
"191 882 OFFCURVE",
"191 847 CURVE SMOOTH",
"191 812 OFFCURVE",
"215 785 OFFCURVE",
"252 785 CURVE SMOOTH"
);
},
{
closed = 1;
nodes = (
"530 785 OFFCURVE",
"554 812 OFFCURVE",
"554 847 CURVE SMOOTH",
"554 882 OFFCURVE",
"530 909 OFFCURVE",
"492 909 CURVE SMOOTH",
"454 909 OFFCURVE",
"431 882 OFFCURVE",
"431 847 CURVE SMOOTH",
"431 812 OFFCURVE",
"454 785 OFFCURVE",
"492 785 CURVE SMOOTH"
);
}
);
width = 777;
}
);
leftKerningGroup = A;
note = Adieresis;
rightKerningGroup = A;
unicode = 00C4;
},
{
glyphname = Adotbelow;
lastChange = "2015-11-29 15:09:36 +0000";
layers = (
{
layerId = "956CC02E-6E79-4121-A7B2-01E3BBD48F66";
name = Bold;
paths = (
{
closed = 1;
nodes = (
"247 0 LINE",
"247 16 LINE",
"220 26 OFFCURVE",
"195 35 OFFCURVE",
"165 39 CURVE",
"353 562 LINE",
"537 41 LINE",
"518 38 OFFCURVE",
"492 32 OFFCURVE",
"457 20 CURVE",
"457 0 LINE",
"770 0 LINE",
"770 18 LINE",
"744 27 OFFCURVE",
"717 35 OFFCURVE",
"692 40 CURVE",
"444 704 LINE",
"332 704 LINE",
"85 42 LINE",
"76 41 OFFCURVE",
"33 30 OFFCURVE",
"6 21 CURVE",
"6 0 LINE"
);
},
{
closed = 1;
nodes = (
"425 -178 OFFCURVE",
"449 -151 OFFCURVE",
"449 -116 CURVE SMOOTH",
"449 -81 OFFCURVE",
"425 -54 OFFCURVE",
"387 -54 CURVE SMOOTH",
"350 -54 OFFCURVE",
"326 -81 OFFCURVE",
"326 -116 CURVE SMOOTH",
"326 -151 OFFCURVE",
"350 -178 OFFCURVE",
"387 -178 CURVE SMOOTH"
);
},
{
closed = 1;
nodes = (
"531 178 LINE",
"531 228 LINE",
"190 228 LINE",
"190 178 LINE"
);
}
);
width = 777;
}
);
leftKerningGroup = A;
note = Adotbelow;
rightKerningGroup = A;
unicode = 1EA0;
},
{
glyphname = Agrave;
lastChange = "2015-11-29 15:09:36 +0000";
layers = (
{
layerId = "956CC02E-6E79-4121-A7B2-01E3BBD48F66";
name = Bold;
paths = (
{
closed = 1;
nodes = (
"247 0 LINE",
"247 16 LINE",
"220 26 OFFCURVE",
"195 35 OFFCURVE",
"165 39 CURVE",
"353 562 LINE",
"537 41 LINE",
"518 38 OFFCURVE",
"492 32 OFFCURVE",
"457 20 CURVE",
"457 0 LINE",
"770 0 LINE",
"770 18 LINE",
"744 27 OFFCURVE",
"717 35 OFFCURVE",
"692 40 CURVE",
"444 704 LINE",
"332 704 LINE",
"85 42 LINE",
"76 41 OFFCURVE",
"33 30 OFFCURVE",
"6 21 CURVE",
"6 0 LINE"
);
},
{
closed = 1;
nodes = (
"531 178 LINE",
"531 228 LINE",
"190 228 LINE",
"190 178 LINE"
);
},
{
closed = 1;
nodes = (
"492 821 LINE",
"369 948 LINE",
"363 955 OFFCURVE",
"339 982 OFFCURVE",
"306 982 CURVE SMOOTH",
"271 982 OFFCURVE",
"257 959 OFFCURVE",
"257 940 CURVE SMOOTH",
"257 916 OFFCURVE",
"275 898 OFFCURVE",
"307 879 CURVE SMOOTH",
"467 786 LINE"
);
}
);
width = 777;
}
);
leftKerningGroup = A;
note = Agrave;
rightKerningGroup = A;
unicode = 00C0;
},
{
glyphname = Ahookabove;
lastChange = "2015-11-29 15:09:35 +0000";
layers = (
{
layerId = "956CC02E-6E79-4121-A7B2-01E3BBD48F66";
name = Bold;
paths = (
{
closed = 1;
nodes = (
"247 0 LINE",
"247 16 LINE",
"220 26 OFFCURVE",
"195 35 OFFCURVE",
"165 39 CURVE",
"353 562 LINE",
"537 41 LINE",
"518 38 OFFCURVE",
"492 32 OFFCURVE",
"457 20 CURVE",
"457 0 LINE",
"770 0 LINE",
"770 18 LINE",
"744 27 OFFCURVE",
"717 35 OFFCURVE",
"692 40 CURVE",
"444 704 LINE",
"332 704 LINE",
"85 42 LINE",
"76 41 OFFCURVE",
"33 30 OFFCURVE",
"6 21 CURVE",
"6 0 LINE"
);
},
{
closed = 1;
nodes = (
"531 178 LINE",
"531 228 LINE",
"190 228 LINE",
"190 178 LINE"
);
},
{
closed = 1;
nodes = (
"429 783 LINE",
"439 852 LINE",
"493 857 OFFCURVE",
"535 878 OFFCURVE",
"535 938 CURVE SMOOTH",
"535 1004 OFFCURVE",
"473 1029 OFFCURVE",
"413 1029 CURVE SMOOTH",
"380 1029 OFFCURVE",
"348 1021 OFFCURVE",
"327 1011 CURVE",
"334 972 LINE",
"355 984 OFFCURVE",
"378 988 OFFCURVE",
"396 988 CURVE SMOOTH",
"437 988 OFFCURVE",
"458 965 OFFCURVE",
"458 939 CURVE SMOOTH",
"458 901 OFFCURVE",
"428 887 OFFCURVE",
"400 887 CURVE SMOOTH",
"362 887 LINE",
"367 783 LINE"
);
}
);
width = 777;
}
);
leftKerningGroup = A;
note = Ahookabove;
rightKerningGroup = A;
unicode = 1EA2;
},
{
glyphname = Amacron;
lastChange = "2015-11-29 15:09:35 +0000";
layers = (
{
layerId = "956CC02E-6E79-4121-A7B2-01E3BBD48F66";
name = Bold;
paths = (
{
closed = 1;
nodes = (
"247 0 LINE",
"247 16 LINE",
"220 26 OFFCURVE",
"195 35 OFFCURVE",
"165 39 CURVE",
"353 562 LINE",
"537 41 LINE",
"518 38 OFFCURVE",
"492 32 OFFCURVE",
"457 20 CURVE",
"457 0 LINE",
"770 0 LINE",
"770 18 LINE",
"744 27 OFFCURVE",
"717 35 OFFCURVE",
"692 40 CURVE",
"444 704 LINE",
"332 704 LINE",
"85 42 LINE",
"76 41 OFFCURVE",
"33 30 OFFCURVE",
"6 21 CURVE",
"6 0 LINE"
);
},
{
closed = 1;
nodes = (
"531 178 LINE",
"531 228 LINE",
"190 228 LINE",
"190 178 LINE"
);
},
{
closed = 1;
nodes = (
"586 785 LINE",
"586 833 LINE",
"196 833 LINE",
"196 785 LINE"
);
}
);
width = 777;
}
);
leftKerningGroup = A;
note = Amacron;
rightKerningGroup = A;
unicode = 0100;
},
{
glyphname = Aogonek;
lastChange = "2015-11-29 15:09:34 +0000";
layers = (
{
layerId = "956CC02E-6E79-4121-A7B2-01E3BBD48F66";
name = Bold;
paths = (
{
closed = 1;
nodes = (
"247 0 LINE",
"247 16 LINE",
"220 26 OFFCURVE",
"195 35 OFFCURVE",
"165 39 CURVE",
"353 562 LINE",
"537 41 LINE",
"518 38 OFFCURVE",
"492 32 OFFCURVE",
"457 20 CURVE",
"457 0 LINE",
"770 0 LINE",
"770 18 LINE",
"744 27 OFFCURVE",
"717 35 OFFCURVE",
"692 40 CURVE",
"444 704 LINE",
"332 704 LINE",
"85 42 LINE",
"76 41 OFFCURVE",
"33 30 OFFCURVE",
"6 21 CURVE",
"6 0 LINE"
);
},
{
closed = 1;
nodes = (
"531 178 LINE",
"531 228 LINE",
"190 228 LINE",
"190 178 LINE"
);
},
{
closed = 1;
nodes = (
"771 -206 OFFCURVE",
"813 -196 OFFCURVE",
"839 -180 CURVE",
"839 -117 LINE",
"814 -132 OFFCURVE",
"791 -138 OFFCURVE",
"772 -138 CURVE SMOOTH",
"735 -138 OFFCURVE",
"710 -117 OFFCURVE",
"710 -86 CURVE SMOOTH",
"710 -54 OFFCURVE",
"737 -18 OFFCURVE",
"762 0 CURVE",
"689 0 LINE",
"629 -18 OFFCURVE",
"595 -71 OFFCURVE",
"595 -116 CURVE SMOOTH",
"595 -170 OFFCURVE",
"643 -206 OFFCURVE",
"727 -206 CURVE SMOOTH"
);
}
);
width = 777;
}
);
leftKerningGroup = A;
note = Aogonek;
rightKerningGroup = A;
unicode = 0104;
},
{
glyphname = Aring;
lastChange = "2015-11-29 15:09:35 +0000";
layers = (
{
layerId = "956CC02E-6E79-4121-A7B2-01E3BBD48F66";
name = Bold;
paths = (
{
closed = 1;
nodes = (
"247 0 LINE",
"247 16 LINE",
"220 26 OFFCURVE",
"195 35 OFFCURVE",
"165 39 CURVE",
"353 562 LINE",
"537 41 LINE",
"518 38 OFFCURVE",
"492 32 OFFCURVE",
"457 20 CURVE",
"457 0 LINE",
"770 0 LINE",
"770 18 LINE",
"744 27 OFFCURVE",
"717 35 OFFCURVE",
"692 40 CURVE",
"444 704 LINE",
"332 704 LINE",
"85 42 LINE",
"76 41 OFFCURVE",
"33 30 OFFCURVE",
"6 21 CURVE",
"6 0 LINE"
);
},
{
closed = 1;
nodes = (
"531 178 LINE",
"531 228 LINE",
"190 228 LINE",
"190 178 LINE"
);
},
{
closed = 1;
nodes = (
"452 745 OFFCURVE",
"495 786 OFFCURVE",
"495 847 CURVE SMOOTH",
"495 907 OFFCURVE",
"452 949 OFFCURVE",
"387 949 CURVE SMOOTH",
"322 949 OFFCURVE",
"278 907 OFFCURVE",
"278 847 CURVE SMOOTH",
"278 786 OFFCURVE",
"322 745 OFFCURVE",
"387 745 CURVE SMOOTH"
);
},
{
closed = 1;
nodes = (
"354 790 OFFCURVE",
"328 813 OFFCURVE",
"328 847 CURVE SMOOTH",
"328 881 OFFCURVE",
"354 903 OFFCURVE",
"387 903 CURVE SMOOTH",
"420 903 OFFCURVE",
"445 881 OFFCURVE",
"445 847 CURVE SMOOTH",
"445 813 OFFCURVE",
"420 790 OFFCURVE",
"387 790 CURVE SMOOTH"
);
}
);
width = 777;
}
);
leftKerningGroup = A;
note = Aring;
rightKerningGroup = A;
unicode = 00C5;
},
{
glyphname = Aringacute;
lastChange = "2015-11-29 15:09:35 +0000";
layers = (
{
layerId = "956CC02E-6E79-4121-A7B2-01E3BBD48F66";
name = Bold;
paths = (
{
closed = 1;
nodes = (
"247 0 LINE",
"247 16 LINE",
"220 26 OFFCURVE",
"195 35 OFFCURVE",
"165 39 CURVE",
"353 562 LINE",
"537 41 LINE",
"518 38 OFFCURVE",
"492 32 OFFCURVE",
"457 20 CURVE",
"457 0 LINE",
"770 0 LINE",
"770 18 LINE",
"744 27 OFFCURVE",
"717 35 OFFCURVE",
"692 40 CURVE",
"444 704 LINE",
"332 704 LINE",
"85 42 LINE",
"76 41 OFFCURVE",
"33 30 OFFCURVE",
"6 21 CURVE",
"6 0 LINE"
);
},
{
closed = 1;
nodes = (
"531 178 LINE",
"531 228 LINE",
"190 228 LINE",
"190 178 LINE"
);
},
{
closed = 1;
nodes = (
"452 744 OFFCURVE",
"495 785 OFFCURVE",
"495 846 CURVE SMOOTH",
"495 906 OFFCURVE",
"452 948 OFFCURVE",
"387 948 CURVE SMOOTH",
"322 948 OFFCURVE",
"278 906 OFFCURVE",
"278 846 CURVE SMOOTH",
"278 785 OFFCURVE",
"322 744 OFFCURVE",
"387 744 CURVE SMOOTH"
);
},
{
closed = 1;
nodes = (
"354 789 OFFCURVE",
"328 812 OFFCURVE",
"328 846 CURVE SMOOTH",
"328 880 OFFCURVE",
"354 902 OFFCURVE",
"387 902 CURVE SMOOTH",
"420 902 OFFCURVE",
"445 880 OFFCURVE",
"445 846 CURVE SMOOTH",
"445 812 OFFCURVE",
"420 789 OFFCURVE",
"387 789 CURVE SMOOTH"
);
},
{
closed = 1;
nodes = (
"470 1064 LINE SMOOTH",
"502 1083 OFFCURVE",
"520 1101 OFFCURVE",
"520 1125 CURVE SMOOTH",
"520 1144 OFFCURVE",
"505 1167 OFFCURVE",
"471 1167 CURVE SMOOTH",
"437 1167 OFFCURVE",
"413 1139 OFFCURVE",
"407 1132 CURVE",
"285 1006 LINE",
"310 971 LINE"
);
}
);
width = 777;
}
);
leftKerningGroup = A;
note = Aringacute;
rightKerningGroup = A;
unicode = 01FA;
},
{
glyphname = Atilde;
lastChange = "2015-11-29 15:09:36 +0000";
layers = (
{
layerId = "956CC02E-6E79-4121-A7B2-01E3BBD48F66";
name = Bold;
paths = (
{
closed = 1;
nodes = (
"247 0 LINE",
"247 16 LINE",
"220 26 OFFCURVE",
"195 35 OFFCURVE",
"165 39 CURVE",
"353 562 LINE",
"537 41 LINE",
"518 38 OFFCURVE",
"492 32 OFFCURVE",
"457 20 CURVE",
"457 0 LINE",
"770 0 LINE",
"770 18 LINE",
"744 27 OFFCURVE",
"717 35 OFFCURVE",
"692 40 CURVE",
"444 704 LINE",
"332 704 LINE",
"85 42 LINE",
"76 41 OFFCURVE",
"33 30 OFFCURVE",
"6 21 CURVE",
"6 0 LINE"
);
},
{
closed = 1;
nodes = (
"531 178 LINE",
"531 228 LINE",
"190 228 LINE",
"190 178 LINE"
);
},
{
closed = 1;
nodes = (
"250 786 LINE",
"256 818 OFFCURVE",
"277 839 OFFCURVE",
"307 839 CURVE SMOOTH",
"343 839 OFFCURVE",
"406 786 OFFCURVE",
"465 786 CURVE SMOOTH",
"542 786 OFFCURVE",
"579 834 OFFCURVE",
"586 905 CURVE",
"521 905 LINE",
"510 859 OFFCURVE",
"485 851 OFFCURVE",
"460 851 CURVE SMOOTH",
"419 851 OFFCURVE",
"377 903 OFFCURVE",
"305 903 CURVE SMOOTH",
"237 903 OFFCURVE",
"194 863 OFFCURVE",
"183 786 CURVE"
);
}
);
width = 777;
}
);
leftKerningGroup = A;
note = Atilde;
rightKerningGroup = A;
unicode = 00C3;
},
{
glyphname = AE;
lastChange = "2015-11-29 15:09:34 +0000";
layers = (
{
layerId = "956CC02E-6E79-4121-A7B2-01E3BBD48F66";
name = Bold;
paths = (
{
closed = 1;
nodes = (
"255 0 LINE",
"255 16 LINE",
"229 26 OFFCURVE",
"198 35 OFFCURVE",
"168 39 CURVE",
"248 178 LINE",
"490 178 LINE",
"490 39 LINE",
"462 35 OFFCURVE",
"431 27 OFFCURVE",
"404 18 CURVE",
"404 0 LINE",
"976 0 LINE",
"994 175 LINE",
"960 175 LINE",
"943 154 OFFCURVE",
"913 85 OFFCURVE",
"910 49 CURVE",
"645 49 LINE",
"645 334 LINE",
"820 334 LINE",
"822 317 OFFCURVE",
"830 278 OFFCURVE",
"840 248 CURVE",
"865 248 LINE",
"865 470 LINE",
"840 470 LINE",
"829 442 OFFCURVE",
"822 402 OFFCURVE",
"820 384 CURVE",
"645 384 LINE",
"645 650 LINE",
"904 650 LINE",
"906 619 OFFCURVE",
"929 546 OFFCURVE",
"943 523 CURVE",
"977 523 LINE",
"977 700 LINE",
"402 700 LINE",
"402 682 LINE",
"419 675 OFFCURVE",
"437 671 OFFCURVE",
"454 667 CURVE",
"83 41 LINE",
"58 35 OFFCURVE",
"34 28 OFFCURVE",
"6 18 CURVE",
"6 0 LINE"
);
},
{
closed = 1;
nodes = (
"490 595 LINE",
"490 228 LINE",
"277 228 LINE"
);
}
);
width = 1034;
}
);
leftKerningGroup = A;
note = AE;
unicode = 00C6;
},
{
glyphname = AEacute;
lastChange = "2015-11-29 15:09:35 +0000";
layers = (
{
layerId = "956CC02E-6E79-4121-A7B2-01E3BBD48F66";
name = Bold;
paths = (
{
closed = 1;
nodes = (
"255 0 LINE",
"255 16 LINE",
"229 26 OFFCURVE",
"198 35 OFFCURVE",
"168 39 CURVE",
"248 178 LINE",
"490 178 LINE",
"490 39 LINE",
"462 35 OFFCURVE",
"431 27 OFFCURVE",
"404 18 CURVE",
"404 0 LINE",
"976 0 LINE",
"994 175 LINE",
"960 175 LINE",
"943 154 OFFCURVE",
"913 85 OFFCURVE",
"910 49 CURVE",
"645 49 LINE",
"645 334 LINE",
"820 334 LINE",
"822 317 OFFCURVE",
"830 278 OFFCURVE",
"840 248 CURVE",
"865 248 LINE",
"865 470 LINE",
"840 470 LINE",
"829 442 OFFCURVE",
"822 402 OFFCURVE",
"820 384 CURVE",
"645 384 LINE",
"645 650 LINE",
"904 650 LINE",
"906 619 OFFCURVE",
"929 546 OFFCURVE",
"943 523 CURVE",
"977 523 LINE",
"977 700 LINE",
"402 700 LINE",
"402 682 LINE",
"419 675 OFFCURVE",
"437 671 OFFCURVE",
"454 667 CURVE",
"83 41 LINE",
"58 35 OFFCURVE",
"34 28 OFFCURVE",
"6 18 CURVE",
"6 0 LINE"
);
},
{
closed = 1;
nodes = (
"490 595 LINE",
"490 228 LINE",
"277 228 LINE"
);
},
{
closed = 1;
nodes = (
"779 879 LINE SMOOTH",
"811 898 OFFCURVE",
"829 916 OFFCURVE",
"829 940 CURVE SMOOTH",
"829 959 OFFCURVE",
"814 982 OFFCURVE",
"780 982 CURVE SMOOTH",
"746 982 OFFCURVE",
"722 954 OFFCURVE",
"716 947 CURVE",
"594 821 LINE",
"619 786 LINE"
);
}
);
width = 1034;
}
);
leftKerningGroup = A;
note = AEacute;
unicode = 01FC;
},
{
glyphname = B;
lastChange = "2015-11-29 15:09:35 +0000";
layers = (
{
layerId = "956CC02E-6E79-4121-A7B2-01E3BBD48F66";
name = Bold;
paths = (
{
closed = 1;
nodes = (
"380 0 LINE SMOOTH",
"558 0 OFFCURVE",
"622 69 OFFCURVE",
"622 194 CURVE SMOOTH",
"622 261 OFFCURVE",
"582 342 OFFCURVE",
"465 367 CURVE",
"465 373 LINE",
"553 398 OFFCURVE",
"593 466 OFFCURVE",
"593 537 CURVE SMOOTH",
"593 643 OFFCURVE",
"529 700 OFFCURVE",
"349 700 CURVE SMOOTH",
"23 700 LINE",
"23 681 LINE",
"53 671 OFFCURVE",
"79 664 OFFCURVE",
"103 660 CURVE",
"103 42 LINE",
"85 39 OFFCURVE",
"67 34 OFFCURVE",
"23 17 CURVE",
"23 0 LINE"
);
},
{
closed = 1;
nodes = (
"260 343 LINE",
"346 343 LINE SMOOTH",
"422 343 OFFCURVE",
"466 294 OFFCURVE",
"466 200 CURVE SMOOTH",
"466 103 OFFCURVE",
"433 49 OFFCURVE",
"359 49 CURVE SMOOTH",
"260 49 LINE"
);
},
{
closed = 1;
nodes = (
"260 650 LINE",
"328 650 LINE SMOOTH",
"404 650 OFFCURVE",
"435 612 OFFCURVE",
"435 528 CURVE SMOOTH",
"435 446 OFFCURVE",
"399 392 OFFCURVE",
"324 392 CURVE SMOOTH",
"260 392 LINE"
);
}
);
width = 643;
}
);
note = B;
unicode = 0042;
},
{
glyphname = C;
lastChange = "2015-11-29 15:09:30 +0000";
layers = (
{
layerId = "956CC02E-6E79-4121-A7B2-01E3BBD48F66";
name = Bold;
paths = (
{
closed = 1;
nodes = (
"482 -10 OFFCURVE",
"566 16 OFFCURVE",
"619 62 CURVE",
"597 104 LINE",
"534 59 OFFCURVE",
"462 42 OFFCURVE",
"410 42 CURVE SMOOTH",
"269 42 OFFCURVE",
"199 160 OFFCURVE",
"199 350 CURVE SMOOTH",
"199 539 OFFCURVE",
"282 658 OFFCURVE",
"424 658 CURVE SMOOTH",
"470 658 OFFCURVE",
"512 646 OFFCURVE",
"548 618 CURVE",
"552 573 OFFCURVE",
"561 520 OFFCURVE",
"573 485 CURVE",
"610 485 LINE",
"624 631 LINE",
"572 680 OFFCURVE",
"501 710 OFFCURVE",
"384 710 CURVE SMOOTH",
"159 710 OFFCURVE",
"39 572 OFFCURVE",
"39 350 CURVE SMOOTH",
"39 127 OFFCURVE",
"156 -10 OFFCURVE",
"388 -10 CURVE SMOOTH"
);
}
);
width = 664;
}
);
leftKerningGroup = C;
note = C;
unicode = 0043;
},
{
glyphname = Cacute;
lastChange = "2015-11-29 15:09:34 +0000";
layers = (
{
layerId = "956CC02E-6E79-4121-A7B2-01E3BBD48F66";
name = Bold;
paths = (
{
closed = 1;
nodes = (
"482 -10 OFFCURVE",
"566 16 OFFCURVE",
"619 62 CURVE",
"597 104 LINE",
"534 59 OFFCURVE",
"462 42 OFFCURVE",
"410 42 CURVE SMOOTH",
"269 42 OFFCURVE",
"199 160 OFFCURVE",
"199 350 CURVE SMOOTH",
"199 539 OFFCURVE",
"282 658 OFFCURVE",
"424 658 CURVE SMOOTH",
"470 658 OFFCURVE",
"512 646 OFFCURVE",
"548 618 CURVE",
"552 573 OFFCURVE",
"561 520 OFFCURVE",
"573 485 CURVE",
"610 485 LINE",
"624 631 LINE",
"572 680 OFFCURVE",
"501 710 OFFCURVE",
"384 710 CURVE SMOOTH",
"159 710 OFFCURVE",
"39 572 OFFCURVE",
"39 350 CURVE SMOOTH",
"39 127 OFFCURVE",
"156 -10 OFFCURVE",
"388 -10 CURVE SMOOTH"
);
},
{
closed = 1;
nodes = (
"500 879 LINE SMOOTH",
"532 898 OFFCURVE",
"550 916 OFFCURVE",
"550 940 CURVE SMOOTH",
"550 959 OFFCURVE",
"535 982 OFFCURVE",
"501 982 CURVE SMOOTH",
"467 982 OFFCURVE",
"443 954 OFFCURVE",
"437 947 CURVE",
"315 821 LINE",
"340 786 LINE"
);
}
);
width = 664;
}
);
leftKerningGroup = C;
note = Cacute;
unicode = 0106;
},
{
glyphname = Ccaron;
lastChange = "2015-11-29 15:09:35 +0000";
layers = (
{
layerId = "956CC02E-6E79-4121-A7B2-01E3BBD48F66";
name = Bold;
paths = (
{
closed = 1;
nodes = (
"482 -10 OFFCURVE",
"566 16 OFFCURVE",
"619 62 CURVE",
"597 104 LINE",
"534 59 OFFCURVE",
"462 42 OFFCURVE",
"410 42 CURVE SMOOTH",
"269 42 OFFCURVE",
"199 160 OFFCURVE",
"199 350 CURVE SMOOTH",
"199 539 OFFCURVE",
"282 658 OFFCURVE",
"424 658 CURVE SMOOTH",
"470 658 OFFCURVE",
"512 646 OFFCURVE",
"548 618 CURVE",
"552 573 OFFCURVE",
"561 520 OFFCURVE",
"573 485 CURVE",
"610 485 LINE",
"624 631 LINE",
"572 680 OFFCURVE",
"501 710 OFFCURVE",
"384 710 CURVE SMOOTH",
"159 710 OFFCURVE",
"39 572 OFFCURVE",
"39 350 CURVE SMOOTH",
"39 127 OFFCURVE",
"156 -10 OFFCURVE",
"388 -10 CURVE SMOOTH"
);
},
{
closed = 1;
nodes = (
"382 786 OFFCURVE",
"436 786 OFFCURVE",
"445 786 CURVE",
"469 822 OFFCURVE",
"556 900 OFFCURVE",
"600 929 CURVE",
"538 974 LINE",
"496 942 OFFCURVE",
"435 882 OFFCURVE",
"411 846 CURVE",
"410 846 OFFCURVE",
"408 846 OFFCURVE",
"407 846 CURVE",
"384 882 OFFCURVE",
"322 942 OFFCURVE",
"281 974 CURVE",
"218 929 LINE",
"263 900 OFFCURVE",
"349 822 OFFCURVE",
"373 786 CURVE"
);
}
);
width = 664;
}
);
leftKerningGroup = C;
note = Ccaron;
unicode = 010C;
},
{
glyphname = Ccedilla;
lastChange = "2015-11-29 15:09:36 +0000";
layers = (
{
layerId = "956CC02E-6E79-4121-A7B2-01E3BBD48F66";
name = Bold;
paths = (
{
closed = 1;
nodes = (
"482 -10 OFFCURVE",
"566 16 OFFCURVE",
"619 62 CURVE",
"597 104 LINE",
"534 59 OFFCURVE",
"462 42 OFFCURVE",
"410 42 CURVE SMOOTH",
"269 42 OFFCURVE",
"199 160 OFFCURVE",
"199 350 CURVE SMOOTH",
"199 539 OFFCURVE",
"282 658 OFFCURVE",
"424 658 CURVE SMOOTH",
"470 658 OFFCURVE",
"512 646 OFFCURVE",
"548 618 CURVE",
"552 573 OFFCURVE",
"561 520 OFFCURVE",
"573 485 CURVE",
"610 485 LINE",
"624 631 LINE",
"572 680 OFFCURVE",
"501 710 OFFCURVE",
"384 710 CURVE SMOOTH",
"159 710 OFFCURVE",
"39 572 OFFCURVE",
"39 350 CURVE SMOOTH",
"39 127 OFFCURVE",
"156 -10 OFFCURVE",
"388 -10 CURVE SMOOTH"
);
},
{
closed = 1;
nodes = (
"425 -258 OFFCURVE",
"491 -222 OFFCURVE",
"491 -151 CURVE SMOOTH",
"491 -108 OFFCURVE",
"455 -66 OFFCURVE",
"371 -66 CURVE",
"412 18 LINE",
"346 18 LINE",
"298 -76 LINE",
"324 -110 LINE",
"331 -109 OFFCURVE",
"339 -108 OFFCURVE",
"347 -108 CURVE SMOOTH",
"378 -108 OFFCURVE",
"415 -117 OFFCURVE",
"415 -151 CURVE SMOOTH",
"415 -193 OFFCURVE",
"377 -206 OFFCURVE",
"333 -206 CURVE SMOOTH",
"305 -206 OFFCURVE",
"275 -199 OFFCURVE",
"255 -188 CURVE",
"231 -227 LINE",
"261 -247 OFFCURVE",
"307 -258 OFFCURVE",
"345 -258 CURVE SMOOTH"
);
}
);
width = 664;
}
);
leftKerningGroup = C;
note = Ccedilla;
unicode = 00C7;
},
{
glyphname = Ccircumflex;
lastChange = "2015-11-29 15:09:34 +0000";
layers = (
{
layerId = "956CC02E-6E79-4121-A7B2-01E3BBD48F66";
name = Bold;
paths = (
{
closed = 1;
nodes = (
"482 -10 OFFCURVE",
"566 16 OFFCURVE",
"619 62 CURVE",
"597 104 LINE",
"534 59 OFFCURVE",
"462 42 OFFCURVE",
"410 42 CURVE SMOOTH",
"269 42 OFFCURVE",
"199 160 OFFCURVE",
"199 350 CURVE SMOOTH",
"199 539 OFFCURVE",
"282 658 OFFCURVE",
"424 658 CURVE SMOOTH",
"470 658 OFFCURVE",
"512 646 OFFCURVE",
"548 618 CURVE",
"552 573 OFFCURVE",
"561 520 OFFCURVE",
"573 485 CURVE",
"610 485 LINE",
"624 631 LINE",
"572 680 OFFCURVE",
"501 710 OFFCURVE",
"384 710 CURVE SMOOTH",
"159 710 OFFCURVE",
"39 572 OFFCURVE",
"39 350 CURVE SMOOTH",
"39 127 OFFCURVE",
"156 -10 OFFCURVE",
"388 -10 CURVE SMOOTH"
);
},
{
closed = 1;
nodes = (
"311 816 OFFCURVE",
"373 876 OFFCURVE",
"396 912 CURVE",
"397 912 OFFCURVE",
"399 912 OFFCURVE",
"400 912 CURVE",
"424 876 OFFCURVE",
"485 816 OFFCURVE",
"527 783 CURVE",
"589 829 LINE",
"545 857 OFFCURVE",
"458 936 OFFCURVE",
"434 972 CURVE",
"425 972 OFFCURVE",
"371 972 OFFCURVE",
"362 972 CURVE",
"338 936 OFFCURVE",
"252 857 OFFCURVE",
"207 829 CURVE",
"270 783 LINE"
);
}
);
width = 664;
}
);
leftKerningGroup = C;
note = Ccircumflex;
unicode = 0108;
},
{
glyphname = Cdotaccent;
lastChange = "2015-11-29 15:09:36 +0000";
layers = (
{
layerId = "956CC02E-6E79-4121-A7B2-01E3BBD48F66";
name = Bold;
paths = (
{
closed = 1;
nodes = (
"482 -10 OFFCURVE",
"566 16 OFFCURVE",
"619 62 CURVE",
"597 104 LINE",
"534 59 OFFCURVE",
"462 42 OFFCURVE",
"410 42 CURVE SMOOTH",
"269 42 OFFCURVE",
"199 160 OFFCURVE",
"199 350 CURVE SMOOTH",
"199 539 OFFCURVE",
"282 658 OFFCURVE",
"424 658 CURVE SMOOTH",
"470 658 OFFCURVE",
"512 646 OFFCURVE",
"548 618 CURVE",
"552 573 OFFCURVE",
"561 520 OFFCURVE",
"573 485 CURVE",
"610 485 LINE",
"624 631 LINE",
"572 680 OFFCURVE",
"501 710 OFFCURVE",
"384 710 CURVE SMOOTH",
"159 710 OFFCURVE",
"39 572 OFFCURVE",
"39 350 CURVE SMOOTH",
"39 127 OFFCURVE",
"156 -10 OFFCURVE",
"388 -10 CURVE SMOOTH"
);
},
{
closed = 1;
nodes = (
"449 785 OFFCURVE",
"473 812 OFFCURVE",
"473 847 CURVE SMOOTH",
"473 882 OFFCURVE",
"449 909 OFFCURVE",
"412 909 CURVE SMOOTH",
"374 909 OFFCURVE",
"351 882 OFFCURVE",
"351 847 CURVE SMOOTH",
"351 812 OFFCURVE",
"374 785 OFFCURVE",
"412 785 CURVE SMOOTH"
);
}
);
width = 664;
}
);
leftKerningGroup = C;
note = Cdotaccent;
unicode = 010A;
},
{
glyphname = D;
lastChange = "2015-11-29 15:09:34 +0000";
layers = (
{
layerId = "956CC02E-6E79-4121-A7B2-01E3BBD48F66";
name = Bold;
paths = (
{
closed = 1;
nodes = (
"360 0 LINE SMOOTH",
"588 0 OFFCURVE",
"680 127 OFFCURVE",
"680 350 CURVE SMOOTH",
"680 573 OFFCURVE",
"589 700 OFFCURVE",
"361 700 CURVE SMOOTH",
"30 700 LINE",
"30 682 LINE",
"58 673 OFFCURVE",
"84 665 OFFCURVE",
"109 660 CURVE",
"109 41 LINE",
"90 38 OFFCURVE",
"58 28 OFFCURVE",
"30 19 CURVE",
"30 0 LINE"
);
},
{
closed = 1;
nodes = (
"264 650 LINE",
"360 650 LINE SMOOTH",
"481 650 OFFCURVE",
"520 529 OFFCURVE",
"520 350 CURVE SMOOTH",
"520 170 OFFCURVE",
"481 49 OFFCURVE",
"358 49 CURVE SMOOTH",
"264 49 LINE"
);
}
);
width = 716;
}
);
note = D;
rightKerningGroup = D;
unicode = 0044;
},
{
glyphname = Eth;
lastChange = "2015-11-29 15:17:05 +0000";
layers = (
{
layerId = "956CC02E-6E79-4121-A7B2-01E3BBD48F66";
name = Bold;
paths = (
{
closed = 1;
nodes = (
"360 0 LINE SMOOTH",
"588 0 OFFCURVE",
"680 127 OFFCURVE",
"680 350 CURVE SMOOTH",
"680 573 OFFCURVE",
"589 700 OFFCURVE",
"361 700 CURVE SMOOTH",
"30 700 LINE",
"30 682 LINE",
"58 673 OFFCURVE",
"84 665 OFFCURVE",
"109 660 CURVE",
"109 41 LINE",
"90 38 OFFCURVE",
"58 28 OFFCURVE",
"30 19 CURVE",
"30 0 LINE"
);
},
{
closed = 1;
nodes = (
"264 650 LINE",
"360 650 LINE SMOOTH",
"481 650 OFFCURVE",
"520 529 OFFCURVE",
"520 350 CURVE SMOOTH",
"520 170 OFFCURVE",
"481 49 OFFCURVE",
"358 49 CURVE SMOOTH",
"264 49 LINE"
);
},
{
closed = 1;
nodes = (
"408 309 LINE",
"408 358 LINE",
"44 358 LINE",
"44 309 LINE"
);
}
);
width = 716;
}
);
note = Eth;
rightKerningGroup = D;
unicode = 00D0;
},
{
glyphname = Dcaron;
lastChange = "2015-11-29 15:09:35 +0000";
layers = (
{
layerId = "956CC02E-6E79-4121-A7B2-01E3BBD48F66";
name = Bold;
paths = (
{
closed = 1;
nodes = (
"360 0 LINE SMOOTH",
"588 0 OFFCURVE",
"680 127 OFFCURVE",
"680 350 CURVE SMOOTH",
"680 573 OFFCURVE",
"589 700 OFFCURVE",
"361 700 CURVE SMOOTH",
"30 700 LINE",
"30 682 LINE",
"58 673 OFFCURVE",
"84 665 OFFCURVE",
"109 660 CURVE",
"109 41 LINE",
"90 38 OFFCURVE",
"58 28 OFFCURVE",
"30 19 CURVE",
"30 0 LINE"
);
},
{
closed = 1;
nodes = (
"264 650 LINE",
"360 650 LINE SMOOTH",
"481 650 OFFCURVE",
"520 529 OFFCURVE",
"520 350 CURVE SMOOTH",
"520 170 OFFCURVE",
"481 49 OFFCURVE",
"358 49 CURVE SMOOTH",
"264 49 LINE"
);
},
{
closed = 1;
nodes = (
"319 786 OFFCURVE",
"373 786 OFFCURVE",
"382 786 CURVE",
"406 822 OFFCURVE",
"493 900 OFFCURVE",
"537 929 CURVE",
"475 974 LINE",
"433 942 OFFCURVE",
"372 882 OFFCURVE",
"348 846 CURVE",
"347 846 OFFCURVE",
"345 846 OFFCURVE",
"344 846 CURVE",
"321 882 OFFCURVE",
"259 942 OFFCURVE",
"218 974 CURVE",
"155 929 LINE",
"200 900 OFFCURVE",
"286 822 OFFCURVE",
"310 786 CURVE"
);
}
);
width = 716;
}
);
note = Dcaron;
rightKerningGroup = D;
unicode = 010E;
},
{
glyphname = Dcroat;
lastChange = "2015-11-29 15:17:01 +0000";
layers = (
{
layerId = "956CC02E-6E79-4121-A7B2-01E3BBD48F66";
name = Bold;
paths = (
{
closed = 1;
nodes = (
"360 0 LINE SMOOTH",
"588 0 OFFCURVE",
"680 127 OFFCURVE",
"680 350 CURVE SMOOTH",
"680 573 OFFCURVE",
"589 700 OFFCURVE",
"361 700 CURVE SMOOTH",
"30 700 LINE",
"30 682 LINE",
"58 673 OFFCURVE",
"84 665 OFFCURVE",
"109 660 CURVE",
"109 41 LINE",
"90 38 OFFCURVE",
"58 28 OFFCURVE",
"30 19 CURVE",
"30 0 LINE"
);
},
{
closed = 1;
nodes = (
"264 650 LINE",
"360 650 LINE SMOOTH",
"481 650 OFFCURVE",
"520 529 OFFCURVE",
"520 350 CURVE SMOOTH",
"520 170 OFFCURVE",
"481 49 OFFCURVE",
"358 49 CURVE SMOOTH",
"264 49 LINE"
);
},
{
closed = 1;
nodes = (
"408 309 LINE",
"408 358 LINE",
"44 358 LINE",
"44 309 LINE"
);
}
);
width = 716;
}
);
note = Dcroat;
rightKerningGroup = D;
unicode = 0110;
},
{
glyphname = Ddotbelow;
lastChange = "2015-11-29 15:17:08 +0000";
layers = (
{
layerId = "956CC02E-6E79-4121-A7B2-01E3BBD48F66";
name = Bold;
paths = (
{
closed = 1;
nodes = (
"360 0 LINE SMOOTH",
"588 0 OFFCURVE",
"680 127 OFFCURVE",
"680 350 CURVE SMOOTH",
"680 573 OFFCURVE",
"589 700 OFFCURVE",
"361 700 CURVE SMOOTH",
"30 700 LINE",
"30 682 LINE",
"58 673 OFFCURVE",
"84 665 OFFCURVE",
"109 660 CURVE",
"109 41 LINE",
"90 38 OFFCURVE",
"58 28 OFFCURVE",
"30 19 CURVE",
"30 0 LINE"
);
},
{
closed = 1;
nodes = (
"264 650 LINE",
"360 650 LINE SMOOTH",
"481 650 OFFCURVE",
"520 529 OFFCURVE",
"520 350 CURVE SMOOTH",
"520 170 OFFCURVE",
"481 49 OFFCURVE",
"358 49 CURVE SMOOTH",
"264 49 LINE"
);
},
{
closed = 1;
nodes = (
"292 -151 OFFCURVE",
"316 -178 OFFCURVE",
"353 -178 CURVE SMOOTH",
"391 -178 OFFCURVE",
"415 -151 OFFCURVE",
"415 -116 CURVE SMOOTH",
"415 -81 OFFCURVE",
"391 -54 OFFCURVE",
"353 -54 CURVE SMOOTH",
"316 -54 OFFCURVE",
"292 -81 OFFCURVE",
"292 -116 CURVE SMOOTH"
);
}
);
width = 716;
}
);
note = Ddotbelow;
rightKerningGroup = D;
unicode = 1E0C;
},
{
glyphname = Dlinebelow;
lastChange = "2015-11-29 15:17:13 +0000";
layers = (
{
layerId = "956CC02E-6E79-4121-A7B2-01E3BBD48F66";
name = Bold;
paths = (
{
closed = 1;
nodes = (
"360 0 LINE SMOOTH",
"588 0 OFFCURVE",
"680 127 OFFCURVE",
"680 350 CURVE SMOOTH",
"680 573 OFFCURVE",
"589 700 OFFCURVE",
"361 700 CURVE SMOOTH",
"30 700 LINE",
"30 682 LINE",
"58 673 OFFCURVE",
"84 665 OFFCURVE",
"109 660 CURVE",
"109 41 LINE",
"90 38 OFFCURVE",
"58 28 OFFCURVE",
"30 19 CURVE",
"30 0 LINE"
);
},
{
closed = 1;
nodes = (
"264 650 LINE",
"360 650 LINE SMOOTH",
"481 650 OFFCURVE",
"520 529 OFFCURVE",
"520 350 CURVE SMOOTH",
"520 170 OFFCURVE",
"481 49 OFFCURVE",
"358 49 CURVE SMOOTH",
"264 49 LINE"
);
},
{
closed = 1;
nodes = (
"542 -109 LINE",
"542 -61 LINE",
"152 -61 LINE",
"152 -109 LINE"
);
}
);
width = 716;
}
);
note = Dlinebelow;
rightKerningGroup = D;
unicode = 1E0E;
},
{
glyphname = E;
lastChange = "2015-11-29 15:09:35 +0000";
layers = (
{
layerId = "956CC02E-6E79-4121-A7B2-01E3BBD48F66";
name = Bold;
paths = (
{
closed = 1;
nodes = (
"602 0 LINE",
"621 175 LINE",
"587 175 LINE",
"570 154 OFFCURVE",
"539 85 OFFCURVE",
"536 49 CURVE",
"273 49 LINE",
"273 650 LINE",
"530 650 LINE",
"532 619 OFFCURVE",
"555 546 OFFCURVE",
"569 523 CURVE",
"603 523 LINE",
"603 700 LINE",
"30 700 LINE",
"30 682 LINE",
"59 672 OFFCURVE",
"91 664 OFFCURVE",
"116 660 CURVE",
"116 40 LINE",
"91 36 OFFCURVE",
"58 28 OFFCURVE",
"30 18 CURVE",
"30 0 LINE"
);
},
{
closed = 1;
nodes = (
"492 239 LINE",
"492 461 LINE",
"467 461 LINE",
"456 433 OFFCURVE",
"449 393 OFFCURVE",
"446 375 CURVE",
"191 375 LINE",
"191 325 LINE",
"446 325 LINE",
"448 308 OFFCURVE",
"456 269 OFFCURVE",
"467 239 CURVE"
);
}
);
width = 660;
}
);
note = E;
unicode = 0045;
},
{
glyphname = Eacute;
lastChange = "2015-11-29 15:09:34 +0000";
layers = (
{
layerId = "956CC02E-6E79-4121-A7B2-01E3BBD48F66";
name = Bold;
paths = (
{
closed = 1;
nodes = (
"602 0 LINE",
"621 175 LINE",
"587 175 LINE",
"570 154 OFFCURVE",
"539 85 OFFCURVE",
"536 49 CURVE",
"273 49 LINE",
"273 650 LINE",
"530 650 LINE",
"532 619 OFFCURVE",
"555 546 OFFCURVE",
"569 523 CURVE",
"603 523 LINE",
"603 700 LINE",
"30 700 LINE",
"30 682 LINE",
"59 672 OFFCURVE",
"91 664 OFFCURVE",
"116 660 CURVE",
"116 40 LINE",
"91 36 OFFCURVE",
"58 28 OFFCURVE",
"30 18 CURVE",
"30 0 LINE"
);
},
{
closed = 1;
nodes = (
"492 239 LINE",
"492 461 LINE",
"467 461 LINE",
"456 433 OFFCURVE",
"449 393 OFFCURVE",
"446 375 CURVE",
"191 375 LINE",
"191 325 LINE",
"446 325 LINE",
"448 308 OFFCURVE",
"456 269 OFFCURVE",
"467 239 CURVE"
);
},
{
closed = 1;
nodes = (
"440 879 LINE SMOOTH",
"472 898 OFFCURVE",
"490 916 OFFCURVE",
"490 940 CURVE SMOOTH",
"490 959 OFFCURVE",
"475 982 OFFCURVE",
"441 982 CURVE SMOOTH",
"407 982 OFFCURVE",
"383 954 OFFCURVE",
"377 947 CURVE",
"255 821 LINE",
"280 786 LINE"
);
}
);
width = 660;
}
);
note = Eacute;
unicode = 00C9;
},
{
glyphname = Ebreve;
lastChange = "2015-11-29 15:09:36 +0000";
layers = (
{
layerId = "956CC02E-6E79-4121-A7B2-01E3BBD48F66";
name = Bold;
paths = (
{
closed = 1;
nodes = (
"602 0 LINE",
"621 175 LINE",
"587 175 LINE",
"570 154 OFFCURVE",
"539 85 OFFCURVE",
"536 49 CURVE",
"273 49 LINE",
"273 650 LINE",
"530 650 LINE",
"532 619 OFFCURVE",
"555 546 OFFCURVE",
"569 523 CURVE",
"603 523 LINE",
"603 700 LINE",
"30 700 LINE",
"30 682 LINE",
"59 672 OFFCURVE",
"91 664 OFFCURVE",
"116 660 CURVE",
"116 40 LINE",
"91 36 OFFCURVE",
"58 28 OFFCURVE",
"30 18 CURVE",
"30 0 LINE"
);
},
{
closed = 1;
nodes = (
"492 239 LINE",
"492 461 LINE",
"467 461 LINE",
"456 433 OFFCURVE",
"449 393 OFFCURVE",
"446 375 CURVE",
"191 375 LINE",
"191 325 LINE",
"446 325 LINE",
"448 308 OFFCURVE",
"456 269 OFFCURVE",
"467 239 CURVE"
);
},
{
closed = 1;
nodes = (
"474 782 OFFCURVE",
"542 825 OFFCURVE",
"557 916 CURVE",
"471 916 LINE",
"463 843 OFFCURVE",
"417 834 OFFCURVE",
"376 834 CURVE SMOOTH",
"335 834 OFFCURVE",
"288 843 OFFCURVE",
"281 916 CURVE",
"195 916 LINE",
"210 825 OFFCURVE",
"278 782 OFFCURVE",
"376 782 CURVE SMOOTH"
);
}
);
width = 660;
}
);
note = Ebreve;
unicode = 0114;
},
{
glyphname = Ecaron;
lastChange = "2015-11-29 15:09:35 +0000";
layers = (
{
layerId = "956CC02E-6E79-4121-A7B2-01E3BBD48F66";
name = Bold;
paths = (
{
closed = 1;
nodes = (
"602 0 LINE",
"621 175 LINE",
"587 175 LINE",
"570 154 OFFCURVE",
"539 85 OFFCURVE",
"536 49 CURVE",
"273 49 LINE",
"273 650 LINE",
"530 650 LINE",
"532 619 OFFCURVE",
"555 546 OFFCURVE",
"569 523 CURVE",
"603 523 LINE",
"603 700 LINE",
"30 700 LINE",
"30 682 LINE",
"59 672 OFFCURVE",
"91 664 OFFCURVE",
"116 660 CURVE",
"116 40 LINE",
"91 36 OFFCURVE",
"58 28 OFFCURVE",
"30 18 CURVE",
"30 0 LINE"
);
},
{
closed = 1;
nodes = (
"492 239 LINE",
"492 461 LINE",
"467 461 LINE",
"456 433 OFFCURVE",
"449 393 OFFCURVE",
"446 375 CURVE",
"191 375 LINE",
"191 325 LINE",
"446 325 LINE",
"448 308 OFFCURVE",
"456 269 OFFCURVE",
"467 239 CURVE"
);
},
{
closed = 1;
nodes = (
"345 786 OFFCURVE",
"399 786 OFFCURVE",
"408 786 CURVE",
"432 822 OFFCURVE",
"519 900 OFFCURVE",
"563 929 CURVE",
"501 974 LINE",
"459 942 OFFCURVE",
"398 882 OFFCURVE",
"374 846 CURVE",
"373 846 OFFCURVE",
"371 846 OFFCURVE",
"370 846 CURVE",
"347 882 OFFCURVE",
"285 942 OFFCURVE",
"244 974 CURVE",
"181 929 LINE",
"226 900 OFFCURVE",
"312 822 OFFCURVE",
"336 786 CURVE"
);
}
);
width = 660;
}
);
note = Ecaron;
unicode = 011A;
},
{
glyphname = Ecircumflex;
lastChange = "2015-11-29 15:09:36 +0000";
layers = (
{
layerId = "956CC02E-6E79-4121-A7B2-01E3BBD48F66";
name = Bold;
paths = (
{
closed = 1;
nodes = (
"602 0 LINE",
"621 175 LINE",
"587 175 LINE",
"570 154 OFFCURVE",
"539 85 OFFCURVE",
"536 49 CURVE",
"273 49 LINE",
"273 650 LINE",
"530 650 LINE",
"532 619 OFFCURVE",
"555 546 OFFCURVE",
"569 523 CURVE",
"603 523 LINE",
"603 700 LINE",
"30 700 LINE",
"30 682 LINE",
"59 672 OFFCURVE",
"91 664 OFFCURVE",
"116 660 CURVE",
"116 40 LINE",
"91 36 OFFCURVE",
"58 28 OFFCURVE",
"30 18 CURVE",
"30 0 LINE"
);
},
{
closed = 1;
nodes = (
"492 239 LINE",
"492 461 LINE",
"467 461 LINE",
"456 433 OFFCURVE",
"449 393 OFFCURVE",
"446 375 CURVE",
"191 375 LINE",
"191 325 LINE",
"446 325 LINE",
"448 308 OFFCURVE",
"456 269 OFFCURVE",
"467 239 CURVE"
);
},
{
closed = 1;
nodes = (
"281 816 OFFCURVE",
"343 876 OFFCURVE",
"366 912 CURVE",
"367 912 OFFCURVE",
"369 912 OFFCURVE",
"370 912 CURVE",
"394 876 OFFCURVE",
"455 816 OFFCURVE",
"497 783 CURVE",
"559 829 LINE",
"515 857 OFFCURVE",
"428 936 OFFCURVE",
"404 972 CURVE",
"395 972 OFFCURVE",
"341 972 OFFCURVE",
"332 972 CURVE",
"308 936 OFFCURVE",
"222 857 OFFCURVE",
"177 829 CURVE",
"240 783 LINE"
);
}
);
width = 660;
}
);
note = Ecircumflex;
unicode = 00CA;
},
{
glyphname = Ecircumflexacute;
lastChange = "2015-11-29 15:09:35 +0000";
layers = (
{
layerId = "956CC02E-6E79-4121-A7B2-01E3BBD48F66";
name = Bold;
paths = (
{
closed = 1;
nodes = (
"602 0 LINE",
"621 175 LINE",
"587 175 LINE",
"570 154 OFFCURVE",
"539 85 OFFCURVE",
"536 49 CURVE",
"273 49 LINE",
"273 650 LINE",
"530 650 LINE",
"532 619 OFFCURVE",
"555 546 OFFCURVE",
"569 523 CURVE",
"603 523 LINE",
"603 700 LINE",
"30 700 LINE",
"30 682 LINE",
"59 672 OFFCURVE",
"91 664 OFFCURVE",
"116 660 CURVE",
"116 40 LINE",
"91 36 OFFCURVE",
"58 28 OFFCURVE",
"30 18 CURVE",
"30 0 LINE"
);
},
{
closed = 1;
nodes = (
"492 239 LINE",
"492 461 LINE",
"467 461 LINE",
"456 433 OFFCURVE",
"449 393 OFFCURVE",
"446 375 CURVE",
"191 375 LINE",
"191 325 LINE",
"446 325 LINE",
"448 308 OFFCURVE",
"456 269 OFFCURVE",
"467 239 CURVE"
);
},
{
closed = 1;
nodes = (
"261 816 OFFCURVE",
"322 876 OFFCURVE",
"346 912 CURVE",
"350 912 LINE",
"374 876 OFFCURVE",
"435 816 OFFCURVE",
"476 783 CURVE",
"539 829 LINE",
"495 857 OFFCURVE",
"408 936 OFFCURVE",
"384 972 CURVE",
"312 972 LINE",
"288 936 OFFCURVE",
"201 857 OFFCURVE",
"157 829 CURVE",
"220 783 LINE"
);
},
{
closed = 1;
nodes = (
"598 976 LINE SMOOTH",
"638 996 OFFCURVE",
"660 1021 OFFCURVE",
"660 1045 CURVE SMOOTH",
"660 1064 OFFCURVE",
"645 1085 OFFCURVE",
"615 1085 CURVE SMOOTH",
"589 1085 OFFCURVE",
"564 1066 OFFCURVE",
"542 1041 CURVE SMOOTH",
"467 953 LINE",
"491 922 LINE"
);
}
);
width = 660;
}
);
note = Ecircumflexacute;
unicode = 1EBE;
},
{
glyphname = Ecircumflexdotbelow;
lastChange = "2015-11-29 15:09:34 +0000";
layers = (
{
layerId = "956CC02E-6E79-4121-A7B2-01E3BBD48F66";
name = Bold;
paths = (
{
closed = 1;
nodes = (
"602 0 LINE",
"621 175 LINE",
"587 175 LINE",
"570 154 OFFCURVE",
"539 85 OFFCURVE",
"536 49 CURVE",
"273 49 LINE",
"273 650 LINE",
"530 650 LINE",
"532 619 OFFCURVE",
"555 546 OFFCURVE",
"569 523 CURVE",
"603 523 LINE",
"603 700 LINE",
"30 700 LINE",
"30 682 LINE",
"59 672 OFFCURVE",
"91 664 OFFCURVE",
"116 660 CURVE",
"116 40 LINE",
"91 36 OFFCURVE",
"58 28 OFFCURVE",
"30 18 CURVE",
"30 0 LINE"
);
},
{
closed = 1;
nodes = (
"388 -178 OFFCURVE",
"412 -151 OFFCURVE",
"412 -116 CURVE SMOOTH",
"412 -81 OFFCURVE",
"388 -54 OFFCURVE",
"350 -54 CURVE SMOOTH",
"313 -54 OFFCURVE",
"289 -81 OFFCURVE",
"289 -116 CURVE SMOOTH",
"289 -151 OFFCURVE",
"313 -178 OFFCURVE",
"350 -178 CURVE SMOOTH"
);
},
{
closed = 1;
nodes = (
"492 239 LINE",
"492 461 LINE",
"467 461 LINE",
"456 433 OFFCURVE",
"449 393 OFFCURVE",
"446 375 CURVE",
"191 375 LINE",
"191 325 LINE",
"446 325 LINE",
"448 308 OFFCURVE",
"456 269 OFFCURVE",
"467 239 CURVE"
);
},
{
closed = 1;
nodes = (
"261 816 OFFCURVE",
"323 876 OFFCURVE",
"346 912 CURVE",
"347 912 OFFCURVE",
"349 912 OFFCURVE",
"350 912 CURVE",
"374 876 OFFCURVE",
"435 816 OFFCURVE",
"477 783 CURVE",
"539 829 LINE",
"495 857 OFFCURVE",
"408 936 OFFCURVE",
"384 972 CURVE",
"375 972 OFFCURVE",
"321 972 OFFCURVE",
"312 972 CURVE",
"288 936 OFFCURVE",
"202 857 OFFCURVE",
"157 829 CURVE",
"220 783 LINE"
);
}
);
width = 660;
}
);
note = Ecircumflexdotbelow;
unicode = 1EC6;
},
{
glyphname = Ecircumflexgrave;
lastChange = "2015-11-29 15:09:35 +0000";
layers = (
{
layerId = "956CC02E-6E79-4121-A7B2-01E3BBD48F66";
name = Bold;
paths = (
{
closed = 1;
nodes = (
"602 0 LINE",
"621 175 LINE",
"587 175 LINE",
"570 154 OFFCURVE",
"539 85 OFFCURVE",
"536 49 CURVE",
"273 49 LINE",
"273 650 LINE",
"530 650 LINE",
"532 619 OFFCURVE",
"555 546 OFFCURVE",
"569 523 CURVE",
"603 523 LINE",
"603 700 LINE",
"30 700 LINE",
"30 682 LINE",
"59 672 OFFCURVE",
"91 664 OFFCURVE",
"116 660 CURVE",
"116 40 LINE",
"91 36 OFFCURVE",
"58 28 OFFCURVE",
"30 18 CURVE",
"30 0 LINE"
);
},
{
closed = 1;
nodes = (
"492 239 LINE",
"492 461 LINE",
"467 461 LINE",
"456 433 OFFCURVE",
"449 393 OFFCURVE",
"446 375 CURVE",
"191 375 LINE",
"191 325 LINE",
"446 325 LINE",
"448 308 OFFCURVE",
"456 269 OFFCURVE",
"467 239 CURVE"
);
},
{
closed = 1;
nodes = (
"229 953 LINE",
"154 1041 LINE SMOOTH",
"132 1066 OFFCURVE",
"107 1085 OFFCURVE",
"81 1085 CURVE SMOOTH",
"51 1085 OFFCURVE",
"36 1064 OFFCURVE",
"36 1045 CURVE SMOOTH",
"36 1021 OFFCURVE",
"58 996 OFFCURVE",
"98 976 CURVE SMOOTH",
"205 922 LINE"
);
},
{
closed = 1;
nodes = (
"261 816 OFFCURVE",
"322 876 OFFCURVE",
"346 912 CURVE",
"350 912 LINE",
"374 876 OFFCURVE",
"435 816 OFFCURVE",
"476 783 CURVE",
"539 829 LINE",
"495 857 OFFCURVE",
"408 936 OFFCURVE",
"384 972 CURVE",
"312 972 LINE",
"288 936 OFFCURVE",
"201 857 OFFCURVE",
"157 829 CURVE",
"220 783 LINE"
);
}
);
width = 660;
}
);
note = Ecircumflexgrave;
unicode = 1EC0;
},
{
glyphname = Ecircumflexhookabove;
lastChange = "2015-11-29 15:09:35 +0000";
layers = (
{
layerId = "956CC02E-6E79-4121-A7B2-01E3BBD48F66";
name = Bold;
paths = (
{
closed = 1;
nodes = (
"602 0 LINE",
"621 175 LINE",
"587 175 LINE",
"570 154 OFFCURVE",
"539 85 OFFCURVE",
"536 49 CURVE",
"273 49 LINE",
"273 650 LINE",
"530 650 LINE",
"532 619 OFFCURVE",
"555 546 OFFCURVE",
"569 523 CURVE",
"603 523 LINE",
"603 700 LINE",
"30 700 LINE",
"30 682 LINE",
"59 672 OFFCURVE",
"91 664 OFFCURVE",
"116 660 CURVE",
"116 40 LINE",
"91 36 OFFCURVE",
"58 28 OFFCURVE",
"30 18 CURVE",
"30 0 LINE"
);
},
{
closed = 1;
nodes = (
"492 239 LINE",
"492 461 LINE",
"467 461 LINE",
"456 433 OFFCURVE",
"449 393 OFFCURVE",
"446 375 CURVE",
"191 375 LINE",
"191 325 LINE",
"446 325 LINE",
"448 308 OFFCURVE",
"456 269 OFFCURVE",
"467 239 CURVE"
);
},
{
closed = 1;
nodes = (
"261 816 OFFCURVE",
"322 876 OFFCURVE",
"346 912 CURVE",
"350 912 LINE",
"374 876 OFFCURVE",
"435 816 OFFCURVE",
"476 783 CURVE",
"539 829 LINE",
"495 857 OFFCURVE",
"408 936 OFFCURVE",
"384 972 CURVE",
"312 972 LINE",
"288 936 OFFCURVE",
"201 857 OFFCURVE",
"157 829 CURVE",
"220 783 LINE"
);
},
{
closed = 1;
nodes = (
"523 933 LINE",
"532 981 LINE",
"579 985 OFFCURVE",
"615 1003 OFFCURVE",
"615 1056 CURVE SMOOTH",
"615 1114 OFFCURVE",
"562 1136 OFFCURVE",
"509 1136 CURVE SMOOTH",
"480 1136 OFFCURVE",
"452 1129 OFFCURVE",
"434 1121 CURVE",
"440 1085 LINE",
"457 1093 OFFCURVE",
"478 1097 OFFCURVE",
"494 1097 CURVE SMOOTH",
"530 1097 OFFCURVE",
"548 1079 OFFCURVE",
"548 1057 CURVE SMOOTH",
"548 1024 OFFCURVE",
"522 1012 OFFCURVE",
"497 1012 CURVE SMOOTH",
"464 1012 LINE",
"468 933 LINE"
);
}
);
width = 660;
}
);
note = Ecircumflexhookabove;
unicode = 1EC2;
},
{
glyphname = Ecircumflextilde;
lastChange = "2015-11-29 15:09:34 +0000";
layers = (
{
layerId = "956CC02E-6E79-4121-A7B2-01E3BBD48F66";
name = Bold;
paths = (
{
closed = 1;
nodes = (
"602 0 LINE",
"621 175 LINE",
"587 175 LINE",
"570 154 OFFCURVE",
"539 85 OFFCURVE",
"536 49 CURVE",
"273 49 LINE",
"273 650 LINE",
"530 650 LINE",
"532 619 OFFCURVE",
"555 546 OFFCURVE",
"569 523 CURVE",
"603 523 LINE",
"603 700 LINE",
"30 700 LINE",
"30 682 LINE",
"59 672 OFFCURVE",
"91 664 OFFCURVE",
"116 660 CURVE",
"116 40 LINE",
"91 36 OFFCURVE",
"58 28 OFFCURVE",
"30 18 CURVE",
"30 0 LINE"
);
},
{
closed = 1;
nodes = (
"492 239 LINE",
"492 461 LINE",
"467 461 LINE",
"456 433 OFFCURVE",
"449 393 OFFCURVE",
"446 375 CURVE",
"191 375 LINE",
"191 325 LINE",
"446 325 LINE",
"448 308 OFFCURVE",
"456 269 OFFCURVE",
"467 239 CURVE"
);
},
{
closed = 1;
nodes = (
"261 816 OFFCURVE",
"322 876 OFFCURVE",
"346 912 CURVE",
"350 912 LINE",
"374 876 OFFCURVE",
"435 816 OFFCURVE",
"476 783 CURVE",
"539 829 LINE",
"495 857 OFFCURVE",
"408 936 OFFCURVE",
"384 972 CURVE",
"312 972 LINE",
"288 936 OFFCURVE",
"201 857 OFFCURVE",
"157 829 CURVE",
"220 783 LINE"
);
},
{
closed = 1;
nodes = (
"218 1004 LINE",
"224 1036 OFFCURVE",
"249 1056 OFFCURVE",
"281 1056 CURVE SMOOTH",
"326 1056 OFFCURVE",
"366 1005 OFFCURVE",
"424 1005 CURVE SMOOTH",
"499 1005 OFFCURVE",
"536 1051 OFFCURVE",
"544 1121 CURVE",
"493 1121 LINE",
"482 1076 OFFCURVE",
"447 1067 OFFCURVE",
"423 1067 CURVE SMOOTH",
"383 1067 OFFCURVE",
"355 1118 OFFCURVE",
"285 1118 CURVE SMOOTH",
"218 1118 OFFCURVE",
"176 1080 OFFCURVE",
"166 1004 CURVE"
);
}
);
width = 660;
}
);
note = Ecircumflextilde;
unicode = 1EC4;
},
{
glyphname = Edieresis;
lastChange = "2015-11-29 15:09:35 +0000";
layers = (
{
layerId = "956CC02E-6E79-4121-A7B2-01E3BBD48F66";
name = Bold;
paths = (
{
closed = 1;
nodes = (
"602 0 LINE",
"621 175 LINE",
"587 175 LINE",
"570 154 OFFCURVE",
"539 85 OFFCURVE",
"536 49 CURVE",
"273 49 LINE",
"273 650 LINE",
"530 650 LINE",
"532 619 OFFCURVE",
"555 546 OFFCURVE",
"569 523 CURVE",
"603 523 LINE",
"603 700 LINE",
"30 700 LINE",
"30 682 LINE",
"59 672 OFFCURVE",
"91 664 OFFCURVE",
"116 660 CURVE",
"116 40 LINE",
"91 36 OFFCURVE",
"58 28 OFFCURVE",
"30 18 CURVE",
"30 0 LINE"
);
},
{
closed = 1;
nodes = (
"492 239 LINE",
"492 461 LINE",
"467 461 LINE",
"456 433 OFFCURVE",
"449 393 OFFCURVE",
"446 375 CURVE",
"191 375 LINE",
"191 325 LINE",
"446 325 LINE",
"448 308 OFFCURVE",
"456 269 OFFCURVE",
"467 239 CURVE"
);
},
{
closed = 1;
nodes = (
"296 785 OFFCURVE",
"320 812 OFFCURVE",
"320 847 CURVE SMOOTH",
"320 882 OFFCURVE",
"296 909 OFFCURVE",
"258 909 CURVE SMOOTH",
"221 909 OFFCURVE",
"197 882 OFFCURVE",
"197 847 CURVE SMOOTH",
"197 812 OFFCURVE",
"221 785 OFFCURVE",
"258 785 CURVE SMOOTH"
);
},
{
closed = 1;
nodes = (
"536 785 OFFCURVE",
"560 812 OFFCURVE",
"560 847 CURVE SMOOTH",
"560 882 OFFCURVE",
"536 909 OFFCURVE",
"498 909 CURVE SMOOTH",
"460 909 OFFCURVE",
"437 882 OFFCURVE",
"437 847 CURVE SMOOTH",
"437 812 OFFCURVE",
"460 785 OFFCURVE",
"498 785 CURVE SMOOTH"
);
}
);
width = 660;
}
);
note = Edieresis;
unicode = 00CB;
},
{
glyphname = Edotaccent;
lastChange = "2015-11-29 15:09:36 +0000";
layers = (
{
layerId = "956CC02E-6E79-4121-A7B2-01E3BBD48F66";
name = Bold;
paths = (
{
closed = 1;
nodes = (
"602 0 LINE",
"621 175 LINE",
"587 175 LINE",
"570 154 OFFCURVE",
"539 85 OFFCURVE",
"536 49 CURVE",
"273 49 LINE",
"273 650 LINE",
"530 650 LINE",
"532 619 OFFCURVE",
"555 546 OFFCURVE",
"569 523 CURVE",
"603 523 LINE",
"603 700 LINE",
"30 700 LINE",
"30 682 LINE",
"59 672 OFFCURVE",
"91 664 OFFCURVE",
"116 660 CURVE",
"116 40 LINE",
"91 36 OFFCURVE",
"58 28 OFFCURVE",
"30 18 CURVE",
"30 0 LINE"
);
},
{
closed = 1;
nodes = (
"492 239 LINE",
"492 461 LINE",
"467 461 LINE",
"456 433 OFFCURVE",
"449 393 OFFCURVE",
"446 375 CURVE",
"191 375 LINE",
"191 325 LINE",
"446 325 LINE",
"448 308 OFFCURVE",
"456 269 OFFCURVE",
"467 239 CURVE"
);
},
{
closed = 1;
nodes = (
"417 785 OFFCURVE",
"441 812 OFFCURVE",
"441 847 CURVE SMOOTH",
"441 882 OFFCURVE",
"417 909 OFFCURVE",
"380 909 CURVE SMOOTH",
"342 909 OFFCURVE",
"319 882 OFFCURVE",
"319 847 CURVE SMOOTH",
"319 812 OFFCURVE",
"342 785 OFFCURVE",
"380 785 CURVE SMOOTH"
);
}
);
width = 660;
}
);
note = Edotaccent;
unicode = 0116;
},
{
glyphname = Edotbelow;
lastChange = "2015-11-29 15:09:36 +0000";
layers = (
{
layerId = "956CC02E-6E79-4121-A7B2-01E3BBD48F66";
name = Bold;
paths = (
{
closed = 1;
nodes = (
"602 0 LINE",
"621 175 LINE",
"587 175 LINE",
"570 154 OFFCURVE",
"539 85 OFFCURVE",
"536 49 CURVE",
"273 49 LINE",
"273 650 LINE",
"530 650 LINE",
"532 619 OFFCURVE",
"555 546 OFFCURVE",
"569 523 CURVE",
"603 523 LINE",
"603 700 LINE",
"30 700 LINE",
"30 682 LINE",
"59 672 OFFCURVE",
"91 664 OFFCURVE",
"116 660 CURVE",
"116 40 LINE",
"91 36 OFFCURVE",
"58 28 OFFCURVE",
"30 18 CURVE",
"30 0 LINE"
);
},
{
closed = 1;
nodes = (
"370 -178 OFFCURVE",
"394 -151 OFFCURVE",
"394 -116 CURVE SMOOTH",
"394 -81 OFFCURVE",
"370 -54 OFFCURVE",
"332 -54 CURVE SMOOTH",
"295 -54 OFFCURVE",
"271 -81 OFFCURVE",
"271 -116 CURVE SMOOTH",
"271 -151 OFFCURVE",
"295 -178 OFFCURVE",
"332 -178 CURVE SMOOTH"
);
},
{
closed = 1;
nodes = (
"492 239 LINE",
"492 461 LINE",
"467 461 LINE",
"456 433 OFFCURVE",
"449 393 OFFCURVE",
"446 375 CURVE",
"191 375 LINE",
"191 325 LINE",
"446 325 LINE",
"448 308 OFFCURVE",
"456 269 OFFCURVE",
"467 239 CURVE"
);
}
);
width = 660;
}
);
note = Edotbelow;
unicode = 1EB8;
},
{
glyphname = Egrave;
lastChange = "2015-11-29 15:09:36 +0000";
layers = (
{
layerId = "956CC02E-6E79-4121-A7B2-01E3BBD48F66";
name = Bold;
paths = (
{
closed = 1;
nodes = (
"602 0 LINE",
"621 175 LINE",
"587 175 LINE",
"570 154 OFFCURVE",
"539 85 OFFCURVE",
"536 49 CURVE",
"273 49 LINE",
"273 650 LINE",
"530 650 LINE",
"532 619 OFFCURVE",
"555 546 OFFCURVE",
"569 523 CURVE",
"603 523 LINE",
"603 700 LINE",
"30 700 LINE",
"30 682 LINE",
"59 672 OFFCURVE",
"91 664 OFFCURVE",
"116 660 CURVE",
"116 40 LINE",
"91 36 OFFCURVE",
"58 28 OFFCURVE",
"30 18 CURVE",
"30 0 LINE"
);
},
{
closed = 1;
nodes = (
"492 239 LINE",
"492 461 LINE",
"467 461 LINE",
"456 433 OFFCURVE",
"449 393 OFFCURVE",
"446 375 CURVE",
"191 375 LINE",
"191 325 LINE",
"446 325 LINE",
"448 308 OFFCURVE",
"456 269 OFFCURVE",
"467 239 CURVE"
);
},
{
closed = 1;
nodes = (
"485 821 LINE",
"362 948 LINE",
"356 955 OFFCURVE",
"332 982 OFFCURVE",
"299 982 CURVE SMOOTH",
"264 982 OFFCURVE",
"250 959 OFFCURVE",
"250 940 CURVE SMOOTH",
"250 916 OFFCURVE",
"268 898 OFFCURVE",
"300 879 CURVE SMOOTH",
"460 786 LINE"
);
}
);
width = 660;
}
);
note = Egrave;
unicode = 00C8;
},
{
glyphname = Ehookabove;
lastChange = "2015-11-29 15:09:35 +0000";
layers = (
{
layerId = "956CC02E-6E79-4121-A7B2-01E3BBD48F66";
name = Bold;
paths = (
{
closed = 1;
nodes = (
"602 0 LINE",
"621 175 LINE",
"587 175 LINE",
"570 154 OFFCURVE",
"539 85 OFFCURVE",
"536 49 CURVE",
"273 49 LINE",
"273 650 LINE",
"530 650 LINE",
"532 619 OFFCURVE",
"555 546 OFFCURVE",
"569 523 CURVE",
"603 523 LINE",
"603 700 LINE",
"30 700 LINE",
"30 682 LINE",
"59 672 OFFCURVE",
"91 664 OFFCURVE",
"116 660 CURVE",
"116 40 LINE",
"91 36 OFFCURVE",
"58 28 OFFCURVE",
"30 18 CURVE",
"30 0 LINE"
);
},
{
closed = 1;
nodes = (
"492 239 LINE",
"492 461 LINE",
"467 461 LINE",
"456 433 OFFCURVE",
"449 393 OFFCURVE",
"446 375 CURVE",
"191 375 LINE",
"191 325 LINE",
"446 325 LINE",
"448 308 OFFCURVE",
"456 269 OFFCURVE",
"467 239 CURVE"
);
},
{
closed = 1;
nodes = (
"393 783 LINE",
"403 852 LINE",
"457 857 OFFCURVE",
"499 878 OFFCURVE",
"499 938 CURVE SMOOTH",
"499 1004 OFFCURVE",
"437 1029 OFFCURVE",
"377 1029 CURVE SMOOTH",
"344 1029 OFFCURVE",
"312 1021 OFFCURVE",
"291 1011 CURVE",
"298 972 LINE",
"319 984 OFFCURVE",
"342 988 OFFCURVE",
"360 988 CURVE SMOOTH",
"401 988 OFFCURVE",
"422 965 OFFCURVE",
"422 939 CURVE SMOOTH",
"422 901 OFFCURVE",
"392 887 OFFCURVE",
"364 887 CURVE SMOOTH",
"326 887 LINE",
"331 783 LINE"
);
}
);
width = 660;
}
);
note = Ehookabove;
unicode = 1EBA;
},
{
glyphname = Emacron;
lastChange = "2015-11-29 15:09:36 +0000";
layers = (
{
layerId = "956CC02E-6E79-4121-A7B2-01E3BBD48F66";
name = Bold;
paths = (
{
closed = 1;
nodes = (
"602 0 LINE",
"621 175 LINE",
"587 175 LINE",
"570 154 OFFCURVE",
"539 85 OFFCURVE",
"536 49 CURVE",
"273 49 LINE",
"273 650 LINE",
"530 650 LINE",
"532 619 OFFCURVE",
"555 546 OFFCURVE",
"569 523 CURVE",
"603 523 LINE",
"603 700 LINE",
"30 700 LINE",
"30 682 LINE",
"59 672 OFFCURVE",
"91 664 OFFCURVE",
"116 660 CURVE",
"116 40 LINE",
"91 36 OFFCURVE",
"58 28 OFFCURVE",
"30 18 CURVE",
"30 0 LINE"
);
},
{
closed = 1;
nodes = (
"492 239 LINE",
"492 461 LINE",
"467 461 LINE",
"456 433 OFFCURVE",
"449 393 OFFCURVE",
"446 375 CURVE",
"191 375 LINE",
"191 325 LINE",
"446 325 LINE",
"448 308 OFFCURVE",
"456 269 OFFCURVE",
"467 239 CURVE"
);
},
{
closed = 1;
nodes = (
"563 785 LINE",
"563 833 LINE",
"173 833 LINE",
"173 785 LINE"
);
}
);
width = 660;
}
);
note = Emacron;
unicode = 0112;
},
{
glyphname = Eogonek;
lastChange = "2015-11-29 15:09:36 +0000";
layers = (
{
layerId = "956CC02E-6E79-4121-A7B2-01E3BBD48F66";
name = Bold;
paths = (
{
closed = 1;
nodes = (
"602 0 LINE",
"621 175 LINE",
"587 175 LINE",
"570 154 OFFCURVE",
"539 85 OFFCURVE",
"536 49 CURVE",
"273 49 LINE",
"273 650 LINE",
"530 650 LINE",
"532 619 OFFCURVE",
"555 546 OFFCURVE",
"569 523 CURVE",
"603 523 LINE",
"603 700 LINE",
"30 700 LINE",
"30 682 LINE",
"59 672 OFFCURVE",
"91 664 OFFCURVE",
"116 660 CURVE",
"116 40 LINE",
"91 36 OFFCURVE",
"58 28 OFFCURVE",
"30 18 CURVE",
"30 0 LINE"
);
},
{
closed = 1;
nodes = (
"578 -206 OFFCURVE",
"620 -196 OFFCURVE",
"646 -180 CURVE",
"646 -117 LINE",
"621 -132 OFFCURVE",
"598 -138 OFFCURVE",
"579 -138 CURVE SMOOTH",
"542 -138 OFFCURVE",
"517 -117 OFFCURVE",
"517 -86 CURVE SMOOTH",
"517 -54 OFFCURVE",
"544 -18 OFFCURVE",
"569 0 CURVE",
"496 0 LINE",
"436 -18 OFFCURVE",
"402 -71 OFFCURVE",
"402 -116 CURVE SMOOTH",
"402 -170 OFFCURVE",
"450 -206 OFFCURVE",
"534 -206 CURVE SMOOTH"
);
},
{
closed = 1;
nodes = (
"492 239 LINE",
"492 461 LINE",
"467 461 LINE",
"456 433 OFFCURVE",
"449 393 OFFCURVE",
"446 375 CURVE",
"191 375 LINE",
"191 325 LINE",
"446 325 LINE",
"448 308 OFFCURVE",
"456 269 OFFCURVE",
"467 239 CURVE"
);
}
);
width = 660;
}
);
note = Eogonek;
unicode = 0118;
},
{
glyphname = Etilde;
lastChange = "2015-11-29 15:09:36 +0000";
layers = (
{
layerId = "956CC02E-6E79-4121-A7B2-01E3BBD48F66";
name = Bold;
paths = (
{
closed = 1;
nodes = (
"602 0 LINE",
"621 175 LINE",
"587 175 LINE",
"570 154 OFFCURVE",
"539 85 OFFCURVE",
"536 49 CURVE",
"273 49 LINE",
"273 650 LINE",
"530 650 LINE",
"532 619 OFFCURVE",
"555 546 OFFCURVE",
"569 523 CURVE",
"603 523 LINE",
"603 700 LINE",
"30 700 LINE",
"30 682 LINE",
"59 672 OFFCURVE",
"91 664 OFFCURVE",
"116 660 CURVE",
"116 40 LINE",
"91 36 OFFCURVE",
"58 28 OFFCURVE",
"30 18 CURVE",
"30 0 LINE"
);
},
{
closed = 1;
nodes = (
"492 239 LINE",
"492 461 LINE",
"467 461 LINE",
"456 433 OFFCURVE",
"449 393 OFFCURVE",
"446 375 CURVE",
"191 375 LINE",
"191 325 LINE",
"446 325 LINE",
"448 308 OFFCURVE",
"456 269 OFFCURVE",
"467 239 CURVE"
);
},
{
closed = 1;
nodes = (
"219 785 LINE",
"225 817 OFFCURVE",
"246 838 OFFCURVE",
"276 838 CURVE SMOOTH",
"312 838 OFFCURVE",
"375 785 OFFCURVE",
"434 785 CURVE SMOOTH",
"511 785 OFFCURVE",
"548 833 OFFCURVE",
"555 904 CURVE",
"490 904 LINE",
"479 858 OFFCURVE",
"454 850 OFFCURVE",
"429 850 CURVE SMOOTH",
"388 850 OFFCURVE",
"346 902 OFFCURVE",
"274 902 CURVE SMOOTH",
"206 902 OFFCURVE",
"163 862 OFFCURVE",
"152 785 CURVE"
);
}
);
width = 660;
}
);
note = Etilde;
unicode = 1EBC;
},
{
glyphname = F;
lastChange = "2015-11-29 15:09:36 +0000";
layers = (
{
layerId = "956CC02E-6E79-4121-A7B2-01E3BBD48F66";
name = Bold;
paths = (
{
closed = 1;
nodes = (
"360 0 LINE",
"360 17 LINE",
"331 28 OFFCURVE",
"298 35 OFFCURVE",
"273 39 CURVE",
"273 650 LINE",
"515 650 LINE",
"517 619 OFFCURVE",
"540 546 OFFCURVE",
"554 523 CURVE",
"588 523 LINE",
"588 700 LINE",
"30 700 LINE",
"30 682 LINE",
"59 672 OFFCURVE",
"92 664 OFFCURVE",
"116 660 CURVE",
"116 39 LINE",
"88 35 OFFCURVE",
"58 27 OFFCURVE",
"30 18 CURVE",
"30 0 LINE"
);
},
{
closed = 1;
nodes = (
"492 218 LINE",
"492 440 LINE",
"467 440 LINE",
"456 412 OFFCURVE",
"449 372 OFFCURVE",
"446 354 CURVE",
"140 354 LINE",
"140 304 LINE",
"446 304 LINE",
"448 287 OFFCURVE",
"456 248 OFFCURVE",
"467 218 CURVE"
);
}
);
width = 613;
}
);
note = F;
unicode = 0046;
},
{
glyphname = G;
lastChange = "2015-11-29 15:09:30 +0000";
layers = (
{
layerId = "956CC02E-6E79-4121-A7B2-01E3BBD48F66";
name = Bold;
paths = (
{
closed = 1;
nodes = (
"483 -10 OFFCURVE",
"591 10 OFFCURVE",
"643 48 CURVE",
"643 300 LINE",
"662 304 OFFCURVE",
"696 317 OFFCURVE",
"712 327 CURVE",
"712 341 LINE",
"412 341 LINE",
"412 322 LINE",
"437 314 OFFCURVE",
"465 308 OFFCURVE",
"491 302 CURVE",
"491 55 LINE",
"467 46 OFFCURVE",
"430 42 OFFCURVE",
"410 42 CURVE SMOOTH",
"270 42 OFFCURVE",
"195 160 OFFCURVE",
"195 350 CURVE SMOOTH",
"195 539 OFFCURVE",
"287 658 OFFCURVE",
"431 658 CURVE SMOOTH",
"478 658 OFFCURVE",
"543 646 OFFCURVE",
"579 618 CURVE",
"583 573 OFFCURVE",
"592 523 OFFCURVE",
"604 485 CURVE",
"641 485 LINE",
"655 631 LINE",
"603 680 OFFCURVE",
"508 710 OFFCURVE",
"392 710 CURVE SMOOTH",
"166 710 OFFCURVE",
"35 572 OFFCURVE",
"35 350 CURVE SMOOTH",
"35 127 OFFCURVE",
"156 -10 OFFCURVE",
"389 -10 CURVE SMOOTH"
);
}
);
width = 722;
}
);
leftKerningGroup = G;
note = G;
unicode = 0047;
},
{
glyphname = Gbreve;
lastChange = "2015-11-29 15:09:35 +0000";
layers = (
{
layerId = "956CC02E-6E79-4121-A7B2-01E3BBD48F66";
name = Bold;
paths = (
{
closed = 1;
nodes = (
"483 -10 OFFCURVE",
"591 10 OFFCURVE",
"643 48 CURVE",
"643 300 LINE",
"662 304 OFFCURVE",
"696 317 OFFCURVE",
"712 327 CURVE",
"712 341 LINE",
"412 341 LINE",
"412 322 LINE",
"437 314 OFFCURVE",
"465 308 OFFCURVE",
"491 302 CURVE",
"491 55 LINE",
"467 46 OFFCURVE",
"430 42 OFFCURVE",
"410 42 CURVE SMOOTH",
"270 42 OFFCURVE",
"195 160 OFFCURVE",
"195 350 CURVE SMOOTH",
"195 539 OFFCURVE",
"287 658 OFFCURVE",
"431 658 CURVE SMOOTH",
"478 658 OFFCURVE",
"543 646 OFFCURVE",
"579 618 CURVE",
"583 573 OFFCURVE",
"592 523 OFFCURVE",
"604 485 CURVE",
"641 485 LINE",
"655 631 LINE",
"603 680 OFFCURVE",
"508 710 OFFCURVE",
"392 710 CURVE SMOOTH",
"166 710 OFFCURVE",
"35 572 OFFCURVE",
"35 350 CURVE SMOOTH",
"35 127 OFFCURVE",
"156 -10 OFFCURVE",
"389 -10 CURVE SMOOTH"
);
},
{
closed = 1;
nodes = (
"493 782 OFFCURVE",
"561 825 OFFCURVE",
"576 916 CURVE",
"490 916 LINE",
"482 843 OFFCURVE",
"436 834 OFFCURVE",
"395 834 CURVE SMOOTH",
"354 834 OFFCURVE",
"307 843 OFFCURVE",
"300 916 CURVE",
"214 916 LINE",
"229 825 OFFCURVE",
"297 782 OFFCURVE",
"395 782 CURVE SMOOTH"
);
}
);
width = 722;
}
);
leftKerningGroup = G;
note = Gbreve;
unicode = 011E;
},
{
glyphname = Gcaron;
lastChange = "2015-11-29 15:09:34 +0000";
layers = (
{
layerId = "956CC02E-6E79-4121-A7B2-01E3BBD48F66";
name = Bold;
paths = (
{
closed = 1;
nodes = (
"483 -10 OFFCURVE",
"591 10 OFFCURVE",
"643 48 CURVE",
"643 300 LINE",
"662 304 OFFCURVE",
"696 317 OFFCURVE",
"712 327 CURVE",
"712 341 LINE",
"412 341 LINE",
"412 322 LINE",
"437 314 OFFCURVE",
"465 308 OFFCURVE",
"491 302 CURVE",
"491 55 LINE",
"467 46 OFFCURVE",
"430 42 OFFCURVE",
"410 42 CURVE SMOOTH",
"270 42 OFFCURVE",
"195 160 OFFCURVE",
"195 350 CURVE SMOOTH",
"195 539 OFFCURVE",
"287 658 OFFCURVE",
"431 658 CURVE SMOOTH",
"478 658 OFFCURVE",
"543 646 OFFCURVE",
"579 618 CURVE",
"583 573 OFFCURVE",
"592 523 OFFCURVE",
"604 485 CURVE",
"641 485 LINE",
"655 631 LINE",
"603 680 OFFCURVE",
"508 710 OFFCURVE",
"392 710 CURVE SMOOTH",
"166 710 OFFCURVE",
"35 572 OFFCURVE",
"35 350 CURVE SMOOTH",
"35 127 OFFCURVE",
"156 -10 OFFCURVE",
"389 -10 CURVE SMOOTH"
);
},
{
closed = 1;
nodes = (
"352 790 OFFCURVE",
"406 790 OFFCURVE",
"415 790 CURVE",
"439 826 OFFCURVE",
"526 904 OFFCURVE",
"570 933 CURVE",
"508 978 LINE",
"466 946 OFFCURVE",
"405 886 OFFCURVE",
"381 850 CURVE",
"380 850 OFFCURVE",
"378 850 OFFCURVE",
"377 850 CURVE",
"354 886 OFFCURVE",
"292 946 OFFCURVE",
"251 978 CURVE",
"188 933 LINE",
"233 904 OFFCURVE",
"319 826 OFFCURVE",
"343 790 CURVE"
);
}
);
width = 722;
}
);
leftKerningGroup = G;
note = Gcaron;
unicode = 01E6;
},
{
glyphname = Gcircumflex;
lastChange = "2015-11-29 15:09:34 +0000";
layers = (
{
layerId = "956CC02E-6E79-4121-A7B2-01E3BBD48F66";
name = Bold;
paths = (
{
closed = 1;
nodes = (
"483 -10 OFFCURVE",
"591 10 OFFCURVE",
"643 48 CURVE",
"643 300 LINE",
"662 304 OFFCURVE",
"696 317 OFFCURVE",
"712 327 CURVE",
"712 341 LINE",
"412 341 LINE",
"412 322 LINE",
"437 314 OFFCURVE",
"465 308 OFFCURVE",
"491 302 CURVE",
"491 55 LINE",
"467 46 OFFCURVE",
"430 42 OFFCURVE",
"410 42 CURVE SMOOTH",
"270 42 OFFCURVE",
"195 160 OFFCURVE",
"195 350 CURVE SMOOTH",
"195 539 OFFCURVE",
"287 658 OFFCURVE",
"431 658 CURVE SMOOTH",
"478 658 OFFCURVE",
"543 646 OFFCURVE",
"579 618 CURVE",
"583 573 OFFCURVE",
"592 523 OFFCURVE",
"604 485 CURVE",
"641 485 LINE",
"655 631 LINE",
"603 680 OFFCURVE",
"508 710 OFFCURVE",
"392 710 CURVE SMOOTH",
"166 710 OFFCURVE",
"35 572 OFFCURVE",
"35 350 CURVE SMOOTH",
"35 127 OFFCURVE",
"156 -10 OFFCURVE",
"389 -10 CURVE SMOOTH"
);
},
{
closed = 1;
nodes = (
"321 816 OFFCURVE",
"383 876 OFFCURVE",
"406 912 CURVE",
"407 912 OFFCURVE",
"409 912 OFFCURVE",
"410 912 CURVE",
"434 876 OFFCURVE",
"495 816 OFFCURVE",
"537 783 CURVE",
"599 829 LINE",
"555 857 OFFCURVE",
"468 936 OFFCURVE",
"444 972 CURVE",
"435 972 OFFCURVE",
"381 972 OFFCURVE",
"372 972 CURVE",
"348 936 OFFCURVE",
"262 857 OFFCURVE",
"217 829 CURVE",
"280 783 LINE"
);
}
);
width = 722;
}
);
leftKerningGroup = G;
note = Gcircumflex;
unicode = 011C;
},
{
glyphname = Gcommaaccent;
lastChange = "2015-11-29 15:09:35 +0000";
layers = (
{
layerId = "956CC02E-6E79-4121-A7B2-01E3BBD48F66";
name = Bold;
paths = (
{
closed = 1;
nodes = (
"483 -10 OFFCURVE",
"591 10 OFFCURVE",
"643 48 CURVE",
"643 300 LINE",
"662 304 OFFCURVE",
"696 317 OFFCURVE",
"712 327 CURVE",
"712 341 LINE",
"412 341 LINE",
"412 322 LINE",
"437 314 OFFCURVE",
"465 308 OFFCURVE",
"491 302 CURVE",
"491 55 LINE",
"467 46 OFFCURVE",
"430 42 OFFCURVE",
"410 42 CURVE SMOOTH",
"270 42 OFFCURVE",
"195 160 OFFCURVE",
"195 350 CURVE SMOOTH",
"195 539 OFFCURVE",
"287 658 OFFCURVE",
"431 658 CURVE SMOOTH",
"478 658 OFFCURVE",
"543 646 OFFCURVE",
"579 618 CURVE",
"583 573 OFFCURVE",
"592 523 OFFCURVE",
"604 485 CURVE",
"641 485 LINE",
"655 631 LINE",
"603 680 OFFCURVE",
"508 710 OFFCURVE",
"392 710 CURVE SMOOTH",
"166 710 OFFCURVE",
"35 572 OFFCURVE",
"35 350 CURVE SMOOTH",
"35 127 OFFCURVE",
"156 -10 OFFCURVE",
"389 -10 CURVE SMOOTH"
);
},
{
closed = 1;
nodes = (
"437 -319 OFFCURVE",
"480 -235 OFFCURVE",
"480 -159 CURVE SMOOTH",
"480 -117 OFFCURVE",
"456 -81 OFFCURVE",
"402 -81 CURVE SMOOTH",
"363 -81 OFFCURVE",
"328 -106 OFFCURVE",
"328 -148 CURVE SMOOTH",
"328 -188 OFFCURVE",
"359 -215 OFFCURVE",
"400 -217 CURVE",
"393 -261 OFFCURVE",
"358 -306 OFFCURVE",
"333 -332 CURVE",
"381 -368 LINE"
);
}
);
width = 722;
}
);
leftKerningGroup = G;
note = Gcommaaccent;
unicode = 0122;
},
{
glyphname = Gdotaccent;
lastChange = "2015-11-29 15:09:34 +0000";
layers = (
{
layerId = "956CC02E-6E79-4121-A7B2-01E3BBD48F66";
name = Bold;
paths = (
{
closed = 1;
nodes = (
"483 -10 OFFCURVE",
"591 10 OFFCURVE",
"643 48 CURVE",
"643 300 LINE",
"662 304 OFFCURVE",
"696 317 OFFCURVE",
"712 327 CURVE",
"712 341 LINE",
"412 341 LINE",
"412 322 LINE",
"437 314 OFFCURVE",
"465 308 OFFCURVE",
"491 302 CURVE",
"491 55 LINE",
"467 46 OFFCURVE",
"430 42 OFFCURVE",
"410 42 CURVE SMOOTH",
"270 42 OFFCURVE",
"195 160 OFFCURVE",
"195 350 CURVE SMOOTH",
"195 539 OFFCURVE",
"287 658 OFFCURVE",
"431 658 CURVE SMOOTH",
"478 658 OFFCURVE",
"543 646 OFFCURVE",
"579 618 CURVE",
"583 573 OFFCURVE",
"592 523 OFFCURVE",
"604 485 CURVE",
"641 485 LINE",
"655 631 LINE",
"603 680 OFFCURVE",
"508 710 OFFCURVE",
"392 710 CURVE SMOOTH",
"166 710 OFFCURVE",
"35 572 OFFCURVE",
"35 350 CURVE SMOOTH",
"35 127 OFFCURVE",
"156 -10 OFFCURVE",
"389 -10 CURVE SMOOTH"
);
},
{
closed = 1;
nodes = (
"448 785 OFFCURVE",
"472 812 OFFCURVE",
"472 847 CURVE SMOOTH",
"472 882 OFFCURVE",
"448 909 OFFCURVE",
"411 909 CURVE SMOOTH",
"373 909 OFFCURVE",
"350 882 OFFCURVE",
"350 847 CURVE SMOOTH",
"350 812 OFFCURVE",
"373 785 OFFCURVE",
"411 785 CURVE SMOOTH"
);
}
);
width = 722;
}
);
leftKerningGroup = G;
note = Gdotaccent;
unicode = 0120;
},
{
glyphname = Gmacron;
lastChange = "2015-11-29 15:09:35 +0000";
layers = (
{
layerId = "956CC02E-6E79-4121-A7B2-01E3BBD48F66";
name = Bold;
paths = (
{
closed = 1;
nodes = (
"483 -10 OFFCURVE",
"591 10 OFFCURVE",
"643 48 CURVE",
"643 300 LINE",
"662 304 OFFCURVE",
"696 317 OFFCURVE",
"712 327 CURVE",
"712 341 LINE",
"412 341 LINE",
"412 322 LINE",
"437 314 OFFCURVE",
"465 308 OFFCURVE",
"491 302 CURVE",
"491 55 LINE",
"467 46 OFFCURVE",
"430 42 OFFCURVE",
"410 42 CURVE SMOOTH",
"270 42 OFFCURVE",
"195 160 OFFCURVE",
"195 350 CURVE SMOOTH",
"195 539 OFFCURVE",
"287 658 OFFCURVE",
"431 658 CURVE SMOOTH",
"478 658 OFFCURVE",
"543 646 OFFCURVE",
"579 618 CURVE",
"583 573 OFFCURVE",
"592 523 OFFCURVE",
"604 485 CURVE",
"641 485 LINE",
"655 631 LINE",
"603 680 OFFCURVE",
"508 710 OFFCURVE",
"392 710 CURVE SMOOTH",
"166 710 OFFCURVE",
"35 572 OFFCURVE",
"35 350 CURVE SMOOTH",
"35 127 OFFCURVE",
"156 -10 OFFCURVE",
"389 -10 CURVE SMOOTH"
);
},
{
closed = 1;
nodes = (
"566 785 LINE",
"566 833 LINE",
"176 833 LINE",
"176 785 LINE"
);
}
);
width = 722;
}
);
leftKerningGroup = G;
note = Gmacron;
unicode = 1E20;
},
{
glyphname = H;
lastChange = "2015-11-29 15:09:36 +0000";
layers = (
{
layerId = "956CC02E-6E79-4121-A7B2-01E3BBD48F66";
name = Bold;
paths = (
{
closed = 1;
nodes = (
"796 0 LINE",
"796 17 LINE",
"767 28 OFFCURVE",
"742 34 OFFCURVE",
"717 39 CURVE",
"717 658 LINE",
"736 661 OFFCURVE",
"767 671 OFFCURVE",
"796 680 CURVE",
"796 700 LINE",
"483 700 LINE",
"483 682 LINE",
"511 673 OFFCURVE",
"536 666 OFFCURVE",
"560 661 CURVE",
"560 40 LINE",
"545 38 OFFCURVE",
"538 37 OFFCURVE",
"483 15 CURVE",
"483 0 LINE"
);
},
{
closed = 1;
nodes = (
"343 0 LINE",
"343 17 LINE",
"315 26 OFFCURVE",
"289 33 OFFCURVE",
"266 38 CURVE",
"266 659 LINE",
"280 662 OFFCURVE",
"287 662 OFFCURVE",
"343 684 CURVE",
"343 700 LINE",
"30 700 LINE",
"30 682 LINE",
"59 672 OFFCURVE",
"84 665 OFFCURVE",
"109 660 CURVE",
"109 41 LINE",
"90 38 OFFCURVE",
"58 28 OFFCURVE",
"30 19 CURVE",
"30 0 LINE"
);
},
{
closed = 1;
nodes = (
"636 330 LINE",
"636 380 LINE",
"191 380 LINE",
"191 330 LINE"
);
}
);
width = 827;
}
);
note = H;
unicode = 0048;
},
{
glyphname = Hbar;
lastChange = "2015-11-29 15:09:35 +0000";
layers = (
{
layerId = "956CC02E-6E79-4121-A7B2-01E3BBD48F66";
name = Bold;
paths = (
{
closed = 1;
nodes = (
"796 0 LINE",
"796 17 LINE",
"767 28 OFFCURVE",
"742 34 OFFCURVE",
"717 39 CURVE",
"717 658 LINE",
"736 661 OFFCURVE",
"767 671 OFFCURVE",
"796 680 CURVE",
"796 700 LINE",
"483 700 LINE",
"483 682 LINE",
"511 673 OFFCURVE",
"536 666 OFFCURVE",
"560 661 CURVE",
"560 40 LINE",
"545 38 OFFCURVE",
"538 37 OFFCURVE",
"483 15 CURVE",
"483 0 LINE"
);
},
{
closed = 1;
nodes = (
"343 0 LINE",
"343 17 LINE",
"315 26 OFFCURVE",
"289 33 OFFCURVE",
"266 38 CURVE",
"266 659 LINE",
"280 662 OFFCURVE",
"287 662 OFFCURVE",
"343 684 CURVE",
"343 700 LINE",
"30 700 LINE",
"30 682 LINE",
"59 672 OFFCURVE",
"84 665 OFFCURVE",
"109 660 CURVE",
"109 41 LINE",
"90 38 OFFCURVE",
"58 28 OFFCURVE",
"30 19 CURVE",
"30 0 LINE"
);
},
{
closed = 1;
nodes = (
"636 330 LINE",
"636 380 LINE",
"191 380 LINE",
"191 330 LINE"
);
},
{
closed = 1;
nodes = (
"777 494 LINE",
"777 543 LINE",
"49 543 LINE",
"49 494 LINE"
);
}
);
width = 827;
}
);
note = Hbar;
unicode = 0126;
},
{
glyphname = Hbrevebelow;
lastChange = "2015-11-29 15:09:34 +0000";
layers = (
{
layerId = "956CC02E-6E79-4121-A7B2-01E3BBD48F66";
name = Bold;
paths = (
{
closed = 1;
nodes = (
"796 0 LINE",
"796 17 LINE",
"767 28 OFFCURVE",
"742 34 OFFCURVE",
"717 39 CURVE",
"717 658 LINE",
"736 661 OFFCURVE",
"767 671 OFFCURVE",
"796 680 CURVE",
"796 700 LINE",
"483 700 LINE",
"483 682 LINE",
"511 673 OFFCURVE",
"536 666 OFFCURVE",
"560 661 CURVE",
"560 40 LINE",
"545 38 OFFCURVE",
"538 37 OFFCURVE",
"483 15 CURVE",
"483 0 LINE"
);
},
{
closed = 1;
nodes = (
"511 -184 OFFCURVE",
"579 -142 OFFCURVE",
"594 -50 CURVE",
"508 -50 LINE",
"500 -123 OFFCURVE",
"454 -133 OFFCURVE",
"413 -133 CURVE SMOOTH",
"372 -133 OFFCURVE",
"325 -123 OFFCURVE",
"318 -50 CURVE",
"232 -50 LINE",
"247 -142 OFFCURVE",
"315 -184 OFFCURVE",
"413 -184 CURVE SMOOTH"
);
},
{
closed = 1;
nodes = (
"343 0 LINE",
"343 17 LINE",
"315 26 OFFCURVE",
"289 33 OFFCURVE",
"266 38 CURVE",
"266 659 LINE",
"280 662 OFFCURVE",
"287 662 OFFCURVE",
"343 684 CURVE",
"343 700 LINE",
"30 700 LINE",
"30 682 LINE",
"59 672 OFFCURVE",
"84 665 OFFCURVE",
"109 660 CURVE",
"109 41 LINE",
"90 38 OFFCURVE",
"58 28 OFFCURVE",
"30 19 CURVE",
"30 0 LINE"
);
},
{
closed = 1;
nodes = (
"636 330 LINE",
"636 380 LINE",
"191 380 LINE",
"191 330 LINE"
);
}
);
width = 827;
}
);
note = Hbrevebelow;
unicode = 1E2A;
},
{
glyphname = Hcircumflex;
lastChange = "2015-11-29 15:09:34 +0000";
layers = (
{
layerId = "956CC02E-6E79-4121-A7B2-01E3BBD48F66";
name = Bold;
paths = (
{
closed = 1;
nodes = (
"796 0 LINE",
"796 17 LINE",
"767 28 OFFCURVE",
"742 34 OFFCURVE",
"717 39 CURVE",
"717 658 LINE",
"736 661 OFFCURVE",
"767 671 OFFCURVE",
"796 680 CURVE",
"796 700 LINE",
"483 700 LINE",
"483 682 LINE",
"511 673 OFFCURVE",
"536 666 OFFCURVE",
"560 661 CURVE",
"560 40 LINE",
"545 38 OFFCURVE",
"538 37 OFFCURVE",
"483 15 CURVE",
"483 0 LINE"
);
},
{
closed = 1;
nodes = (
"343 0 LINE",
"343 17 LINE",
"315 26 OFFCURVE",
"289 33 OFFCURVE",
"266 38 CURVE",
"266 659 LINE",
"280 662 OFFCURVE",
"287 662 OFFCURVE",
"343 684 CURVE",
"343 700 LINE",
"30 700 LINE",
"30 682 LINE",
"59 672 OFFCURVE",
"84 665 OFFCURVE",
"109 660 CURVE",
"109 41 LINE",
"90 38 OFFCURVE",
"58 28 OFFCURVE",
"30 19 CURVE",
"30 0 LINE"
);
},
{
closed = 1;
nodes = (
"636 330 LINE",
"636 380 LINE",
"191 380 LINE",
"191 330 LINE"
);
},
{
closed = 1;
nodes = (
"326 816 OFFCURVE",
"388 876 OFFCURVE",
"411 912 CURVE",
"412 912 OFFCURVE",
"414 912 OFFCURVE",
"415 912 CURVE",
"439 876 OFFCURVE",
"500 816 OFFCURVE",
"542 783 CURVE",
"604 829 LINE",
"560 857 OFFCURVE",
"473 936 OFFCURVE",
"449 972 CURVE",
"440 972 OFFCURVE",
"386 972 OFFCURVE",
"377 972 CURVE",
"353 936 OFFCURVE",
"267 857 OFFCURVE",
"222 829 CURVE",
"285 783 LINE"
);
}
);
width = 827;
}
);
note = Hcircumflex;
unicode = 0124;
},
{
glyphname = Hdotbelow;
lastChange = "2015-11-29 15:09:36 +0000";
layers = (
{
layerId = "956CC02E-6E79-4121-A7B2-01E3BBD48F66";
name = Bold;
paths = (
{
closed = 1;
nodes = (
"796 0 LINE",
"796 17 LINE",
"767 28 OFFCURVE",
"742 34 OFFCURVE",
"717 39 CURVE",
"717 658 LINE",
"736 661 OFFCURVE",
"767 671 OFFCURVE",
"796 680 CURVE",
"796 700 LINE",
"483 700 LINE",
"483 682 LINE",
"511 673 OFFCURVE",
"536 666 OFFCURVE",
"560 661 CURVE",
"560 40 LINE",
"545 38 OFFCURVE",
"538 37 OFFCURVE",
"483 15 CURVE",
"483 0 LINE"
);
},
{
closed = 1;
nodes = (
"449 -178 OFFCURVE",
"473 -151 OFFCURVE",
"473 -116 CURVE SMOOTH",
"473 -81 OFFCURVE",
"449 -54 OFFCURVE",
"411 -54 CURVE SMOOTH",
"374 -54 OFFCURVE",
"350 -81 OFFCURVE",
"350 -116 CURVE SMOOTH",
"350 -151 OFFCURVE",
"374 -178 OFFCURVE",
"411 -178 CURVE SMOOTH"
);
},
{
closed = 1;
nodes = (
"343 0 LINE",
"343 17 LINE",
"315 26 OFFCURVE",
"289 33 OFFCURVE",
"266 38 CURVE",
"266 659 LINE",
"280 662 OFFCURVE",
"287 662 OFFCURVE",
"343 684 CURVE",
"343 700 LINE",
"30 700 LINE",
"30 682 LINE",
"59 672 OFFCURVE",
"84 665 OFFCURVE",
"109 660 CURVE",
"109 41 LINE",
"90 38 OFFCURVE",
"58 28 OFFCURVE",
"30 19 CURVE",
"30 0 LINE"
);
},
{
closed = 1;
nodes = (
"636 330 LINE",
"636 380 LINE",
"191 380 LINE",
"191 330 LINE"
);
}
);
width = 827;
}
);
note = Hdotbelow;
unicode = 1E24;
},
{
glyphname = I;
lastChange = "2015-11-29 15:09:30 +0000";
layers = (
{
layerId = "956CC02E-6E79-4121-A7B2-01E3BBD48F66";
name = Bold;
paths = (
{
closed = 1;
nodes = (
"349 0 LINE",
"349 18 LINE",
"322 26 OFFCURVE",
"292 35 OFFCURVE",
"268 39 CURVE",
"268 659 LINE",
"296 666 OFFCURVE",
"325 672 OFFCURVE",
"349 680 CURVE",
"349 700 LINE",
"31 700 LINE",
"31 681 LINE",
"58 673 OFFCURVE",
"88 664 OFFCURVE",
"111 660 CURVE",
"111 40 LINE",
"84 34 OFFCURVE",
"55 27 OFFCURVE",
"31 20 CURVE",
"31 0 LINE"
);
}
);
width = 380;
}
);
note = I;
unicode = 0049;
},
{
glyphname = IJ;
lastChange = "2015-11-29 15:09:36 +0000";
layers = (
{
layerId = "956CC02E-6E79-4121-A7B2-01E3BBD48F66";
name = Bold;
paths = (
{
closed = 1;
nodes = (
"684 -10 OFFCURVE",
"785 40 OFFCURVE",
"785 163 CURVE SMOOTH",
"785 658 LINE",
"803 661 OFFCURVE",
"835 671 OFFCURVE",
"863 680 CURVE",
"863 700 LINE",
"549 700 LINE",
"549 680 LINE",
"574 671 OFFCURVE",
"595 664 OFFCURVE",
"628 659 CURVE",
"628 156 LINE SMOOTH",
"628 78 OFFCURVE",
"581 50 OFFCURVE",
"527 50 CURVE SMOOTH",
"483 50 OFFCURVE",
"440 67 OFFCURVE",
"413 86 CURVE",
"390 48 LINE",
"434 10 OFFCURVE",
"504 -10 OFFCURVE",
"573 -10 CURVE SMOOTH"
);
},
{
closed = 1;
nodes = (
"349 0 LINE",
"349 18 LINE",
"322 26 OFFCURVE",
"292 35 OFFCURVE",
"268 39 CURVE",
"268 659 LINE",
"296 666 OFFCURVE",
"325 672 OFFCURVE",
"349 680 CURVE",
"349 700 LINE",
"31 700 LINE",
"31 681 LINE",
"58 673 OFFCURVE",
"88 664 OFFCURVE",
"111 660 CURVE",
"111 40 LINE",
"84 34 OFFCURVE",
"55 27 OFFCURVE",
"31 20 CURVE",
"31 0 LINE"
);
}
);
width = 894;
}
);
note = IJ;
rightKerningGroup = J;
unicode = 0132;
},
{
glyphname = Iacute;
lastChange = "2015-11-29 15:09:34 +0000";
layers = (
{
layerId = "956CC02E-6E79-4121-A7B2-01E3BBD48F66";
name = Bold;
paths = (
{
closed = 1;
nodes = (
"349 0 LINE",
"349 18 LINE",
"322 26 OFFCURVE",
"292 35 OFFCURVE",
"268 39 CURVE",
"268 659 LINE",
"296 666 OFFCURVE",
"325 672 OFFCURVE",
"349 680 CURVE",
"349 700 LINE",
"31 700 LINE",
"31 681 LINE",
"58 673 OFFCURVE",
"88 664 OFFCURVE",
"111 660 CURVE",
"111 40 LINE",
"84 34 OFFCURVE",
"55 27 OFFCURVE",
"31 20 CURVE",
"31 0 LINE"
);
},
{
closed = 1;
nodes = (
"256 879 LINE SMOOTH",
"288 898 OFFCURVE",
"306 916 OFFCURVE",
"306 940 CURVE SMOOTH",
"306 959 OFFCURVE",
"291 982 OFFCURVE",
"257 982 CURVE SMOOTH",
"223 982 OFFCURVE",
"199 954 OFFCURVE",
"193 947 CURVE",
"71 821 LINE",
"96 786 LINE"
);
}
);
width = 380;
}
);
note = Iacute;
unicode = 00CD;
},
{
glyphname = Ibreve;
lastChange = "2015-11-29 15:09:34 +0000";
layers = (
{
layerId = "956CC02E-6E79-4121-A7B2-01E3BBD48F66";
name = Bold;
paths = (
{
closed = 1;
nodes = (
"349 0 LINE",
"349 18 LINE",
"322 26 OFFCURVE",
"292 35 OFFCURVE",
"268 39 CURVE",
"268 659 LINE",
"296 666 OFFCURVE",
"325 672 OFFCURVE",
"349 680 CURVE",
"349 700 LINE",
"31 700 LINE",
"31 681 LINE",
"58 673 OFFCURVE",
"88 664 OFFCURVE",
"111 660 CURVE",
"111 40 LINE",
"84 34 OFFCURVE",
"55 27 OFFCURVE",
"31 20 CURVE",
"31 0 LINE"
);
},
{
closed = 1;
nodes = (
"288 782 OFFCURVE",
"356 825 OFFCURVE",
"371 916 CURVE",
"285 916 LINE",
"277 843 OFFCURVE",
"231 834 OFFCURVE",
"190 834 CURVE SMOOTH",
"149 834 OFFCURVE",
"102 843 OFFCURVE",
"95 916 CURVE",
"9 916 LINE",
"24 825 OFFCURVE",
"92 782 OFFCURVE",
"190 782 CURVE SMOOTH"
);
}
);
width = 380;
}
);
note = Ibreve;
unicode = 012C;
},
{
glyphname = Icaron;
lastChange = "2015-11-29 15:09:34 +0000";
layers = (
{
layerId = "956CC02E-6E79-4121-A7B2-01E3BBD48F66";
name = Bold;
paths = (
{
closed = 1;
nodes = (
"349 0 LINE",
"349 18 LINE",
"322 26 OFFCURVE",
"292 35 OFFCURVE",
"268 39 CURVE",
"268 659 LINE",
"296 666 OFFCURVE",
"325 672 OFFCURVE",
"349 680 CURVE",
"349 700 LINE",
"31 700 LINE",
"31 681 LINE",
"58 673 OFFCURVE",
"88 664 OFFCURVE",
"111 660 CURVE",
"111 40 LINE",
"84 34 OFFCURVE",
"55 27 OFFCURVE",
"31 20 CURVE",
"31 0 LINE"
);
},
{
closed = 1;
nodes = (
"162 786 OFFCURVE",
"216 786 OFFCURVE",
"225 786 CURVE",
"249 822 OFFCURVE",
"336 900 OFFCURVE",
"380 929 CURVE",
"318 974 LINE",
"276 942 OFFCURVE",
"215 882 OFFCURVE",
"191 846 CURVE",
"190 846 OFFCURVE",
"188 846 OFFCURVE",
"187 846 CURVE",
"164 882 OFFCURVE",
"102 942 OFFCURVE",
"61 974 CURVE",
"-2 929 LINE",
"43 900 OFFCURVE",
"129 822 OFFCURVE",
"153 786 CURVE"
);
}
);
width = 380;
}
);
note = Icaron;
unicode = 01CF;
},
{
glyphname = Icircumflex;
lastChange = "2015-11-29 15:09:34 +0000";
layers = (
{
layerId = "956CC02E-6E79-4121-A7B2-01E3BBD48F66";
name = Bold;
paths = (
{
closed = 1;
nodes = (
"349 0 LINE",
"349 18 LINE",
"322 26 OFFCURVE",
"292 35 OFFCURVE",
"268 39 CURVE",
"268 659 LINE",
"296 666 OFFCURVE",
"325 672 OFFCURVE",
"349 680 CURVE",
"349 700 LINE",
"31 700 LINE",
"31 681 LINE",
"58 673 OFFCURVE",
"88 664 OFFCURVE",
"111 660 CURVE",
"111 40 LINE",
"84 34 OFFCURVE",
"55 27 OFFCURVE",
"31 20 CURVE",
"31 0 LINE"
);
},
{
closed = 1;
nodes = (
"102 816 OFFCURVE",
"164 876 OFFCURVE",
"187 912 CURVE",
"188 912 OFFCURVE",
"190 912 OFFCURVE",
"191 912 CURVE",
"215 876 OFFCURVE",
"276 816 OFFCURVE",
"318 783 CURVE",
"380 829 LINE",
"336 857 OFFCURVE",
"249 936 OFFCURVE",
"225 972 CURVE",
"216 972 OFFCURVE",
"162 972 OFFCURVE",
"153 972 CURVE",
"129 936 OFFCURVE",
"43 857 OFFCURVE",
"-2 829 CURVE",
"61 783 LINE"
);
}
);
width = 380;
}
);
note = Icircumflex;
unicode = 00CE;
},
{
glyphname = Idieresis;
lastChange = "2015-11-29 15:09:34 +0000";
layers = (
{
layerId = "956CC02E-6E79-4121-A7B2-01E3BBD48F66";
name = Bold;
paths = (
{
closed = 1;
nodes = (
"349 0 LINE",
"349 18 LINE",
"322 26 OFFCURVE",
"292 35 OFFCURVE",
"268 39 CURVE",
"268 659 LINE",
"296 666 OFFCURVE",
"325 672 OFFCURVE",
"349 680 CURVE",
"349 700 LINE",
"31 700 LINE",
"31 681 LINE",
"58 673 OFFCURVE",
"88 664 OFFCURVE",
"111 660 CURVE",
"111 40 LINE",
"84 34 OFFCURVE",
"55 27 OFFCURVE",
"31 20 CURVE",
"31 0 LINE"
);
},
{
closed = 1;
nodes = (
"107 785 OFFCURVE",
"131 812 OFFCURVE",
"131 847 CURVE SMOOTH",
"131 882 OFFCURVE",
"107 909 OFFCURVE",
"69 909 CURVE SMOOTH",
"32 909 OFFCURVE",
"8 882 OFFCURVE",
"8 847 CURVE SMOOTH",
"8 812 OFFCURVE",
"32 785 OFFCURVE",
"69 785 CURVE SMOOTH"
);
},
{
closed = 1;
nodes = (
"347 785 OFFCURVE",
"371 812 OFFCURVE",
"371 847 CURVE SMOOTH",
"371 882 OFFCURVE",
"347 909 OFFCURVE",
"309 909 CURVE SMOOTH",
"271 909 OFFCURVE",
"248 882 OFFCURVE",
"248 847 CURVE SMOOTH",
"248 812 OFFCURVE",
"271 785 OFFCURVE",
"309 785 CURVE SMOOTH"
);
}
);
width = 380;
}
);
note = Idieresis;
unicode = 00CF;
},
{
glyphname = Idotaccent;
lastChange = "2015-11-29 15:09:36 +0000";
layers = (
{
layerId = "956CC02E-6E79-4121-A7B2-01E3BBD48F66";
name = Bold;
paths = (
{
closed = 1;
nodes = (
"349 0 LINE",
"349 18 LINE",
"322 26 OFFCURVE",
"292 35 OFFCURVE",
"268 39 CURVE",
"268 659 LINE",
"296 666 OFFCURVE",
"325 672 OFFCURVE",
"349 680 CURVE",
"349 700 LINE",
"31 700 LINE",
"31 681 LINE",
"58 673 OFFCURVE",
"88 664 OFFCURVE",
"111 660 CURVE",
"111 40 LINE",
"84 34 OFFCURVE",
"55 27 OFFCURVE",
"31 20 CURVE",
"31 0 LINE"
);
},
{
closed = 1;
nodes = (
"225 785 OFFCURVE",
"249 812 OFFCURVE",
"249 847 CURVE SMOOTH",
"249 882 OFFCURVE",
"225 909 OFFCURVE",
"188 909 CURVE SMOOTH",
"150 909 OFFCURVE",
"127 882 OFFCURVE",
"127 847 CURVE SMOOTH",
"127 812 OFFCURVE",
"150 785 OFFCURVE",
"188 785 CURVE SMOOTH"
);
}
);
width = 380;
}
);
note = Idotaccent;
unicode = 0130;
},
{
glyphname = Idotbelow;
lastChange = "2015-11-29 15:09:35 +0000";
layers = (
{
layerId = "956CC02E-6E79-4121-A7B2-01E3BBD48F66";
name = Bold;
paths = (
{
closed = 1;
nodes = (
"349 0 LINE",
"349 18 LINE",
"322 26 OFFCURVE",
"292 35 OFFCURVE",
"268 39 CURVE",
"268 659 LINE",
"296 666 OFFCURVE",
"325 672 OFFCURVE",
"349 680 CURVE",
"349 700 LINE",
"31 700 LINE",
"31 681 LINE",
"58 673 OFFCURVE",
"88 664 OFFCURVE",
"111 660 CURVE",
"111 40 LINE",
"84 34 OFFCURVE",
"55 27 OFFCURVE",
"31 20 CURVE",
"31 0 LINE"
);
},
{
closed = 1;
nodes = (
"227 -178 OFFCURVE",
"251 -151 OFFCURVE",
"251 -116 CURVE SMOOTH",
"251 -81 OFFCURVE",
"227 -54 OFFCURVE",
"189 -54 CURVE SMOOTH",
"152 -54 OFFCURVE",
"128 -81 OFFCURVE",
"128 -116 CURVE SMOOTH",
"128 -151 OFFCURVE",
"152 -178 OFFCURVE",
"189 -178 CURVE SMOOTH"
);
}
);
width = 380;
}
);
note = Idotbelow;
unicode = 1ECA;
},
{
glyphname = Igrave;
lastChange = "2015-11-29 15:09:34 +0000";
layers = (
{
layerId = "956CC02E-6E79-4121-A7B2-01E3BBD48F66";
name = Bold;
paths = (
{
closed = 1;
nodes = (
"349 0 LINE",
"349 18 LINE",
"322 26 OFFCURVE",
"292 35 OFFCURVE",
"268 39 CURVE",
"268 659 LINE",
"296 666 OFFCURVE",
"325 672 OFFCURVE",
"349 680 CURVE",
"349 700 LINE",
"31 700 LINE",
"31 681 LINE",
"58 673 OFFCURVE",
"88 664 OFFCURVE",
"111 660 CURVE",
"111 40 LINE",
"84 34 OFFCURVE",
"55 27 OFFCURVE",
"31 20 CURVE",
"31 0 LINE"
);
},
{
closed = 1;
nodes = (
"306 821 LINE",
"183 948 LINE",
"177 955 OFFCURVE",
"153 982 OFFCURVE",
"120 982 CURVE SMOOTH",
"85 982 OFFCURVE",
"71 959 OFFCURVE",
"71 940 CURVE SMOOTH",
"71 916 OFFCURVE",
"89 898 OFFCURVE",
"121 879 CURVE SMOOTH",
"281 786 LINE"
);
}
);
width = 380;
}
);
note = Igrave;
unicode = 00CC;
},
{
glyphname = Ihookabove;
lastChange = "2015-11-29 15:09:36 +0000";
layers = (
{
layerId = "956CC02E-6E79-4121-A7B2-01E3BBD48F66";
name = Bold;
paths = (
{
closed = 1;
nodes = (
"349 0 LINE",
"349 18 LINE",
"322 26 OFFCURVE",
"292 35 OFFCURVE",
"268 39 CURVE",
"268 659 LINE",
"296 666 OFFCURVE",
"325 672 OFFCURVE",
"349 680 CURVE",
"349 700 LINE",
"31 700 LINE",
"31 681 LINE",
"58 673 OFFCURVE",
"88 664 OFFCURVE",
"111 660 CURVE",
"111 40 LINE",
"84 34 OFFCURVE",
"55 27 OFFCURVE",
"31 20 CURVE",
"31 0 LINE"
);
},
{
closed = 1;
nodes = (
"226 783 LINE",
"236 852 LINE",
"290 857 OFFCURVE",
"332 878 OFFCURVE",
"332 938 CURVE SMOOTH",
"332 1004 OFFCURVE",
"270 1029 OFFCURVE",
"210 1029 CURVE SMOOTH",
"177 1029 OFFCURVE",
"145 1021 OFFCURVE",
"124 1011 CURVE",
"131 972 LINE",
"152 984 OFFCURVE",
"175 988 OFFCURVE",
"193 988 CURVE SMOOTH",
"234 988 OFFCURVE",
"255 965 OFFCURVE",
"255 939 CURVE SMOOTH",
"255 901 OFFCURVE",
"225 887 OFFCURVE",
"197 887 CURVE SMOOTH",
"159 887 LINE",
"164 783 LINE"
);
}
);
width = 380;
}
);
note = Ihookabove;
unicode = 1EC8;
},
{
glyphname = Imacron;
lastChange = "2015-11-29 15:09:36 +0000";
layers = (
{
layerId = "956CC02E-6E79-4121-A7B2-01E3BBD48F66";
name = Bold;
paths = (
{
closed = 1;
nodes = (
"349 0 LINE",
"349 18 LINE",
"322 26 OFFCURVE",
"292 35 OFFCURVE",
"268 39 CURVE",
"268 659 LINE",
"296 666 OFFCURVE",
"325 672 OFFCURVE",
"349 680 CURVE",
"349 700 LINE",
"31 700 LINE",
"31 681 LINE",
"58 673 OFFCURVE",
"88 664 OFFCURVE",
"111 660 CURVE",
"111 40 LINE",
"84 34 OFFCURVE",
"55 27 OFFCURVE",
"31 20 CURVE",
"31 0 LINE"
);
},
{
closed = 1;
nodes = (
"408 785 LINE",
"408 834 LINE",
"-18 834 LINE",
"-18 785 LINE"
);
}
);
width = 380;
}
);
note = Imacron;
unicode = 012A;
},
{
glyphname = Iogonek;
lastChange = "2015-11-29 15:09:36 +0000";
layers = (
{
layerId = "956CC02E-6E79-4121-A7B2-01E3BBD48F66";
name = Bold;
paths = (
{
closed = 1;
nodes = (
"349 0 LINE",
"349 18 LINE",
"322 26 OFFCURVE",
"292 35 OFFCURVE",
"268 39 CURVE",
"268 659 LINE",
"296 666 OFFCURVE",
"325 672 OFFCURVE",
"349 680 CURVE",
"349 700 LINE",
"31 700 LINE",
"31 681 LINE",
"58 673 OFFCURVE",
"88 664 OFFCURVE",
"111 660 CURVE",
"111 40 LINE",
"84 34 OFFCURVE",
"55 27 OFFCURVE",
"31 20 CURVE",
"31 0 LINE"
);
},
{
closed = 1;
nodes = (
"342 -206 OFFCURVE",
"384 -196 OFFCURVE",
"410 -180 CURVE",
"410 -117 LINE",
"385 -132 OFFCURVE",
"362 -138 OFFCURVE",
"343 -138 CURVE SMOOTH",
"306 -138 OFFCURVE",
"281 -117 OFFCURVE",
"281 -86 CURVE SMOOTH",
"281 -54 OFFCURVE",
"308 -18 OFFCURVE",
"333 0 CURVE",
"260 0 LINE",
"200 -18 OFFCURVE",
"166 -71 OFFCURVE",
"166 -116 CURVE SMOOTH",
"166 -170 OFFCURVE",
"214 -206 OFFCURVE",
"298 -206 CURVE SMOOTH"
);
}
);
width = 380;
}
);
note = Iogonek;
unicode = 012E;
},
{
glyphname = Itilde;
lastChange = "2015-11-29 15:09:35 +0000";
layers = (
{
layerId = "956CC02E-6E79-4121-A7B2-01E3BBD48F66";
name = Bold;
paths = (
{
closed = 1;
nodes = (
"349 0 LINE",
"349 18 LINE",
"322 26 OFFCURVE",
"292 35 OFFCURVE",
"268 39 CURVE",
"268 659 LINE",
"296 666 OFFCURVE",
"325 672 OFFCURVE",
"349 680 CURVE",
"349 700 LINE",
"31 700 LINE",
"31 681 LINE",
"58 673 OFFCURVE",
"88 664 OFFCURVE",
"111 660 CURVE",
"111 40 LINE",
"84 34 OFFCURVE",
"55 27 OFFCURVE",
"31 20 CURVE",
"31 0 LINE"
);
},
{
closed = 1;
nodes = (
"55 786 LINE",
"61 818 OFFCURVE",
"82 839 OFFCURVE",
"112 839 CURVE SMOOTH",
"148 839 OFFCURVE",
"211 786 OFFCURVE",
"270 786 CURVE SMOOTH",
"347 786 OFFCURVE",
"384 834 OFFCURVE",
"391 905 CURVE",
"326 905 LINE",
"315 859 OFFCURVE",
"290 851 OFFCURVE",
"265 851 CURVE SMOOTH",
"224 851 OFFCURVE",
"182 903 OFFCURVE",
"110 903 CURVE SMOOTH",
"42 903 OFFCURVE",
"-1 863 OFFCURVE",
"-12 786 CURVE"
);
}
);
width = 380;
}
);
note = Itilde;
unicode = 0128;
},
{
glyphname = J;
lastChange = "2015-11-29 15:09:30 +0000";
layers = (
{
layerId = "956CC02E-6E79-4121-A7B2-01E3BBD48F66";
name = Bold;
paths = (
{
closed = 1;
nodes = (
"312 -10 OFFCURVE",
"413 40 OFFCURVE",
"413 163 CURVE SMOOTH",
"413 658 LINE",
"431 661 OFFCURVE",
"463 671 OFFCURVE",
"491 680 CURVE",
"491 700 LINE",
"177 700 LINE",
"177 680 LINE",
"202 671 OFFCURVE",
"223 664 OFFCURVE",
"256 659 CURVE",
"256 156 LINE SMOOTH",
"256 78 OFFCURVE",
"209 50 OFFCURVE",
"155 50 CURVE SMOOTH",
"111 50 OFFCURVE",
"68 67 OFFCURVE",
"41 86 CURVE",
"18 48 LINE",
"62 10 OFFCURVE",
"132 -10 OFFCURVE",
"201 -10 CURVE SMOOTH"
);
}
);
width = 521;
}
);
leftKerningGroup = J;
note = J;
rightKerningGroup = J;
unicode = 004A;
},
{
glyphname = Jcircumflex;
lastChange = "2015-11-29 15:09:36 +0000";
layers = (
{
layerId = "956CC02E-6E79-4121-A7B2-01E3BBD48F66";
name = Bold;
paths = (
{
closed = 1;
nodes = (
"312 -10 OFFCURVE",
"413 40 OFFCURVE",
"413 163 CURVE SMOOTH",
"413 658 LINE",
"431 661 OFFCURVE",
"463 671 OFFCURVE",
"491 680 CURVE",
"491 700 LINE",
"177 700 LINE",
"177 680 LINE",
"202 671 OFFCURVE",
"223 664 OFFCURVE",
"256 659 CURVE",
"256 156 LINE SMOOTH",
"256 78 OFFCURVE",
"209 50 OFFCURVE",
"155 50 CURVE SMOOTH",
"111 50 OFFCURVE",
"68 67 OFFCURVE",
"41 86 CURVE",
"18 48 LINE",
"62 10 OFFCURVE",
"132 -10 OFFCURVE",
"201 -10 CURVE SMOOTH"
);
},
{
closed = 1;
nodes = (
"246 816 OFFCURVE",
"308 876 OFFCURVE",
"331 912 CURVE",
"332 912 OFFCURVE",
"334 912 OFFCURVE",
"335 912 CURVE",
"359 876 OFFCURVE",
"420 816 OFFCURVE",
"462 783 CURVE",
"524 829 LINE",
"480 857 OFFCURVE",
"393 936 OFFCURVE",
"369 972 CURVE",
"360 972 OFFCURVE",
"306 972 OFFCURVE",
"297 972 CURVE",
"273 936 OFFCURVE",
"187 857 OFFCURVE",
"142 829 CURVE",
"205 783 LINE"
);
}
);
width = 521;
}
);
leftKerningGroup = J;
note = Jcircumflex;
rightKerningGroup = J;
unicode = 0134;
},
{
glyphname = K;
lastChange = "2015-11-29 15:09:35 +0000";
layers = (
{
layerId = "956CC02E-6E79-4121-A7B2-01E3BBD48F66";
name = Bold;
paths = (
{
closed = 1;
nodes = (
"649 651 LINE",
"670 668 OFFCURVE",
"701 668 OFFCURVE",
"725 675 CURVE",
"725 700 LINE",
"493 700 LINE",
"493 675 LINE",
"519 669 OFFCURVE",
"552 666 OFFCURVE",
"573 657 CURVE",
"215 283 LINE",
"215 197 LINE"
);
},
{
closed = 1;
nodes = (
"347 0 LINE",
"347 18 LINE",
"320 26 OFFCURVE",
"291 35 OFFCURVE",
"267 39 CURVE",
"267 659 LINE",
"294 665 OFFCURVE",
"321 672 OFFCURVE",
"347 680 CURVE",
"347 700 LINE",
"30 700 LINE",
"30 682 LINE",
"58 672 OFFCURVE",
"86 665 OFFCURVE",
"110 660 CURVE",
"110 40 LINE",
"103 39 OFFCURVE",
"58 28 OFFCURVE",
"30 20 CURVE",
"30 0 LINE"
);
},
{
closed = 1;
nodes = (
"799 0 LINE",
"799 18 LINE",
"765 28 OFFCURVE",
"735 35 OFFCURVE",
"712 39 CURVE",
"415 437 LINE",
"323 342 LINE",
"577 0 LINE"
);
}
);
width = 805;
}
);
note = K;
rightKerningGroup = K;
unicode = 004B;
},
{
glyphname = Kcommaaccent;
lastChange = "2015-11-29 15:09:35 +0000";
layers = (
{
layerId = "956CC02E-6E79-4121-A7B2-01E3BBD48F66";
name = Bold;
paths = (
{
closed = 1;
nodes = (
"649 651 LINE",
"670 668 OFFCURVE",
"701 668 OFFCURVE",
"725 675 CURVE",
"725 700 LINE",
"493 700 LINE",
"493 675 LINE",
"519 669 OFFCURVE",
"552 666 OFFCURVE",
"573 657 CURVE",
"215 283 LINE",
"215 197 LINE"
);
},
{
closed = 1;
nodes = (
"451 -319 OFFCURVE",
"494 -235 OFFCURVE",
"494 -159 CURVE SMOOTH",
"494 -117 OFFCURVE",
"470 -81 OFFCURVE",
"416 -81 CURVE SMOOTH",
"377 -81 OFFCURVE",
"342 -106 OFFCURVE",
"342 -148 CURVE SMOOTH",
"342 -188 OFFCURVE",
"373 -215 OFFCURVE",
"414 -217 CURVE",
"407 -261 OFFCURVE",
"372 -306 OFFCURVE",
"347 -332 CURVE",
"395 -368 LINE"
);
},
{
closed = 1;
nodes = (
"347 0 LINE",
"347 18 LINE",
"320 26 OFFCURVE",
"291 35 OFFCURVE",
"267 39 CURVE",
"267 659 LINE",
"294 665 OFFCURVE",
"321 672 OFFCURVE",
"347 680 CURVE",
"347 700 LINE",
"30 700 LINE",
"30 682 LINE",
"58 672 OFFCURVE",
"86 665 OFFCURVE",
"110 660 CURVE",
"110 40 LINE",
"103 39 OFFCURVE",
"58 28 OFFCURVE",
"30 20 CURVE",
"30 0 LINE"
);
},
{
closed = 1;
nodes = (
"799 0 LINE",
"799 18 LINE",
"765 28 OFFCURVE",
"735 35 OFFCURVE",
"712 39 CURVE",
"415 437 LINE",
"323 342 LINE",
"577 0 LINE"
);
}
);
width = 805;
}
);
note = Kcommaaccent;
rightKerningGroup = K;
unicode = 0136;
},
{
glyphname = L;
lastChange = "2015-11-29 15:09:30 +0000";
layers = (
{
layerId = "956CC02E-6E79-4121-A7B2-01E3BBD48F66";
name = Bold;
paths = (
{
closed = 1;
nodes = (
"599 0 LINE",
"617 175 LINE",
"584 175 LINE",
"567 154 OFFCURVE",
"536 85 OFFCURVE",
"533 49 CURVE",
"274 49 LINE",
"274 659 LINE",
"300 665 OFFCURVE",
"328 672 OFFCURVE",
"353 680 CURVE",
"353 700 LINE",
"37 700 LINE",
"37 682 LINE",
"65 672 OFFCURVE",
"92 665 OFFCURVE",
"117 660 CURVE",
"117 39 LINE",
"89 35 OFFCURVE",
"58 27 OFFCURVE",
"30 18 CURVE",
"30 0 LINE"
);
}
);
width = 655;
}
);
note = L;
rightKerningGroup = L;
unicode = 004C;
},
{
glyphname = Lacute;
lastChange = "2015-11-29 15:09:34 +0000";
layers = (
{
layerId = "956CC02E-6E79-4121-A7B2-01E3BBD48F66";
name = Bold;
paths = (
{
closed = 1;
nodes = (
"599 0 LINE",
"617 175 LINE",
"584 175 LINE",
"567 154 OFFCURVE",
"536 85 OFFCURVE",
"533 49 CURVE",
"274 49 LINE",
"274 659 LINE",
"300 665 OFFCURVE",
"328 672 OFFCURVE",
"353 680 CURVE",
"353 700 LINE",
"37 700 LINE",
"37 682 LINE",
"65 672 OFFCURVE",
"92 665 OFFCURVE",
"117 660 CURVE",
"117 39 LINE",
"89 35 OFFCURVE",
"58 27 OFFCURVE",
"30 18 CURVE",
"30 0 LINE"
);
},
{
closed = 1;
nodes = (
"289 879 LINE SMOOTH",
"321 898 OFFCURVE",
"339 916 OFFCURVE",
"339 940 CURVE SMOOTH",
"339 959 OFFCURVE",
"324 982 OFFCURVE",
"290 982 CURVE SMOOTH",
"256 982 OFFCURVE",
"232 954 OFFCURVE",
"226 947 CURVE",
"104 821 LINE",
"129 786 LINE"
);
}
);
width = 655;
}
);
note = Lacute;
rightKerningGroup = L;
unicode = 0139;
},
{
glyphname = Lcaron;
lastChange = "2015-11-29 15:09:34 +0000";
layers = (
{
layerId = "956CC02E-6E79-4121-A7B2-01E3BBD48F66";
name = Bold;
paths = (
{
closed = 1;
nodes = (
"599 0 LINE",
"617 175 LINE",
"584 175 LINE",
"567 154 OFFCURVE",
"536 85 OFFCURVE",
"533 49 CURVE",
"274 49 LINE",
"274 659 LINE",
"300 665 OFFCURVE",
"328 672 OFFCURVE",
"353 680 CURVE",
"353 700 LINE",
"37 700 LINE",
"37 682 LINE",
"65 672 OFFCURVE",
"92 665 OFFCURVE",
"117 660 CURVE",
"117 39 LINE",
"89 35 OFFCURVE",
"58 27 OFFCURVE",
"30 18 CURVE",
"30 0 LINE"
);
},
{
closed = 1;
nodes = (
"577 462 OFFCURVE",
"625 547 OFFCURVE",
"625 623 CURVE SMOOTH",
"625 664 OFFCURVE",
"604 710 OFFCURVE",
"541 710 CURVE SMOOTH",
"489 710 OFFCURVE",
"465 673 OFFCURVE",
"465 632 CURVE SMOOTH",
"465 588 OFFCURVE",
"500 564 OFFCURVE",
"540 564 CURVE",
"533 520 OFFCURVE",
"498 475 OFFCURVE",
"473 449 CURVE",
"521 413 LINE"
);
}
);
width = 655;
}
);
note = Lcaron;
rightKerningGroup = L;
unicode = 013D;
},
{
glyphname = Lcommaaccent;
lastChange = "2015-11-29 15:09:34 +0000";
layers = (
{
layerId = "956CC02E-6E79-4121-A7B2-01E3BBD48F66";
name = Bold;
paths = (
{
closed = 1;
nodes = (
"599 0 LINE",
"617 175 LINE",
"584 175 LINE",
"567 154 OFFCURVE",
"536 85 OFFCURVE",
"533 49 CURVE",
"274 49 LINE",
"274 659 LINE",
"300 665 OFFCURVE",
"328 672 OFFCURVE",
"353 680 CURVE",
"353 700 LINE",
"37 700 LINE",
"37 682 LINE",
"65 672 OFFCURVE",
"92 665 OFFCURVE",
"117 660 CURVE",
"117 39 LINE",
"89 35 OFFCURVE",
"58 27 OFFCURVE",
"30 18 CURVE",
"30 0 LINE"
);
},
{
closed = 1;
nodes = (
"374 -319 OFFCURVE",
"417 -235 OFFCURVE",
"417 -159 CURVE SMOOTH",
"417 -117 OFFCURVE",
"393 -81 OFFCURVE",
"339 -81 CURVE SMOOTH",
"300 -81 OFFCURVE",
"265 -106 OFFCURVE",
"265 -148 CURVE SMOOTH",
"265 -188 OFFCURVE",
"296 -215 OFFCURVE",
"337 -217 CURVE",
"330 -261 OFFCURVE",
"295 -306 OFFCURVE",
"270 -332 CURVE",
"318 -368 LINE"
);
}
);
width = 655;
}
);
note = Lcommaaccent;
rightKerningGroup = L;
unicode = 013B;
},
{
glyphname = Ldot;
lastChange = "2015-11-29 15:09:35 +0000";
layers = (
{
layerId = "956CC02E-6E79-4121-A7B2-01E3BBD48F66";
name = Bold;
paths = (
{
closed = 1;
nodes = (
"599 0 LINE",
"617 175 LINE",
"584 175 LINE",
"567 154 OFFCURVE",
"536 85 OFFCURVE",
"533 49 CURVE",
"274 49 LINE",
"274 659 LINE",
"300 665 OFFCURVE",
"328 672 OFFCURVE",
"353 680 CURVE",
"353 700 LINE",
"37 700 LINE",
"37 682 LINE",
"65 672 OFFCURVE",
"92 665 OFFCURVE",
"117 660 CURVE",
"117 555 OFFCURVE",
"117 144 OFFCURVE",
"117 39 CURVE",
"89 35 OFFCURVE",
"58 27 OFFCURVE",
"30 18 CURVE",
"30 0 LINE"
);
},
{
closed = 1;
nodes = (
"501 327 OFFCURVE",
"525 354 OFFCURVE",
"525 389 CURVE SMOOTH",
"525 423 OFFCURVE",
"501 451 OFFCURVE",
"463 451 CURVE SMOOTH",
"425 451 OFFCURVE",
"402 423 OFFCURVE",
"402 389 CURVE SMOOTH",
"402 354 OFFCURVE",
"425 327 OFFCURVE",
"463 327 CURVE SMOOTH"
);
}
);
width = 655;
}
);
note = Ldot;
rightKerningGroup = L;
unicode = 013F;
},
{
glyphname = Ldotbelow;
lastChange = "2015-11-29 15:09:34 +0000";
layers = (
{
layerId = "956CC02E-6E79-4121-A7B2-01E3BBD48F66";
name = Bold;
paths = (
{
closed = 1;
nodes = (
"599 0 LINE",
"617 175 LINE",
"584 175 LINE",
"567 154 OFFCURVE",
"536 85 OFFCURVE",
"533 49 CURVE",
"274 49 LINE",
"274 659 LINE",
"300 665 OFFCURVE",
"328 672 OFFCURVE",
"353 680 CURVE",
"353 700 LINE",
"37 700 LINE",
"37 682 LINE",
"65 672 OFFCURVE",
"92 665 OFFCURVE",
"117 660 CURVE",
"117 555 OFFCURVE",
"117 144 OFFCURVE",
"117 39 CURVE",
"89 35 OFFCURVE",
"58 27 OFFCURVE",
"30 18 CURVE",
"30 0 LINE"
);
},
{
closed = 1;
nodes = (
"374 -175 OFFCURVE",
"398 -148 OFFCURVE",
"398 -113 CURVE SMOOTH",
"398 -79 OFFCURVE",
"374 -51 OFFCURVE",
"337 -51 CURVE SMOOTH",
"299 -51 OFFCURVE",
"276 -79 OFFCURVE",
"276 -113 CURVE SMOOTH",
"276 -148 OFFCURVE",
"299 -175 OFFCURVE",
"337 -175 CURVE SMOOTH"
);
}
);
width = 655;
}
);
note = Ldotbelow;
rightKerningGroup = L;
unicode = 1E36;
},
{
glyphname = Ldotbelowmacron;
lastChange = "2015-11-29 15:09:34 +0000";
layers = (
{
layerId = "956CC02E-6E79-4121-A7B2-01E3BBD48F66";
name = Bold;
paths = (
{
closed = 1;
nodes = (
"599 0 LINE",
"617 175 LINE",
"584 175 LINE",
"567 154 OFFCURVE",
"536 85 OFFCURVE",
"533 49 CURVE",
"274 49 LINE",
"274 659 LINE",
"300 665 OFFCURVE",
"328 672 OFFCURVE",
"353 680 CURVE",
"353 700 LINE",
"37 700 LINE",
"37 682 LINE",
"65 672 OFFCURVE",
"92 665 OFFCURVE",
"117 660 CURVE",
"117 555 OFFCURVE",
"117 144 OFFCURVE",
"117 39 CURVE",
"89 35 OFFCURVE",
"58 27 OFFCURVE",
"30 18 CURVE",
"30 0 LINE"
);
},
{
closed = 1;
nodes = (
"372 -175 OFFCURVE",
"396 -148 OFFCURVE",
"396 -113 CURVE SMOOTH",
"396 -79 OFFCURVE",
"372 -51 OFFCURVE",
"334 -51 CURVE SMOOTH",
"297 -51 OFFCURVE",
"273 -79 OFFCURVE",
"273 -113 CURVE SMOOTH",
"273 -148 OFFCURVE",
"297 -175 OFFCURVE",
"334 -175 CURVE SMOOTH"
);
},
{
closed = 1;
nodes = (
"388 785 LINE",
"388 833 LINE",
"-2 833 LINE",
"-2 785 LINE"
);
}
);
width = 655;
}
);
note = Ldotbelowmacron;
rightKerningGroup = L;
unicode = 1E38;
},
{
glyphname = Llinebelow;
lastChange = "2015-11-29 15:09:35 +0000";
layers = (
{
layerId = "956CC02E-6E79-4121-A7B2-01E3BBD48F66";
name = Bold;
paths = (
{
closed = 1;
nodes = (
"599 0 LINE",
"617 175 LINE",
"584 175 LINE",
"567 154 OFFCURVE",
"536 85 OFFCURVE",
"533 49 CURVE",
"274 49 LINE",
"274 659 LINE",
"300 665 OFFCURVE",
"328 672 OFFCURVE",
"353 680 CURVE",
"353 700 LINE",
"37 700 LINE",
"37 682 LINE",
"65 672 OFFCURVE",
"92 665 OFFCURVE",
"117 660 CURVE",
"117 39 LINE",
"89 35 OFFCURVE",
"58 27 OFFCURVE",
"30 18 CURVE",
"30 0 LINE"
);
},
{
closed = 1;
nodes = (
"521 -109 LINE",
"521 -61 LINE",
"131 -61 LINE",
"131 -109 LINE"
);
}
);
width = 655;
}
);
note = Llinebelow;
rightKerningGroup = L;
unicode = 1E3A;
},
{
glyphname = Lslash;
lastChange = "2015-11-29 15:09:34 +0000";
layers = (
{
layerId = "956CC02E-6E79-4121-A7B2-01E3BBD48F66";
name = Bold;
paths = (
{
closed = 1;
nodes = (
"599 0 LINE",
"617 175 LINE",
"584 175 LINE",
"567 154 OFFCURVE",
"536 85 OFFCURVE",
"533 49 CURVE",
"274 49 LINE",
"274 659 LINE",
"300 665 OFFCURVE",
"328 672 OFFCURVE",
"353 680 CURVE",
"353 700 LINE",
"37 700 LINE",
"37 682 LINE",
"65 672 OFFCURVE",
"92 665 OFFCURVE",
"117 660 CURVE",
"117 39 LINE",
"89 35 OFFCURVE",
"58 27 OFFCURVE",
"30 18 CURVE",
"30 0 LINE"
);
},
{
closed = 1;
nodes = (
"471 377 LINE",
"471 445 LINE",
"39 290 LINE",
"39 223 LINE"
);
}
);
width = 655;
}
);
note = Lslash;
rightKerningGroup = L;
unicode = 0141;
},
{
glyphname = M;
lastChange = "2015-11-29 15:09:30 +0000";
layers = (
{
layerId = "956CC02E-6E79-4121-A7B2-01E3BBD48F66";
name = Bold;
paths = (
{
closed = 1;
nodes = (
"251 0 LINE",
"251 17 LINE",
"223 26 OFFCURVE",
"198 33 OFFCURVE",
"172 38 CURVE",
"172 593 LINE",
"388 76 LINE",
"479 76 LINE",
"699 581 LINE",
"699 38 LINE",
"673 33 OFFCURVE",
"648 26 OFFCURVE",
"620 17 CURVE",
"620 0 LINE",
"935 0 LINE",
"935 17 LINE",
"906 26 OFFCURVE",
"881 33 OFFCURVE",
"856 38 CURVE",
"856 658 LINE",
"883 666 OFFCURVE",
"911 674 OFFCURVE",
"935 682 CURVE",
"935 700 LINE",
"691 700 LINE",
"473 194 LINE",
"274 700 LINE",
"30 700 LINE",
"30 682 LINE",
"58 672 OFFCURVE",
"86 665 OFFCURVE",
"110 660 CURVE",
"110 38 LINE",
"85 33 OFFCURVE",
"59 26 OFFCURVE",
"31 17 CURVE",
"31 0 LINE"
);
}
);
width = 965;
}
);
note = M;
unicode = 004D;
},
{
glyphname = Mdotbelow;
lastChange = "2015-11-29 15:09:35 +0000";
layers = (
{
layerId = "956CC02E-6E79-4121-A7B2-01E3BBD48F66";
name = Bold;
paths = (
{
closed = 1;
nodes = (
"251 0 LINE",
"251 17 LINE",
"223 26 OFFCURVE",
"198 33 OFFCURVE",
"172 38 CURVE",
"172 593 LINE",
"388 76 LINE",
"479 76 LINE",
"699 581 LINE",
"699 38 LINE",
"673 33 OFFCURVE",
"648 26 OFFCURVE",
"620 17 CURVE",
"620 0 LINE",
"935 0 LINE",
"935 17 LINE",
"906 26 OFFCURVE",
"881 33 OFFCURVE",
"856 38 CURVE",
"856 658 LINE",
"883 666 OFFCURVE",
"911 674 OFFCURVE",
"935 682 CURVE",
"935 700 LINE",
"691 700 LINE",
"473 194 LINE",
"274 700 LINE",
"30 700 LINE",
"30 682 LINE",
"58 672 OFFCURVE",
"86 665 OFFCURVE",
"110 660 CURVE",
"110 38 LINE",
"85 33 OFFCURVE",
"59 26 OFFCURVE",
"31 17 CURVE",
"31 0 LINE"
);
},
{
closed = 1;
nodes = (
"519 -178 OFFCURVE",
"543 -151 OFFCURVE",
"543 -116 CURVE SMOOTH",
"543 -81 OFFCURVE",
"519 -54 OFFCURVE",
"481 -54 CURVE SMOOTH",
"444 -54 OFFCURVE",
"420 -81 OFFCURVE",
"420 -116 CURVE SMOOTH",
"420 -151 OFFCURVE",
"444 -178 OFFCURVE",
"481 -178 CURVE SMOOTH"
);
}
);
width = 965;
}
);
note = Mdotbelow;
unicode = 1E42;
},
{
glyphname = N;
lastChange = "2015-11-29 15:09:30 +0000";
layers = (
{
layerId = "956CC02E-6E79-4121-A7B2-01E3BBD48F66";
name = Bold;
paths = (
{
closed = 1;
nodes = (
"251 0 LINE",
"251 17 LINE",
"223 26 OFFCURVE",
"198 33 OFFCURVE",
"172 38 CURVE",
"172 621 LINE",
"597 0 LINE",
"677 0 LINE",
"677 661 LINE",
"702 667 OFFCURVE",
"727 673 OFFCURVE",
"756 682 CURVE",
"756 700 LINE",
"535 700 LINE",
"535 682 LINE",
"564 673 OFFCURVE",
"589 667 OFFCURVE",
"614 661 CURVE",
"614 189 LINE",
"267 700 LINE",
"30 700 LINE",
"30 682 LINE",
"58 672 OFFCURVE",
"85 665 OFFCURVE",
"110 660 CURVE",
"110 38 LINE",
"85 33 OFFCURVE",
"59 26 OFFCURVE",
"31 17 CURVE",
"31 0 LINE"
);
}
);
width = 786;
}
);
note = N;
unicode = 004E;
},
{
glyphname = Nacute;
lastChange = "2015-11-29 15:09:36 +0000";
layers = (
{
layerId = "956CC02E-6E79-4121-A7B2-01E3BBD48F66";
name = Bold;
paths = (
{
closed = 1;
nodes = (
"251 0 LINE",
"251 17 LINE",
"223 26 OFFCURVE",
"198 33 OFFCURVE",
"172 38 CURVE",
"172 621 LINE",
"597 0 LINE",
"677 0 LINE",
"677 661 LINE",
"702 667 OFFCURVE",
"727 673 OFFCURVE",
"756 682 CURVE",
"756 700 LINE",
"535 700 LINE",
"535 682 LINE",
"564 673 OFFCURVE",
"589 667 OFFCURVE",
"614 661 CURVE",
"614 189 LINE",
"267 700 LINE",
"30 700 LINE",
"30 682 LINE",
"58 672 OFFCURVE",
"85 665 OFFCURVE",
"110 660 CURVE",
"110 38 LINE",
"85 33 OFFCURVE",
"59 26 OFFCURVE",
"31 17 CURVE",
"31 0 LINE"
);
},
{
closed = 1;
nodes = (
"502 879 LINE SMOOTH",
"534 898 OFFCURVE",
"552 916 OFFCURVE",
"552 940 CURVE SMOOTH",
"552 959 OFFCURVE",
"537 982 OFFCURVE",
"503 982 CURVE SMOOTH",
"469 982 OFFCURVE",
"445 954 OFFCURVE",
"439 947 CURVE",
"317 821 LINE",
"342 786 LINE"
);
}
);
width = 786;
}
);
note = Nacute;
unicode = 0143;
},
{
glyphname = Ncaron;
lastChange = "2015-11-29 15:09:34 +0000";
layers = (
{
layerId = "956CC02E-6E79-4121-A7B2-01E3BBD48F66";
name = Bold;
paths = (
{
closed = 1;
nodes = (
"251 0 LINE",
"251 17 LINE",
"223 26 OFFCURVE",
"198 33 OFFCURVE",
"172 38 CURVE",
"172 621 LINE",
"597 0 LINE",
"677 0 LINE",
"677 661 LINE",
"702 667 OFFCURVE",
"727 673 OFFCURVE",
"756 682 CURVE",
"756 700 LINE",
"535 700 LINE",
"535 682 LINE",
"564 673 OFFCURVE",
"589 667 OFFCURVE",
"614 661 CURVE",
"614 189 LINE",
"267 700 LINE",
"30 700 LINE",
"30 682 LINE",
"58 672 OFFCURVE",
"85 665 OFFCURVE",
"110 660 CURVE",
"110 38 LINE",
"85 33 OFFCURVE",
"59 26 OFFCURVE",
"31 17 CURVE",
"31 0 LINE"
);
},
{
closed = 1;
nodes = (
"365 786 OFFCURVE",
"419 786 OFFCURVE",
"428 786 CURVE",
"452 822 OFFCURVE",
"539 900 OFFCURVE",
"583 929 CURVE",
"521 974 LINE",
"479 942 OFFCURVE",
"418 882 OFFCURVE",
"394 846 CURVE",
"393 846 OFFCURVE",
"391 846 OFFCURVE",
"390 846 CURVE",
"367 882 OFFCURVE",
"305 942 OFFCURVE",
"264 974 CURVE",
"201 929 LINE",
"246 900 OFFCURVE",
"332 822 OFFCURVE",
"356 786 CURVE"
);
}
);
width = 786;
}
);
note = Ncaron;
unicode = 0147;
},
{
glyphname = Ncommaaccent;
lastChange = "2015-11-29 15:09:35 +0000";
layers = (
{
layerId = "956CC02E-6E79-4121-A7B2-01E3BBD48F66";
name = Bold;
paths = (
{
closed = 1;
nodes = (
"251 0 LINE",
"251 17 LINE",
"223 26 OFFCURVE",
"198 33 OFFCURVE",
"172 38 CURVE",
"172 621 LINE",
"597 0 LINE",
"677 0 LINE",
"677 661 LINE",
"702 667 OFFCURVE",
"727 673 OFFCURVE",
"756 682 CURVE",
"756 700 LINE",
"535 700 LINE",
"535 682 LINE",
"564 673 OFFCURVE",
"589 667 OFFCURVE",
"614 661 CURVE",
"614 189 LINE",
"267 700 LINE",
"30 700 LINE",
"30 682 LINE",
"58 672 OFFCURVE",
"85 665 OFFCURVE",
"110 660 CURVE",
"110 38 LINE",
"85 33 OFFCURVE",
"59 26 OFFCURVE",
"31 17 CURVE",
"31 0 LINE"
);
},
{
closed = 1;
nodes = (
"434 -319 OFFCURVE",
"477 -235 OFFCURVE",
"477 -159 CURVE SMOOTH",
"477 -117 OFFCURVE",
"453 -81 OFFCURVE",
"399 -81 CURVE SMOOTH",
"360 -81 OFFCURVE",
"325 -106 OFFCURVE",
"325 -148 CURVE SMOOTH",
"325 -188 OFFCURVE",
"356 -215 OFFCURVE",
"397 -217 CURVE",
"390 -261 OFFCURVE",
"355 -306 OFFCURVE",
"330 -332 CURVE",
"378 -368 LINE"
);
}
);
width = 786;
}
);
note = Ncommaaccent;
unicode = 0145;
},
{
glyphname = Ndotaccent;
lastChange = "2015-11-29 15:09:34 +0000";
layers = (
{
layerId = "956CC02E-6E79-4121-A7B2-01E3BBD48F66";
name = Bold;
paths = (
{
closed = 1;
nodes = (
"251 0 LINE",
"251 17 LINE",
"223 26 OFFCURVE",
"198 33 OFFCURVE",
"172 38 CURVE",
"172 621 LINE",
"597 0 LINE",
"677 0 LINE",
"677 661 LINE",
"702 667 OFFCURVE",
"727 673 OFFCURVE",
"756 682 CURVE",
"756 700 LINE",
"535 700 LINE",
"535 682 LINE",
"564 673 OFFCURVE",
"589 667 OFFCURVE",
"614 661 CURVE",
"614 189 LINE",
"267 700 LINE",
"30 700 LINE",
"30 682 LINE",
"58 672 OFFCURVE",
"85 665 OFFCURVE",
"110 660 CURVE",
"110 38 LINE",
"85 33 OFFCURVE",
"59 26 OFFCURVE",
"31 17 CURVE",
"31 0 LINE"
);
},
{
closed = 1;
nodes = (
"431 785 OFFCURVE",
"455 812 OFFCURVE",
"455 847 CURVE SMOOTH",
"455 882 OFFCURVE",
"431 909 OFFCURVE",
"394 909 CURVE SMOOTH",
"356 909 OFFCURVE",
"333 882 OFFCURVE",
"333 847 CURVE SMOOTH",
"333 812 OFFCURVE",
"356 785 OFFCURVE",
"394 785 CURVE SMOOTH"
);
}
);
width = 786;
}
);
note = Ndotaccent;
unicode = 1E44;
},
{
glyphname = Ndotbelow;
lastChange = "2015-11-29 15:09:36 +0000";
layers = (
{
layerId = "956CC02E-6E79-4121-A7B2-01E3BBD48F66";
name = Bold;
paths = (
{
closed = 1;
nodes = (
"251 0 LINE",
"251 17 LINE",
"223 26 OFFCURVE",
"198 33 OFFCURVE",
"172 38 CURVE",
"172 621 LINE",
"597 0 LINE",
"677 0 LINE",
"677 661 LINE",
"702 667 OFFCURVE",
"727 673 OFFCURVE",
"756 682 CURVE",
"756 700 LINE",
"535 700 LINE",
"535 682 LINE",
"564 673 OFFCURVE",
"589 667 OFFCURVE",
"614 661 CURVE",
"614 189 LINE",
"267 700 LINE",
"30 700 LINE",
"30 682 LINE",
"58 672 OFFCURVE",
"85 665 OFFCURVE",
"110 660 CURVE",
"110 38 LINE",
"85 33 OFFCURVE",
"59 26 OFFCURVE",
"31 17 CURVE",
"31 0 LINE"
);
},
{
closed = 1;
nodes = (
"426 -178 OFFCURVE",
"450 -151 OFFCURVE",
"450 -116 CURVE SMOOTH",
"450 -81 OFFCURVE",
"426 -54 OFFCURVE",
"388 -54 CURVE SMOOTH",
"351 -54 OFFCURVE",
"327 -81 OFFCURVE",
"327 -116 CURVE SMOOTH",
"327 -151 OFFCURVE",
"351 -178 OFFCURVE",
"388 -178 CURVE SMOOTH"
);
}
);
width = 786;
}
);
note = uni1E46;
unicode = 1E46;
},
{
glyphname = Eng;
lastChange = "2015-11-29 15:09:30 +0000";
layers = (
{
layerId = "956CC02E-6E79-4121-A7B2-01E3BBD48F66";
name = Bold;
paths = (
{
closed = 1;
nodes = (
"611 -250 OFFCURVE",
"677 -207 OFFCURVE",
"677 -103 CURVE SMOOTH",
"677 661 LINE",
"702 667 OFFCURVE",
"727 673 OFFCURVE",
"756 682 CURVE",
"756 700 LINE",
"535 700 LINE",
"535 682 LINE",
"564 673 OFFCURVE",
"589 667 OFFCURVE",
"614 661 CURVE",
"614 189 LINE",
"267 700 LINE",
"30 700 LINE",
"30 682 LINE",
"58 672 OFFCURVE",
"85 665 OFFCURVE",
"110 660 CURVE",
"110 38 LINE",
"85 33 OFFCURVE",
"59 26 OFFCURVE",
"31 17 CURVE",
"31 0 LINE",
"251 0 LINE",
"251 17 LINE",
"223 26 OFFCURVE",
"198 33 OFFCURVE",
"172 38 CURVE",
"172 621 LINE",
"615 -4 LINE",
"615 -106 LINE SMOOTH",
"615 -173 OFFCURVE",
"558 -197 OFFCURVE",
"497 -197 CURVE SMOOTH",
"463 -197 OFFCURVE",
"431 -191 OFFCURVE",
"407 -182 CURVE",
"398 -222 LINE",
"436 -239 OFFCURVE",
"478 -250 OFFCURVE",
"523 -250 CURVE SMOOTH"
);
}
);
width = 786;
}
);
note = Eng;
unicode = 014A;
},
{
glyphname = Nlinebelow;
lastChange = "2015-11-29 15:09:36 +0000";
layers = (
{
layerId = "956CC02E-6E79-4121-A7B2-01E3BBD48F66";
name = Bold;
paths = (
{
closed = 1;
nodes = (
"251 0 LINE",
"251 17 LINE",
"223 26 OFFCURVE",
"198 33 OFFCURVE",
"172 38 CURVE",
"172 621 LINE",
"597 0 LINE",
"677 0 LINE",
"677 661 LINE",
"702 667 OFFCURVE",
"727 673 OFFCURVE",
"756 682 CURVE",
"756 700 LINE",
"535 700 LINE",
"535 682 LINE",
"564 673 OFFCURVE",
"589 667 OFFCURVE",
"614 661 CURVE",
"614 189 LINE",
"267 700 LINE",
"30 700 LINE",
"30 682 LINE",
"58 672 OFFCURVE",
"85 665 OFFCURVE",
"110 660 CURVE",
"110 38 LINE",
"85 33 OFFCURVE",
"59 26 OFFCURVE",
"31 17 CURVE",
"31 0 LINE"
);
},
{
closed = 1;
nodes = (
"589 -109 LINE",
"589 -61 LINE",
"199 -61 LINE",
"199 -109 LINE"
);
}
);
width = 786;
}
);
note = Nlinebelow;
unicode = 1E48;
},
{
glyphname = Ntilde;
lastChange = "2015-11-29 15:09:34 +0000";
layers = (
{
layerId = "956CC02E-6E79-4121-A7B2-01E3BBD48F66";
name = Bold;
paths = (
{
closed = 1;
nodes = (
"251 0 LINE",
"251 17 LINE",
"223 26 OFFCURVE",
"198 33 OFFCURVE",
"172 38 CURVE",
"172 621 LINE",
"597 0 LINE",
"677 0 LINE",
"677 661 LINE",
"702 667 OFFCURVE",
"727 673 OFFCURVE",
"756 682 CURVE",
"756 700 LINE",
"535 700 LINE",
"535 682 LINE",
"564 673 OFFCURVE",
"589 667 OFFCURVE",
"614 661 CURVE",
"614 189 LINE",
"267 700 LINE",
"30 700 LINE",
"30 682 LINE",
"58 672 OFFCURVE",
"85 665 OFFCURVE",
"110 660 CURVE",
"110 38 LINE",
"85 33 OFFCURVE",
"59 26 OFFCURVE",
"31 17 CURVE",
"31 0 LINE"
);
},
{
closed = 1;
nodes = (
"266 786 LINE",
"272 818 OFFCURVE",
"293 839 OFFCURVE",
"323 839 CURVE SMOOTH",
"359 839 OFFCURVE",
"422 786 OFFCURVE",
"481 786 CURVE SMOOTH",
"558 786 OFFCURVE",
"595 834 OFFCURVE",
"602 905 CURVE",
"537 905 LINE",
"526 859 OFFCURVE",
"501 851 OFFCURVE",
"476 851 CURVE SMOOTH",
"435 851 OFFCURVE",
"393 903 OFFCURVE",
"321 903 CURVE SMOOTH",
"253 903 OFFCURVE",
"210 863 OFFCURVE",
"199 786 CURVE"
);
}
);
width = 786;
}
);
note = Ntilde;
unicode = 00D1;
},
{
glyphname = O;
lastChange = "2015-11-29 15:09:34 +0000";
layers = (
{
layerId = "956CC02E-6E79-4121-A7B2-01E3BBD48F66";
name = Bold;
paths = (
{
closed = 1;
nodes = (
"609 -10 OFFCURVE",
"732 127 OFFCURVE",
"732 350 CURVE SMOOTH",
"732 572 OFFCURVE",
"609 710 OFFCURVE",
"383 710 CURVE SMOOTH",
"156 710 OFFCURVE",
"34 572 OFFCURVE",
"34 350 CURVE SMOOTH",
"34 127 OFFCURVE",
"156 -10 OFFCURVE",
"383 -10 CURVE SMOOTH"
);
},
{
closed = 1;
nodes = (
"252 42 OFFCURVE",
"193 171 OFFCURVE",
"193 350 CURVE SMOOTH",
"193 528 OFFCURVE",
"252 658 OFFCURVE",
"383 658 CURVE SMOOTH",
"513 658 OFFCURVE",
"573 528 OFFCURVE",
"573 350 CURVE SMOOTH",
"573 171 OFFCURVE",
"513 42 OFFCURVE",
"383 42 CURVE SMOOTH"
);
}
);
width = 766;
}
);
leftKerningGroup = O;
note = O;
rightKerningGroup = O;
unicode = 004F;
},
{
glyphname = Oacute;
lastChange = "2015-11-29 15:09:36 +0000";
layers = (
{
layerId = "956CC02E-6E79-4121-A7B2-01E3BBD48F66";
name = Bold;
paths = (
{
closed = 1;
nodes = (
"609 -10 OFFCURVE",
"732 127 OFFCURVE",
"732 350 CURVE SMOOTH",
"732 572 OFFCURVE",
"609 710 OFFCURVE",
"383 710 CURVE SMOOTH",
"156 710 OFFCURVE",
"34 572 OFFCURVE",
"34 350 CURVE SMOOTH",
"34 127 OFFCURVE",
"156 -10 OFFCURVE",
"383 -10 CURVE SMOOTH"
);
},
{
closed = 1;
nodes = (
"252 42 OFFCURVE",
"193 171 OFFCURVE",
"193 350 CURVE SMOOTH",
"193 528 OFFCURVE",
"252 658 OFFCURVE",
"383 658 CURVE SMOOTH",
"513 658 OFFCURVE",
"573 528 OFFCURVE",
"573 350 CURVE SMOOTH",
"573 171 OFFCURVE",
"513 42 OFFCURVE",
"383 42 CURVE SMOOTH"
);
},
{
closed = 1;
nodes = (
"457 879 LINE SMOOTH",
"489 898 OFFCURVE",
"507 916 OFFCURVE",
"507 940 CURVE SMOOTH",
"507 959 OFFCURVE",
"492 982 OFFCURVE",
"458 982 CURVE SMOOTH",
"424 982 OFFCURVE",
"400 954 OFFCURVE",
"394 947 CURVE",
"272 821 LINE",
"297 786 LINE"
);
}
);
width = 766;
}
);
leftKerningGroup = O;
note = Oacute;
rightKerningGroup = O;
unicode = 00D3;
},
{
glyphname = Obreve;
lastChange = "2015-11-29 15:09:36 +0000";
layers = (
{
layerId = "956CC02E-6E79-4121-A7B2-01E3BBD48F66";
name = Bold;
paths = (
{
closed = 1;
nodes = (
"609 -10 OFFCURVE",
"732 127 OFFCURVE",
"732 350 CURVE SMOOTH",
"732 572 OFFCURVE",
"609 710 OFFCURVE",
"383 710 CURVE SMOOTH",
"156 710 OFFCURVE",
"34 572 OFFCURVE",
"34 350 CURVE SMOOTH",
"34 127 OFFCURVE",
"156 -10 OFFCURVE",
"383 -10 CURVE SMOOTH"
);
},
{
closed = 1;
nodes = (
"252 42 OFFCURVE",
"193 171 OFFCURVE",
"193 350 CURVE SMOOTH",
"193 528 OFFCURVE",
"252 658 OFFCURVE",
"383 658 CURVE SMOOTH",
"513 658 OFFCURVE",
"573 528 OFFCURVE",
"573 350 CURVE SMOOTH",
"573 171 OFFCURVE",
"513 42 OFFCURVE",
"383 42 CURVE SMOOTH"
);
},
{
closed = 1;
nodes = (
"481 781 OFFCURVE",
"549 824 OFFCURVE",
"564 915 CURVE",
"478 915 LINE",
"470 842 OFFCURVE",
"424 833 OFFCURVE",
"383 833 CURVE SMOOTH",
"342 833 OFFCURVE",
"295 842 OFFCURVE",
"288 915 CURVE",
"202 915 LINE",
"217 824 OFFCURVE",
"285 781 OFFCURVE",
"383 781 CURVE SMOOTH"
);
}
);
width = 766;
}
);
leftKerningGroup = O;
note = Obreve;
rightKerningGroup = O;
unicode = 014E;
},
{
glyphname = Ocaron;
lastChange = "2015-11-29 15:09:36 +0000";
layers = (
{
layerId = "956CC02E-6E79-4121-A7B2-01E3BBD48F66";
name = Bold;
paths = (
{
closed = 1;
nodes = (
"609 -10 OFFCURVE",
"732 127 OFFCURVE",
"732 350 CURVE SMOOTH",
"732 572 OFFCURVE",
"609 710 OFFCURVE",
"383 710 CURVE SMOOTH",
"156 710 OFFCURVE",
"34 572 OFFCURVE",
"34 350 CURVE SMOOTH",
"34 127 OFFCURVE",
"156 -10 OFFCURVE",
"383 -10 CURVE SMOOTH"
);
},
{
closed = 1;
nodes = (
"252 42 OFFCURVE",
"193 171 OFFCURVE",
"193 350 CURVE SMOOTH",
"193 528 OFFCURVE",
"252 658 OFFCURVE",
"383 658 CURVE SMOOTH",
"513 658 OFFCURVE",
"573 528 OFFCURVE",
"573 350 CURVE SMOOTH",
"573 171 OFFCURVE",
"513 42 OFFCURVE",
"383 42 CURVE SMOOTH"
);
},
{
closed = 1;
nodes = (
"356 786 OFFCURVE",
"410 786 OFFCURVE",
"419 786 CURVE",
"443 822 OFFCURVE",
"530 900 OFFCURVE",
"574 929 CURVE",
"512 974 LINE",
"470 942 OFFCURVE",
"409 882 OFFCURVE",
"385 846 CURVE",
"384 846 OFFCURVE",
"382 846 OFFCURVE",
"381 846 CURVE",
"358 882 OFFCURVE",
"296 942 OFFCURVE",
"255 974 CURVE",
"192 929 LINE",
"237 900 OFFCURVE",
"323 822 OFFCURVE",
"347 786 CURVE"
);
}
);
width = 766;
}
);
leftKerningGroup = O;
note = Ocaron;
rightKerningGroup = O;
unicode = 01D1;
},
{
glyphname = Ocircumflex;
lastChange = "2015-11-29 15:09:34 +0000";
layers = (
{
layerId = "956CC02E-6E79-4121-A7B2-01E3BBD48F66";
name = Bold;
paths = (
{
closed = 1;
nodes = (
"609 -10 OFFCURVE",
"732 127 OFFCURVE",
"732 350 CURVE SMOOTH",
"732 572 OFFCURVE",
"609 710 OFFCURVE",
"383 710 CURVE SMOOTH",
"156 710 OFFCURVE",
"34 572 OFFCURVE",
"34 350 CURVE SMOOTH",
"34 127 OFFCURVE",
"156 -10 OFFCURVE",
"383 -10 CURVE SMOOTH"
);
},
{
closed = 1;
nodes = (
"252 42 OFFCURVE",
"193 171 OFFCURVE",
"193 350 CURVE SMOOTH",
"193 528 OFFCURVE",
"252 658 OFFCURVE",
"383 658 CURVE SMOOTH",
"513 658 OFFCURVE",
"573 528 OFFCURVE",
"573 350 CURVE SMOOTH",
"573 171 OFFCURVE",
"513 42 OFFCURVE",
"383 42 CURVE SMOOTH"
);
},
{
closed = 1;
nodes = (
"295 816 OFFCURVE",
"357 876 OFFCURVE",
"380 912 CURVE",
"381 912 OFFCURVE",
"383 912 OFFCURVE",
"384 912 CURVE",
"408 876 OFFCURVE",
"469 816 OFFCURVE",
"511 783 CURVE",
"573 829 LINE",
"529 857 OFFCURVE",
"442 936 OFFCURVE",
"418 972 CURVE",
"409 972 OFFCURVE",
"355 972 OFFCURVE",
"346 972 CURVE",
"322 936 OFFCURVE",
"236 857 OFFCURVE",
"191 829 CURVE",
"254 783 LINE"
);
}
);
width = 766;
}
);
leftKerningGroup = O;
note = Ocircumflex;
rightKerningGroup = O;
unicode = 00D4;
},
{
glyphname = Ocircumflexacute;
lastChange = "2015-11-29 15:09:34 +0000";
layers = (
{
layerId = "956CC02E-6E79-4121-A7B2-01E3BBD48F66";
name = Bold;
paths = (
{
closed = 1;
nodes = (
"609 -10 OFFCURVE",
"732 127 OFFCURVE",
"732 350 CURVE SMOOTH",
"732 572 OFFCURVE",
"609 710 OFFCURVE",
"383 710 CURVE SMOOTH",
"156 710 OFFCURVE",
"34 572 OFFCURVE",
"34 350 CURVE SMOOTH",
"34 127 OFFCURVE",
"156 -10 OFFCURVE",
"383 -10 CURVE SMOOTH"
);
},
{
closed = 1;
nodes = (
"252 42 OFFCURVE",
"193 171 OFFCURVE",
"193 350 CURVE SMOOTH",
"193 528 OFFCURVE",
"252 658 OFFCURVE",
"383 658 CURVE SMOOTH",
"513 658 OFFCURVE",
"573 528 OFFCURVE",
"573 350 CURVE SMOOTH",
"573 171 OFFCURVE",
"513 42 OFFCURVE",
"383 42 CURVE SMOOTH"
);
},
{
closed = 1;
nodes = (
"295 816 OFFCURVE",
"356 876 OFFCURVE",
"380 912 CURVE",
"384 912 LINE",
"408 876 OFFCURVE",
"469 816 OFFCURVE",
"510 783 CURVE",
"573 829 LINE",
"529 857 OFFCURVE",
"442 936 OFFCURVE",
"418 972 CURVE",
"346 972 LINE",
"322 936 OFFCURVE",
"235 857 OFFCURVE",
"191 829 CURVE",
"254 783 LINE"
);
},
{
closed = 1;
nodes = (
"632 976 LINE SMOOTH",
"672 996 OFFCURVE",
"694 1021 OFFCURVE",
"694 1045 CURVE SMOOTH",
"694 1064 OFFCURVE",
"679 1085 OFFCURVE",
"649 1085 CURVE SMOOTH",
"623 1085 OFFCURVE",
"598 1066 OFFCURVE",
"576 1041 CURVE SMOOTH",
"501 953 LINE",
"525 922 LINE"
);
}
);
width = 766;
}
);
leftKerningGroup = O;
note = Ocircumflexacute;
rightKerningGroup = O;
unicode = 1ED0;
},
{
glyphname = Ocircumflexdotbelow;
lastChange = "2015-11-29 15:17:41 +0000";
layers = (
{
layerId = "956CC02E-6E79-4121-A7B2-01E3BBD48F66";
name = Bold;
paths = (
{
closed = 1;
nodes = (
"34 127 OFFCURVE",
"156 -10 OFFCURVE",
"383 -10 CURVE SMOOTH",
"609 -10 OFFCURVE",
"732 127 OFFCURVE",
"732 350 CURVE SMOOTH",
"732 572 OFFCURVE",
"609 710 OFFCURVE",
"383 710 CURVE SMOOTH",
"156 710 OFFCURVE",
"34 572 OFFCURVE",
"34 350 CURVE SMOOTH"
);
},
{
closed = 1;
nodes = (
"193 528 OFFCURVE",
"252 658 OFFCURVE",
"383 658 CURVE SMOOTH",
"513 658 OFFCURVE",
"573 528 OFFCURVE",
"573 350 CURVE SMOOTH",
"573 171 OFFCURVE",
"513 42 OFFCURVE",
"383 42 CURVE SMOOTH",
"252 42 OFFCURVE",
"193 171 OFFCURVE",
"193 350 CURVE SMOOTH"
);
},
{
closed = 1;
nodes = (
"254 783 LINE",
"295 816 OFFCURVE",
"357 876 OFFCURVE",
"380 912 CURVE",
"384 912 LINE",
"408 876 OFFCURVE",
"469 816 OFFCURVE",
"511 783 CURVE",
"573 829 LINE",
"529 857 OFFCURVE",
"442 936 OFFCURVE",
"418 972 CURVE",
"346 972 LINE",
"322 936 OFFCURVE",
"236 857 OFFCURVE",
"191 829 CURVE"
);
},
{
closed = 1;
nodes = (
"321 -151 OFFCURVE",
"345 -178 OFFCURVE",
"382 -178 CURVE SMOOTH",
"420 -178 OFFCURVE",
"444 -151 OFFCURVE",
"444 -116 CURVE SMOOTH",
"444 -81 OFFCURVE",
"420 -54 OFFCURVE",
"382 -54 CURVE SMOOTH",
"345 -54 OFFCURVE",
"321 -81 OFFCURVE",
"321 -116 CURVE SMOOTH"
);
}
);
width = 766;
}
);
leftKerningGroup = O;
note = Ocircumflexdotbelow;
rightKerningGroup = O;
unicode = 1ED8;
},
{
glyphname = Ocircumflexgrave;
lastChange = "2015-11-29 15:09:35 +0000";
layers = (
{
layerId = "956CC02E-6E79-4121-A7B2-01E3BBD48F66";
name = Bold;
paths = (
{
closed = 1;
nodes = (
"609 -10 OFFCURVE",
"732 127 OFFCURVE",
"732 350 CURVE SMOOTH",
"732 572 OFFCURVE",
"609 710 OFFCURVE",
"383 710 CURVE SMOOTH",
"156 710 OFFCURVE",
"34 572 OFFCURVE",
"34 350 CURVE SMOOTH",
"34 127 OFFCURVE",
"156 -10 OFFCURVE",
"383 -10 CURVE SMOOTH"
);
},
{
closed = 1;
nodes = (
"252 42 OFFCURVE",
"193 171 OFFCURVE",
"193 350 CURVE SMOOTH",
"193 528 OFFCURVE",
"252 658 OFFCURVE",
"383 658 CURVE SMOOTH",
"513 658 OFFCURVE",
"573 528 OFFCURVE",
"573 350 CURVE SMOOTH",
"573 171 OFFCURVE",
"513 42 OFFCURVE",
"383 42 CURVE SMOOTH"
);
},
{
closed = 1;
nodes = (
"263 953 LINE",
"188 1041 LINE SMOOTH",
"166 1066 OFFCURVE",
"141 1085 OFFCURVE",
"115 1085 CURVE SMOOTH",
"85 1085 OFFCURVE",
"70 1064 OFFCURVE",
"70 1045 CURVE SMOOTH",
"70 1021 OFFCURVE",
"92 996 OFFCURVE",
"132 976 CURVE SMOOTH",
"239 922 LINE"
);
},
{
closed = 1;
nodes = (
"295 816 OFFCURVE",
"356 876 OFFCURVE",
"380 912 CURVE",
"384 912 LINE",
"408 876 OFFCURVE",
"469 816 OFFCURVE",
"510 783 CURVE",
"573 829 LINE",
"529 857 OFFCURVE",
"442 936 OFFCURVE",
"418 972 CURVE",
"346 972 LINE",
"322 936 OFFCURVE",
"235 857 OFFCURVE",
"191 829 CURVE",
"254 783 LINE"
);
}
);
width = 766;
}
);
leftKerningGroup = O;
note = Ocircumflexgrave;
rightKerningGroup = O;
unicode = 1ED2;
},
{
glyphname = Ocircumflexhookabove;
lastChange = "2015-11-29 15:09:36 +0000";
layers = (
{
layerId = "956CC02E-6E79-4121-A7B2-01E3BBD48F66";
name = Bold;
paths = (
{
closed = 1;
nodes = (
"609 -10 OFFCURVE",
"732 127 OFFCURVE",
"732 350 CURVE SMOOTH",
"732 572 OFFCURVE",
"609 710 OFFCURVE",
"383 710 CURVE SMOOTH",
"156 710 OFFCURVE",
"34 572 OFFCURVE",
"34 350 CURVE SMOOTH",
"34 127 OFFCURVE",
"156 -10 OFFCURVE",
"383 -10 CURVE SMOOTH"
);
},
{
closed = 1;
nodes = (
"252 42 OFFCURVE",
"193 171 OFFCURVE",
"193 350 CURVE SMOOTH",
"193 528 OFFCURVE",
"252 658 OFFCURVE",
"383 658 CURVE SMOOTH",
"513 658 OFFCURVE",
"573 528 OFFCURVE",
"573 350 CURVE SMOOTH",
"573 171 OFFCURVE",
"513 42 OFFCURVE",
"383 42 CURVE SMOOTH"
);
},
{
closed = 1;
nodes = (
"295 818 OFFCURVE",
"356 878 OFFCURVE",
"380 914 CURVE",
"384 914 LINE",
"408 878 OFFCURVE",
"469 818 OFFCURVE",
"510 785 CURVE",
"573 831 LINE",
"529 859 OFFCURVE",
"442 938 OFFCURVE",
"418 974 CURVE",
"346 974 LINE",
"322 938 OFFCURVE",
"235 859 OFFCURVE",
"191 831 CURVE",
"254 785 LINE"
);
},
{
closed = 1;
nodes = (
"557 935 LINE",
"566 983 LINE",
"613 987 OFFCURVE",
"649 1005 OFFCURVE",
"649 1058 CURVE SMOOTH",
"649 1116 OFFCURVE",
"596 1138 OFFCURVE",
"543 1138 CURVE SMOOTH",
"514 1138 OFFCURVE",
"486 1131 OFFCURVE",
"468 1123 CURVE",
"474 1087 LINE",
"491 1095 OFFCURVE",
"512 1099 OFFCURVE",
"528 1099 CURVE SMOOTH",
"564 1099 OFFCURVE",
"582 1081 OFFCURVE",
"582 1059 CURVE SMOOTH",
"582 1026 OFFCURVE",
"556 1014 OFFCURVE",
"531 1014 CURVE SMOOTH",
"498 1014 LINE",
"502 935 LINE"
);
}
);
width = 766;
}
);
leftKerningGroup = O;
note = Ocircumflexhookabove;
rightKerningGroup = O;
unicode = 1ED4;
},
{
glyphname = Ocircumflextilde;
lastChange = "2015-11-29 15:09:36 +0000";
layers = (
{
layerId = "956CC02E-6E79-4121-A7B2-01E3BBD48F66";
name = Bold;
paths = (
{
closed = 1;
nodes = (
"609 -10 OFFCURVE",
"732 127 OFFCURVE",
"732 350 CURVE SMOOTH",
"732 572 OFFCURVE",
"609 710 OFFCURVE",
"383 710 CURVE SMOOTH",
"156 710 OFFCURVE",
"34 572 OFFCURVE",
"34 350 CURVE SMOOTH",
"34 127 OFFCURVE",
"156 -10 OFFCURVE",
"383 -10 CURVE SMOOTH"
);
},
{
closed = 1;
nodes = (
"252 42 OFFCURVE",
"193 171 OFFCURVE",
"193 350 CURVE SMOOTH",
"193 528 OFFCURVE",
"252 658 OFFCURVE",
"383 658 CURVE SMOOTH",
"513 658 OFFCURVE",
"573 528 OFFCURVE",
"573 350 CURVE SMOOTH",
"573 171 OFFCURVE",
"513 42 OFFCURVE",
"383 42 CURVE SMOOTH"
);
},
{
closed = 1;
nodes = (
"295 816 OFFCURVE",
"356 876 OFFCURVE",
"380 912 CURVE",
"384 912 LINE",
"408 876 OFFCURVE",
"469 816 OFFCURVE",
"510 783 CURVE",
"573 829 LINE",
"529 857 OFFCURVE",
"442 936 OFFCURVE",
"418 972 CURVE",
"346 972 LINE",
"322 936 OFFCURVE",
"235 857 OFFCURVE",
"191 829 CURVE",
"254 783 LINE"
);
},
{
closed = 1;
nodes = (
"252 1004 LINE",
"258 1036 OFFCURVE",
"283 1056 OFFCURVE",
"315 1056 CURVE SMOOTH",
"360 1056 OFFCURVE",
"400 1005 OFFCURVE",
"458 1005 CURVE SMOOTH",
"533 1005 OFFCURVE",
"570 1051 OFFCURVE",
"578 1121 CURVE",
"527 1121 LINE",
"516 1076 OFFCURVE",
"481 1067 OFFCURVE",
"457 1067 CURVE SMOOTH",
"417 1067 OFFCURVE",
"389 1118 OFFCURVE",
"319 1118 CURVE SMOOTH",
"252 1118 OFFCURVE",
"210 1080 OFFCURVE",
"200 1004 CURVE"
);
}
);
width = 766;
}
);
leftKerningGroup = O;
note = Ocircumflextilde;
rightKerningGroup = O;
unicode = 1ED6;
},
{
glyphname = Odieresis;
lastChange = "2015-11-29 15:09:35 +0000";
layers = (
{
layerId = "956CC02E-6E79-4121-A7B2-01E3BBD48F66";
name = Bold;
paths = (
{
closed = 1;
nodes = (
"609 -10 OFFCURVE",
"732 127 OFFCURVE",
"732 350 CURVE SMOOTH",
"732 572 OFFCURVE",
"609 710 OFFCURVE",
"383 710 CURVE SMOOTH",
"156 710 OFFCURVE",
"34 572 OFFCURVE",
"34 350 CURVE SMOOTH",
"34 127 OFFCURVE",
"156 -10 OFFCURVE",
"383 -10 CURVE SMOOTH"
);
},
{
closed = 1;
nodes = (
"252 42 OFFCURVE",
"193 171 OFFCURVE",
"193 350 CURVE SMOOTH",
"193 528 OFFCURVE",
"252 658 OFFCURVE",
"383 658 CURVE SMOOTH",
"513 658 OFFCURVE",
"573 528 OFFCURVE",
"573 350 CURVE SMOOTH",
"573 171 OFFCURVE",
"513 42 OFFCURVE",
"383 42 CURVE SMOOTH"
);
},
{
closed = 1;
nodes = (
"300 785 OFFCURVE",
"324 812 OFFCURVE",
"324 847 CURVE SMOOTH",
"324 882 OFFCURVE",
"300 909 OFFCURVE",
"262 909 CURVE SMOOTH",
"225 909 OFFCURVE",
"201 882 OFFCURVE",
"201 847 CURVE SMOOTH",
"201 812 OFFCURVE",
"225 785 OFFCURVE",
"262 785 CURVE SMOOTH"
);
},
{
closed = 1;
nodes = (
"540 785 OFFCURVE",
"564 812 OFFCURVE",
"564 847 CURVE SMOOTH",
"564 882 OFFCURVE",
"540 909 OFFCURVE",
"502 909 CURVE SMOOTH",
"464 909 OFFCURVE",
"441 882 OFFCURVE",
"441 847 CURVE SMOOTH",
"441 812 OFFCURVE",
"464 785 OFFCURVE",
"502 785 CURVE SMOOTH"
);
}
);
width = 766;
}
);
leftKerningGroup = O;
note = Odieresis;
rightKerningGroup = O;
unicode = 00D6;
},
{
glyphname = Odotbelow;
lastChange = "2015-11-29 15:17:44 +0000";
layers = (
{
layerId = "956CC02E-6E79-4121-A7B2-01E3BBD48F66";
name = Bold;
paths = (
{
closed = 1;
nodes = (
"34 127 OFFCURVE",
"156 -10 OFFCURVE",
"383 -10 CURVE SMOOTH",
"609 -10 OFFCURVE",
"732 127 OFFCURVE",
"732 350 CURVE SMOOTH",
"732 572 OFFCURVE",
"609 710 OFFCURVE",
"383 710 CURVE SMOOTH",
"156 710 OFFCURVE",
"34 572 OFFCURVE",
"34 350 CURVE SMOOTH"
);
},
{
closed = 1;
nodes = (
"193 528 OFFCURVE",
"252 658 OFFCURVE",
"383 658 CURVE SMOOTH",
"513 658 OFFCURVE",
"573 528 OFFCURVE",
"573 350 CURVE SMOOTH",
"573 171 OFFCURVE",
"513 42 OFFCURVE",
"383 42 CURVE SMOOTH",
"252 42 OFFCURVE",
"193 171 OFFCURVE",
"193 350 CURVE SMOOTH"
);
},
{
closed = 1;
nodes = (
"321 -151 OFFCURVE",
"345 -178 OFFCURVE",
"382 -178 CURVE SMOOTH",
"420 -178 OFFCURVE",
"444 -151 OFFCURVE",
"444 -116 CURVE SMOOTH",
"444 -81 OFFCURVE",
"420 -54 OFFCURVE",
"382 -54 CURVE SMOOTH",
"345 -54 OFFCURVE",
"321 -81 OFFCURVE",
"321 -116 CURVE SMOOTH"
);
}
);
width = 766;
}
);
leftKerningGroup = O;
note = Odotbelow;
rightKerningGroup = O;
unicode = 1ECC;
},
{
glyphname = Ograve;
lastChange = "2015-11-29 15:09:36 +0000";
layers = (
{
layerId = "956CC02E-6E79-4121-A7B2-01E3BBD48F66";
name = Bold;
paths = (
{
closed = 1;
nodes = (
"609 -10 OFFCURVE",
"732 127 OFFCURVE",
"732 350 CURVE SMOOTH",
"732 572 OFFCURVE",
"609 710 OFFCURVE",
"383 710 CURVE SMOOTH",
"156 710 OFFCURVE",
"34 572 OFFCURVE",
"34 350 CURVE SMOOTH",
"34 127 OFFCURVE",
"156 -10 OFFCURVE",
"383 -10 CURVE SMOOTH"
);
},
{
closed = 1;
nodes = (
"252 42 OFFCURVE",
"193 171 OFFCURVE",
"193 350 CURVE SMOOTH",
"193 528 OFFCURVE",
"252 658 OFFCURVE",
"383 658 CURVE SMOOTH",
"513 658 OFFCURVE",
"573 528 OFFCURVE",
"573 350 CURVE SMOOTH",
"573 171 OFFCURVE",
"513 42 OFFCURVE",
"383 42 CURVE SMOOTH"
);
},
{
closed = 1;
nodes = (
"492 821 LINE",
"369 948 LINE",
"363 955 OFFCURVE",
"339 982 OFFCURVE",
"306 982 CURVE SMOOTH",
"271 982 OFFCURVE",
"257 959 OFFCURVE",
"257 940 CURVE SMOOTH",
"257 916 OFFCURVE",
"275 898 OFFCURVE",
"307 879 CURVE SMOOTH",
"467 786 LINE"
);
}
);
width = 766;
}
);
leftKerningGroup = O;
note = Ograve;
rightKerningGroup = O;
unicode = 00D2;
},
{
glyphname = Ohookabove;
lastChange = "2015-11-29 15:09:34 +0000";
layers = (
{
layerId = "956CC02E-6E79-4121-A7B2-01E3BBD48F66";
name = Bold;
paths = (
{
closed = 1;
nodes = (
"609 -10 OFFCURVE",
"732 127 OFFCURVE",
"732 350 CURVE SMOOTH",
"732 572 OFFCURVE",
"609 710 OFFCURVE",
"383 710 CURVE SMOOTH",
"156 710 OFFCURVE",
"34 572 OFFCURVE",
"34 350 CURVE SMOOTH",
"34 127 OFFCURVE",
"156 -10 OFFCURVE",
"383 -10 CURVE SMOOTH"
);
},
{
closed = 1;
nodes = (
"252 42 OFFCURVE",
"193 171 OFFCURVE",
"193 350 CURVE SMOOTH",
"193 528 OFFCURVE",
"252 658 OFFCURVE",
"383 658 CURVE SMOOTH",
"513 658 OFFCURVE",
"573 528 OFFCURVE",
"573 350 CURVE SMOOTH",
"573 171 OFFCURVE",
"513 42 OFFCURVE",
"383 42 CURVE SMOOTH"
);
},
{
closed = 1;
nodes = (
"417 783 LINE",
"427 852 LINE",
"481 857 OFFCURVE",
"523 878 OFFCURVE",
"523 938 CURVE SMOOTH",
"523 1004 OFFCURVE",
"461 1029 OFFCURVE",
"401 1029 CURVE SMOOTH",
"368 1029 OFFCURVE",
"336 1021 OFFCURVE",
"315 1011 CURVE",
"322 972 LINE",
"343 984 OFFCURVE",
"366 988 OFFCURVE",
"384 988 CURVE SMOOTH",
"425 988 OFFCURVE",
"446 965 OFFCURVE",
"446 939 CURVE SMOOTH",
"446 901 OFFCURVE",
"416 887 OFFCURVE",
"388 887 CURVE SMOOTH",
"350 887 LINE",
"355 783 LINE"
);
}
);
width = 766;
}
);
leftKerningGroup = O;
note = Ohookabove;
rightKerningGroup = O;
unicode = 1ECE;
},
{
glyphname = Ohorn;
lastChange = "2015-11-29 15:09:36 +0000";
layers = (
{
layerId = "956CC02E-6E79-4121-A7B2-01E3BBD48F66";
name = Bold;
paths = (
{
closed = 1;
nodes = (
"609 -10 OFFCURVE",
"732 127 OFFCURVE",
"732 350 CURVE SMOOTH",
"732 572 OFFCURVE",
"609 710 OFFCURVE",
"383 710 CURVE SMOOTH",
"156 710 OFFCURVE",
"34 572 OFFCURVE",
"34 350 CURVE SMOOTH",
"34 127 OFFCURVE",
"156 -10 OFFCURVE",
"383 -10 CURVE SMOOTH"
);
},
{
closed = 1;
nodes = (
"252 42 OFFCURVE",
"193 171 OFFCURVE",
"193 350 CURVE SMOOTH",
"193 528 OFFCURVE",
"252 658 OFFCURVE",
"383 658 CURVE SMOOTH",
"513 658 OFFCURVE",
"573 528 OFFCURVE",
"573 350 CURVE SMOOTH",
"573 171 OFFCURVE",
"513 42 OFFCURVE",
"383 42 CURVE SMOOTH"
);
},
{
closed = 1;
nodes = (
"797 538 OFFCURVE",
"837 605 OFFCURVE",
"837 658 CURVE SMOOTH",
"837 688 OFFCURVE",
"831 741 OFFCURVE",
"758 741 CURVE SMOOTH",
"699 741 OFFCURVE",
"685 703 OFFCURVE",
"685 675 CURVE SMOOTH",
"685 636 OFFCURVE",
"709 612 OFFCURVE",
"746 612 CURVE SMOOTH",
"751 612 OFFCURVE",
"756 613 OFFCURVE",
"762 615 CURVE",
"750 566 OFFCURVE",
"687 519 OFFCURVE",
"664 503 CURVE",
"693 467 LINE"
);
}
);
width = 812;
}
);
leftKerningGroup = O;
note = Ohorn;
rightKerningGroup = O;
unicode = 01A0;
},
{
glyphname = Ohornacute;
lastChange = "2015-11-29 15:09:35 +0000";
layers = (
{
layerId = "956CC02E-6E79-4121-A7B2-01E3BBD48F66";
name = Bold;
paths = (
{
closed = 1;
nodes = (
"609 -10 OFFCURVE",
"732 127 OFFCURVE",
"732 350 CURVE SMOOTH",
"732 572 OFFCURVE",
"609 710 OFFCURVE",
"383 710 CURVE SMOOTH",
"156 710 OFFCURVE",
"34 572 OFFCURVE",
"34 350 CURVE SMOOTH",
"34 127 OFFCURVE",
"156 -10 OFFCURVE",
"383 -10 CURVE SMOOTH"
);
},
{
closed = 1;
nodes = (
"252 42 OFFCURVE",
"193 171 OFFCURVE",
"193 350 CURVE SMOOTH",
"193 528 OFFCURVE",
"252 658 OFFCURVE",
"383 658 CURVE SMOOTH",
"513 658 OFFCURVE",
"573 528 OFFCURVE",
"573 350 CURVE SMOOTH",
"573 171 OFFCURVE",
"513 42 OFFCURVE",
"383 42 CURVE SMOOTH"
);
},
{
closed = 1;
nodes = (
"458 878 LINE SMOOTH",
"490 897 OFFCURVE",
"508 915 OFFCURVE",
"508 939 CURVE SMOOTH",
"508 958 OFFCURVE",
"493 981 OFFCURVE",
"459 981 CURVE SMOOTH",
"425 981 OFFCURVE",
"401 953 OFFCURVE",
"395 946 CURVE",
"273 820 LINE",
"298 785 LINE"
);
},
{
closed = 1;
nodes = (
"797 538 OFFCURVE",
"837 605 OFFCURVE",
"837 658 CURVE SMOOTH",
"837 688 OFFCURVE",
"831 741 OFFCURVE",
"758 741 CURVE SMOOTH",
"699 741 OFFCURVE",
"685 703 OFFCURVE",
"685 675 CURVE SMOOTH",
"685 636 OFFCURVE",
"709 612 OFFCURVE",
"746 612 CURVE SMOOTH",
"751 612 OFFCURVE",
"756 613 OFFCURVE",
"762 615 CURVE",
"750 566 OFFCURVE",
"687 519 OFFCURVE",
"664 503 CURVE",
"693 467 LINE"
);
}
);
width = 812;
}
);
leftKerningGroup = O;
note = Ohornacute;
rightKerningGroup = O;
unicode = 1EDA;
},
{
glyphname = Ohorndotbelow;
lastChange = "2015-11-29 15:17:51 +0000";
layers = (
{
layerId = "956CC02E-6E79-4121-A7B2-01E3BBD48F66";
name = Bold;
paths = (
{
closed = 1;
nodes = (
"609 -10 OFFCURVE",
"732 127 OFFCURVE",
"732 350 CURVE SMOOTH",
"732 572 OFFCURVE",
"609 710 OFFCURVE",
"383 710 CURVE SMOOTH",
"156 710 OFFCURVE",
"34 572 OFFCURVE",
"34 350 CURVE SMOOTH",
"34 127 OFFCURVE",
"156 -10 OFFCURVE",
"383 -10 CURVE SMOOTH"
);
},
{
closed = 1;
nodes = (
"252 42 OFFCURVE",
"193 171 OFFCURVE",
"193 350 CURVE SMOOTH",
"193 528 OFFCURVE",
"252 658 OFFCURVE",
"383 658 CURVE SMOOTH",
"513 658 OFFCURVE",
"573 528 OFFCURVE",
"573 350 CURVE SMOOTH",
"573 171 OFFCURVE",
"513 42 OFFCURVE",
"383 42 CURVE SMOOTH"
);
},
{
closed = 1;
nodes = (
"797 538 OFFCURVE",
"837 605 OFFCURVE",
"837 658 CURVE SMOOTH",
"837 688 OFFCURVE",
"831 741 OFFCURVE",
"758 741 CURVE SMOOTH",
"699 741 OFFCURVE",
"685 703 OFFCURVE",
"685 675 CURVE SMOOTH",
"685 636 OFFCURVE",
"709 612 OFFCURVE",
"746 612 CURVE SMOOTH",
"751 612 OFFCURVE",
"756 613 OFFCURVE",
"762 615 CURVE",
"750 566 OFFCURVE",
"687 519 OFFCURVE",
"664 503 CURVE",
"693 467 LINE"
);
},
{
closed = 1;
nodes = (
"420 -178 OFFCURVE",
"444 -151 OFFCURVE",
"444 -116 CURVE SMOOTH",
"444 -81 OFFCURVE",
"420 -54 OFFCURVE",
"382 -54 CURVE SMOOTH",
"345 -54 OFFCURVE",
"321 -81 OFFCURVE",
"321 -116 CURVE SMOOTH",
"321 -151 OFFCURVE",
"345 -178 OFFCURVE",
"382 -178 CURVE SMOOTH"
);
}
);
width = 812;
}
);
leftKerningGroup = O;
note = Ohorndotbelow;
rightKerningGroup = O;
unicode = 1EE2;
},
{
glyphname = Ohorngrave;
lastChange = "2015-11-29 15:09:35 +0000";
layers = (
{
layerId = "956CC02E-6E79-4121-A7B2-01E3BBD48F66";
name = Bold;
paths = (
{
closed = 1;
nodes = (
"609 -10 OFFCURVE",
"732 127 OFFCURVE",
"732 350 CURVE SMOOTH",
"732 572 OFFCURVE",
"609 710 OFFCURVE",
"383 710 CURVE SMOOTH",
"156 710 OFFCURVE",
"34 572 OFFCURVE",
"34 350 CURVE SMOOTH",
"34 127 OFFCURVE",
"156 -10 OFFCURVE",
"383 -10 CURVE SMOOTH"
);
},
{
closed = 1;
nodes = (
"252 42 OFFCURVE",
"193 171 OFFCURVE",
"193 350 CURVE SMOOTH",
"193 528 OFFCURVE",
"252 658 OFFCURVE",
"383 658 CURVE SMOOTH",
"513 658 OFFCURVE",
"573 528 OFFCURVE",
"573 350 CURVE SMOOTH",
"573 171 OFFCURVE",
"513 42 OFFCURVE",
"383 42 CURVE SMOOTH"
);
},
{
closed = 1;
nodes = (
"493 820 LINE",
"370 947 LINE",
"364 954 OFFCURVE",
"340 981 OFFCURVE",
"307 981 CURVE SMOOTH",
"272 981 OFFCURVE",
"258 958 OFFCURVE",
"258 939 CURVE SMOOTH",
"258 915 OFFCURVE",
"276 897 OFFCURVE",
"308 878 CURVE SMOOTH",
"468 785 LINE"
);
},
{
closed = 1;
nodes = (
"797 538 OFFCURVE",
"837 605 OFFCURVE",
"837 658 CURVE SMOOTH",
"837 688 OFFCURVE",
"831 741 OFFCURVE",
"758 741 CURVE SMOOTH",
"699 741 OFFCURVE",
"685 703 OFFCURVE",
"685 675 CURVE SMOOTH",
"685 636 OFFCURVE",
"709 612 OFFCURVE",
"746 612 CURVE SMOOTH",
"751 612 OFFCURVE",
"756 613 OFFCURVE",
"762 615 CURVE",
"750 566 OFFCURVE",
"687 519 OFFCURVE",
"664 503 CURVE",
"693 467 LINE"
);
}
);
width = 812;
}
);
leftKerningGroup = O;
note = Ohorngrave;
rightKerningGroup = O;
unicode = 1EDC;
},
{
glyphname = Ohornhookabove;
lastChange = "2015-11-29 15:09:36 +0000";
layers = (
{
layerId = "956CC02E-6E79-4121-A7B2-01E3BBD48F66";
name = Bold;
paths = (
{
closed = 1;
nodes = (
"609 -10 OFFCURVE",
"732 127 OFFCURVE",
"732 350 CURVE SMOOTH",
"732 572 OFFCURVE",
"609 710 OFFCURVE",
"383 710 CURVE SMOOTH",
"156 710 OFFCURVE",
"34 572 OFFCURVE",
"34 350 CURVE SMOOTH",
"34 127 OFFCURVE",
"156 -10 OFFCURVE",
"383 -10 CURVE SMOOTH"
);
},
{
closed = 1;
nodes = (
"252 42 OFFCURVE",
"193 171 OFFCURVE",
"193 350 CURVE SMOOTH",
"193 528 OFFCURVE",
"252 658 OFFCURVE",
"383 658 CURVE SMOOTH",
"513 658 OFFCURVE",
"573 528 OFFCURVE",
"573 350 CURVE SMOOTH",
"573 171 OFFCURVE",
"513 42 OFFCURVE",
"383 42 CURVE SMOOTH"
);
},
{
closed = 1;
nodes = (
"410 780 LINE",
"420 849 LINE",
"474 854 OFFCURVE",
"516 875 OFFCURVE",
"516 935 CURVE SMOOTH",
"516 1001 OFFCURVE",
"454 1026 OFFCURVE",
"394 1026 CURVE SMOOTH",
"361 1026 OFFCURVE",
"329 1018 OFFCURVE",
"308 1008 CURVE",
"315 969 LINE",
"336 981 OFFCURVE",
"359 985 OFFCURVE",
"377 985 CURVE SMOOTH",
"418 985 OFFCURVE",
"439 962 OFFCURVE",
"439 936 CURVE SMOOTH",
"439 898 OFFCURVE",
"409 884 OFFCURVE",
"381 884 CURVE SMOOTH",
"343 884 LINE",
"348 780 LINE"
);
},
{
closed = 1;
nodes = (
"797 538 OFFCURVE",
"837 605 OFFCURVE",
"837 658 CURVE SMOOTH",
"837 688 OFFCURVE",
"831 741 OFFCURVE",
"758 741 CURVE SMOOTH",
"699 741 OFFCURVE",
"685 703 OFFCURVE",
"685 675 CURVE SMOOTH",
"685 636 OFFCURVE",
"709 612 OFFCURVE",
"746 612 CURVE SMOOTH",
"751 612 OFFCURVE",
"756 613 OFFCURVE",
"762 615 CURVE",
"750 566 OFFCURVE",
"687 519 OFFCURVE",
"664 503 CURVE",
"693 467 LINE"
);
}
);
width = 812;
}
);
leftKerningGroup = O;
note = Ohornhookabove;
rightKerningGroup = O;
unicode = 1EDE;
},
{
glyphname = Ohorntilde;
lastChange = "2015-11-29 15:09:35 +0000";
layers = (
{
layerId = "956CC02E-6E79-4121-A7B2-01E3BBD48F66";
name = Bold;
paths = (
{
closed = 1;
nodes = (
"609 -10 OFFCURVE",
"732 127 OFFCURVE",
"732 350 CURVE SMOOTH",
"732 572 OFFCURVE",
"609 710 OFFCURVE",
"383 710 CURVE SMOOTH",
"156 710 OFFCURVE",
"34 572 OFFCURVE",
"34 350 CURVE SMOOTH",
"34 127 OFFCURVE",
"156 -10 OFFCURVE",
"383 -10 CURVE SMOOTH"
);
},
{
closed = 1;
nodes = (
"252 42 OFFCURVE",
"193 171 OFFCURVE",
"193 350 CURVE SMOOTH",
"193 528 OFFCURVE",
"252 658 OFFCURVE",
"383 658 CURVE SMOOTH",
"513 658 OFFCURVE",
"573 528 OFFCURVE",
"573 350 CURVE SMOOTH",
"573 171 OFFCURVE",
"513 42 OFFCURVE",
"383 42 CURVE SMOOTH"
);
},
{
closed = 1;
nodes = (
"249 786 LINE",
"255 818 OFFCURVE",
"276 839 OFFCURVE",
"306 839 CURVE SMOOTH",
"342 839 OFFCURVE",
"405 786 OFFCURVE",
"464 786 CURVE SMOOTH",
"541 786 OFFCURVE",
"578 834 OFFCURVE",
"585 905 CURVE",
"520 905 LINE",
"509 859 OFFCURVE",
"484 851 OFFCURVE",
"459 851 CURVE SMOOTH",
"418 851 OFFCURVE",
"376 903 OFFCURVE",
"304 903 CURVE SMOOTH",
"236 903 OFFCURVE",
"193 863 OFFCURVE",
"182 786 CURVE"
);
},
{
closed = 1;
nodes = (
"797 538 OFFCURVE",
"837 605 OFFCURVE",
"837 658 CURVE SMOOTH",
"837 688 OFFCURVE",
"831 741 OFFCURVE",
"758 741 CURVE SMOOTH",
"699 741 OFFCURVE",
"685 703 OFFCURVE",
"685 675 CURVE SMOOTH",
"685 636 OFFCURVE",
"709 612 OFFCURVE",
"746 612 CURVE SMOOTH",
"751 612 OFFCURVE",
"756 613 OFFCURVE",
"762 615 CURVE",
"750 566 OFFCURVE",
"687 519 OFFCURVE",
"664 503 CURVE",
"693 467 LINE"
);
}
);
width = 812;
}
);
leftKerningGroup = O;
note = Ohorntilde;
rightKerningGroup = O;
unicode = 1EE0;
},
{
glyphname = Ohungarumlaut;
lastChange = "2015-11-29 15:09:34 +0000";
layers = (
{
layerId = "956CC02E-6E79-4121-A7B2-01E3BBD48F66";
name = Bold;
paths = (
{
closed = 1;
nodes = (
"609 -10 OFFCURVE",
"732 127 OFFCURVE",
"732 350 CURVE SMOOTH",
"732 572 OFFCURVE",
"609 710 OFFCURVE",
"383 710 CURVE SMOOTH",
"156 710 OFFCURVE",
"34 572 OFFCURVE",
"34 350 CURVE SMOOTH",
"34 127 OFFCURVE",
"156 -10 OFFCURVE",
"383 -10 CURVE SMOOTH"
);
},
{
closed = 1;
nodes = (
"252 42 OFFCURVE",
"193 171 OFFCURVE",
"193 350 CURVE SMOOTH",
"193 528 OFFCURVE",
"252 658 OFFCURVE",
"383 658 CURVE SMOOTH",
"513 658 OFFCURVE",
"573 528 OFFCURVE",
"573 350 CURVE SMOOTH",
"573 171 OFFCURVE",
"513 42 OFFCURVE",
"383 42 CURVE SMOOTH"
);
},
{
closed = 1;
nodes = (
"388 877 LINE SMOOTH",
"420 896 OFFCURVE",
"438 915 OFFCURVE",
"438 939 CURVE SMOOTH",
"438 957 OFFCURVE",
"423 980 OFFCURVE",
"388 980 CURVE SMOOTH",
"355 980 OFFCURVE",
"330 952 OFFCURVE",
"325 946 CURVE",
"203 820 LINE",
"228 784 LINE"
);
},
{
closed = 1;
nodes = (
"607 877 LINE SMOOTH",
"639 896 OFFCURVE",
"657 915 OFFCURVE",
"657 939 CURVE SMOOTH",
"657 957 OFFCURVE",
"643 980 OFFCURVE",
"608 980 CURVE SMOOTH",
"575 980 OFFCURVE",
"550 952 OFFCURVE",
"544 946 CURVE SMOOTH",
"422 820 LINE",
"447 784 LINE"
);
}
);
width = 766;
}
);
leftKerningGroup = O;
note = Ohungarumlaut;
rightKerningGroup = O;
unicode = 0150;
},
{
glyphname = Omacron;
lastChange = "2015-11-29 15:09:36 +0000";
layers = (
{
layerId = "956CC02E-6E79-4121-A7B2-01E3BBD48F66";
name = Bold;
paths = (
{
closed = 1;
nodes = (
"609 -10 OFFCURVE",
"732 127 OFFCURVE",
"732 350 CURVE SMOOTH",
"732 572 OFFCURVE",
"609 710 OFFCURVE",
"383 710 CURVE SMOOTH",
"156 710 OFFCURVE",
"34 572 OFFCURVE",
"34 350 CURVE SMOOTH",
"34 127 OFFCURVE",
"156 -10 OFFCURVE",
"383 -10 CURVE SMOOTH"
);
},
{
closed = 1;
nodes = (
"252 42 OFFCURVE",
"193 171 OFFCURVE",
"193 350 CURVE SMOOTH",
"193 528 OFFCURVE",
"252 658 OFFCURVE",
"383 658 CURVE SMOOTH",
"513 658 OFFCURVE",
"573 528 OFFCURVE",
"573 350 CURVE SMOOTH",
"573 171 OFFCURVE",
"513 42 OFFCURVE",
"383 42 CURVE SMOOTH"
);
},
{
closed = 1;
nodes = (
"577 790 LINE",
"577 838 LINE",
"187 838 LINE",
"187 790 LINE"
);
}
);
width = 766;
}
);
leftKerningGroup = O;
note = Omacron;
rightKerningGroup = O;
unicode = 014C;
},
{
glyphname = Oslash;
lastChange = "2015-11-29 15:17:57 +0000";
layers = (
{
layerId = "956CC02E-6E79-4121-A7B2-01E3BBD48F66";
name = Bold;
paths = (
{
closed = 1;
nodes = (
"609 -10 OFFCURVE",
"732 127 OFFCURVE",
"732 350 CURVE SMOOTH",
"732 572 OFFCURVE",
"609 710 OFFCURVE",
"383 710 CURVE SMOOTH",
"156 710 OFFCURVE",
"34 572 OFFCURVE",
"34 350 CURVE SMOOTH",
"34 127 OFFCURVE",
"156 -10 OFFCURVE",
"383 -10 CURVE SMOOTH"
);
},
{
closed = 1;
nodes = (
"252 42 OFFCURVE",
"193 171 OFFCURVE",
"193 350 CURVE SMOOTH",
"193 528 OFFCURVE",
"252 658 OFFCURVE",
"383 658 CURVE SMOOTH",
"513 658 OFFCURVE",
"573 528 OFFCURVE",
"573 350 CURVE SMOOTH",
"573 171 OFFCURVE",
"513 42 OFFCURVE",
"383 42 CURVE SMOOTH"
);
},
{
closed = 1;
nodes = (
"689 692 LINE",
"645 725 LINE",
"58 -3 LINE",
"98 -36 LINE"
);
}
);
width = 766;
}
);
leftKerningGroup = O;
note = Oslash;
rightKerningGroup = O;
unicode = 00D8;
},
{
glyphname = Oslashacute;
lastChange = "2015-11-29 15:17:59 +0000";
layers = (
{
layerId = "956CC02E-6E79-4121-A7B2-01E3BBD48F66";
name = Bold;
paths = (
{
closed = 1;
nodes = (
"609 -10 OFFCURVE",
"732 127 OFFCURVE",
"732 350 CURVE SMOOTH",
"732 572 OFFCURVE",
"609 710 OFFCURVE",
"383 710 CURVE SMOOTH",
"156 710 OFFCURVE",
"34 572 OFFCURVE",
"34 350 CURVE SMOOTH",
"34 127 OFFCURVE",
"156 -10 OFFCURVE",
"383 -10 CURVE SMOOTH"
);
},
{
closed = 1;
nodes = (
"252 42 OFFCURVE",
"193 171 OFFCURVE",
"193 350 CURVE SMOOTH",
"193 528 OFFCURVE",
"252 658 OFFCURVE",
"383 658 CURVE SMOOTH",
"513 658 OFFCURVE",
"573 528 OFFCURVE",
"573 350 CURVE SMOOTH",
"573 171 OFFCURVE",
"513 42 OFFCURVE",
"383 42 CURVE SMOOTH"
);
},
{
closed = 1;
nodes = (
"462 879 LINE SMOOTH",
"494 898 OFFCURVE",
"512 916 OFFCURVE",
"512 940 CURVE SMOOTH",
"512 959 OFFCURVE",
"497 982 OFFCURVE",
"463 982 CURVE SMOOTH",
"429 982 OFFCURVE",
"405 954 OFFCURVE",
"399 947 CURVE",
"277 821 LINE",
"302 786 LINE"
);
},
{
closed = 1;
nodes = (
"689 692 LINE",
"645 725 LINE",
"58 -3 LINE",
"98 -36 LINE"
);
}
);
width = 766;
}
);
leftKerningGroup = O;
note = Oslashacute;
rightKerningGroup = O;
unicode = 01FE;
},
{
glyphname = Otilde;
lastChange = "2015-11-29 15:09:36 +0000";
layers = (
{
layerId = "956CC02E-6E79-4121-A7B2-01E3BBD48F66";
name = Bold;
paths = (
{
closed = 1;
nodes = (
"609 -10 OFFCURVE",
"732 127 OFFCURVE",
"732 350 CURVE SMOOTH",
"732 572 OFFCURVE",
"609 710 OFFCURVE",
"383 710 CURVE SMOOTH",
"156 710 OFFCURVE",
"34 572 OFFCURVE",
"34 350 CURVE SMOOTH",
"34 127 OFFCURVE",
"156 -10 OFFCURVE",
"383 -10 CURVE SMOOTH"
);
},
{
closed = 1;
nodes = (
"252 42 OFFCURVE",
"193 171 OFFCURVE",
"193 350 CURVE SMOOTH",
"193 528 OFFCURVE",
"252 658 OFFCURVE",
"383 658 CURVE SMOOTH",
"513 658 OFFCURVE",
"573 528 OFFCURVE",
"573 350 CURVE SMOOTH",
"573 171 OFFCURVE",
"513 42 OFFCURVE",
"383 42 CURVE SMOOTH"
);
},
{
closed = 1;
nodes = (
"248 786 LINE",
"254 818 OFFCURVE",
"275 839 OFFCURVE",
"305 839 CURVE SMOOTH",
"341 839 OFFCURVE",
"404 786 OFFCURVE",
"463 786 CURVE SMOOTH",
"540 786 OFFCURVE",
"577 834 OFFCURVE",
"584 905 CURVE",
"519 905 LINE",
"508 859 OFFCURVE",
"483 851 OFFCURVE",
"458 851 CURVE SMOOTH",
"417 851 OFFCURVE",
"375 903 OFFCURVE",
"303 903 CURVE SMOOTH",
"235 903 OFFCURVE",
"192 863 OFFCURVE",
"181 786 CURVE"
);
}
);
width = 766;
}
);
leftKerningGroup = O;
note = Otilde;
rightKerningGroup = O;
unicode = 00D5;
},
{
glyphname = OE;
lastChange = "2015-11-29 15:09:36 +0000";
layers = (
{
layerId = "956CC02E-6E79-4121-A7B2-01E3BBD48F66";
name = Bold;
paths = (
{
closed = 1;
nodes = (
"432 -10 OFFCURVE",
"483 7 OFFCURVE",
"529 53 CURVE",
"529 0 LINE",
"1015 0 LINE",
"1033 175 LINE",
"999 175 LINE",
"982 154 OFFCURVE",
"952 85 OFFCURVE",
"949 49 CURVE",
"686 49 LINE",
"686 334 LINE",
"859 334 LINE",
"861 317 OFFCURVE",
"869 278 OFFCURVE",
"879 248 CURVE",
"904 248 LINE",
"904 470 LINE",
"879 470 LINE",
"868 442 OFFCURVE",
"861 402 OFFCURVE",
"859 384 CURVE",
"686 384 LINE",
"686 650 LINE",
"943 650 LINE",
"945 619 OFFCURVE",
"968 546 OFFCURVE",
"982 523 CURVE",
"1016 523 LINE",
"1016 700 LINE",
"529 700 LINE",
"529 643 LINE",
"491 685 OFFCURVE",
"432 710 OFFCURVE",
"356 710 CURVE SMOOTH",
"128 710 OFFCURVE",
"34 533 OFFCURVE",
"34 350 CURVE SMOOTH",
"34 166 OFFCURVE",
"128 -10 OFFCURVE",
"356 -10 CURVE SMOOTH"
);
},
{
closed = 1;
nodes = (
"253 42 OFFCURVE",
"194 171 OFFCURVE",
"194 350 CURVE SMOOTH",
"194 528 OFFCURVE",
"253 658 OFFCURVE",
"383 658 CURVE SMOOTH",
"449 658 OFFCURVE",
"503 616 OFFCURVE",
"529 567 CURVE",
"529 131 LINE",
"498 78 OFFCURVE",
"449 42 OFFCURVE",
"383 42 CURVE SMOOTH"
);
}
);
width = 1073;
}
);
note = OE;
unicode = 0152;
},
{
glyphname = P;
lastChange = "2015-11-29 15:09:34 +0000";
layers = (
{
layerId = "956CC02E-6E79-4121-A7B2-01E3BBD48F66";
name = Bold;
paths = (
{
closed = 1;
nodes = (
"341 0 LINE",
"341 18 LINE",
"314 26 OFFCURVE",
"284 35 OFFCURVE",
"260 39 CURVE",
"260 271 LINE",
"393 271 LINE SMOOTH",
"550 271 OFFCURVE",
"624 374 OFFCURVE",
"624 494 CURVE SMOOTH",
"624 613 OFFCURVE",
"565 700 OFFCURVE",
"375 700 CURVE SMOOTH",
"25 700 LINE",
"25 681 LINE",
"53 672 OFFCURVE",
"79 665 OFFCURVE",
"103 660 CURVE",
"103 40 LINE",
"96 39 OFFCURVE",
"50 28 OFFCURVE",
"23 20 CURVE",
"23 0 LINE"
);
},
{
closed = 1;
nodes = (
"260 650 LINE",
"352 650 LINE SMOOTH",
"433 650 OFFCURVE",
"469 591 OFFCURVE",
"469 496 CURVE SMOOTH",
"469 402 OFFCURVE",
"437 320 OFFCURVE",
"352 320 CURVE SMOOTH",
"260 320 LINE"
);
}
);
width = 645;
}
);
note = P;
unicode = 0050;
},
{
glyphname = Thorn;
lastChange = "2015-11-29 15:09:36 +0000";
layers = (
{
layerId = "956CC02E-6E79-4121-A7B2-01E3BBD48F66";
name = Bold;
paths = (
{
closed = 1;
nodes = (
"341 0 LINE",
"341 18 LINE",
"314 26 OFFCURVE",
"284 35 OFFCURVE",
"260 39 CURVE",
"260 148 LINE",
"394 148 LINE SMOOTH",
"550 148 OFFCURVE",
"624 251 OFFCURVE",
"624 371 CURVE SMOOTH",
"624 484 OFFCURVE",
"568 576 OFFCURVE",
"391 576 CURVE SMOOTH",
"260 576 LINE",
"260 700 LINE",
"25 700 LINE",
"25 681 LINE",
"53 672 OFFCURVE",
"79 665 OFFCURVE",
"103 660 CURVE",
"103 40 LINE",
"96 39 OFFCURVE",
"51 28 OFFCURVE",
"23 20 CURVE",
"23 0 LINE"
);
},
{
closed = 1;
nodes = (
"260 527 LINE",
"352 527 LINE SMOOTH",
"434 527 OFFCURVE",
"469 468 OFFCURVE",
"469 373 CURVE SMOOTH",
"469 279 OFFCURVE",
"437 197 OFFCURVE",
"352 197 CURVE SMOOTH",
"260 197 LINE"
);
}
);
width = 644;
}
);
note = Thorn;
unicode = 00DE;
},
{
glyphname = Q;
lastChange = "2015-11-29 15:18:04 +0000";
layers = (
{
layerId = "956CC02E-6E79-4121-A7B2-01E3BBD48F66";
name = Bold;
paths = (
{
closed = 1;
nodes = (
"609 -10 OFFCURVE",
"732 127 OFFCURVE",
"732 350 CURVE SMOOTH",
"732 572 OFFCURVE",
"609 710 OFFCURVE",
"383 710 CURVE SMOOTH",
"156 710 OFFCURVE",
"34 572 OFFCURVE",
"34 350 CURVE SMOOTH",
"34 127 OFFCURVE",
"156 -10 OFFCURVE",
"383 -10 CURVE SMOOTH"
);
},
{
closed = 1;
nodes = (
"253 42 OFFCURVE",
"193 171 OFFCURVE",
"193 350 CURVE SMOOTH",
"193 528 OFFCURVE",
"253 658 OFFCURVE",
"383 658 CURVE SMOOTH",
"513 658 OFFCURVE",
"573 528 OFFCURVE",
"573 350 CURVE SMOOTH",
"573 171 OFFCURVE",
"513 42 OFFCURVE",
"383 42 CURVE SMOOTH"
);
},
{
closed = 1;
nodes = (
"639 -112 LINE",
"538 -104 OFFCURVE",
"475 -52 OFFCURVE",
"467 24 CURVE",
"314 24 LINE",
"327 -74 OFFCURVE",
"434 -142 OFFCURVE",
"639 -159 CURVE"
);
}
);
width = 766;
}
);
leftKerningGroup = O;
note = Q;
rightKerningGroup = O;
unicode = 0051;
},
{
glyphname = R;
lastChange = "2015-11-29 15:32:20 +0000";
layers = (
{
layerId = "956CC02E-6E79-4121-A7B2-01E3BBD48F66";
name = Bold;
paths = (
{
closed = 1;
nodes = (
"348 0 LINE",
"348 18 LINE",
"321 26 OFFCURVE",
"291 35 OFFCURVE",
"268 39 CURVE",
"268 299 LINE",
"413 299 LINE SMOOTH",
"552 299 OFFCURVE",
"639 378 OFFCURVE",
"639 504 CURVE SMOOTH",
"639 617 OFFCURVE",
"589 700 OFFCURVE",
"412 700 CURVE SMOOTH",
"32 700 LINE",
"32 681 LINE",
"61 672 OFFCURVE",
"86 665 OFFCURVE",
"111 660 CURVE",
"111 40 LINE",
"103 39 OFFCURVE",
"58 28 OFFCURVE",
"30 20 CURVE",
"30 0 LINE"
);
},
{
closed = 1;
nodes = (
"268 650 LINE",
"359 650 LINE SMOOTH",
"446 650 OFFCURVE",
"484 601 OFFCURVE",
"484 506 CURVE SMOOTH",
"484 412 OFFCURVE",
"450 348 OFFCURVE",
"359 348 CURVE SMOOTH",
"268 348 LINE"
);
},
{
closed = 1;
nodes = (
"703 0 LINE",
"703 18 LINE",
"677 28 OFFCURVE",
"649 34 OFFCURVE",
"626 39 CURVE",
"476 315 LINE",
"340 315 LINE",
"500 0 LINE"
);
}
);
width = 721;
}
);
note = R;
rightKerningGroup = R;
unicode = 0052;
},
{
glyphname = Racute;
lastChange = "2015-11-29 15:32:24 +0000";
layers = (
{
layerId = "956CC02E-6E79-4121-A7B2-01E3BBD48F66";
name = Bold;
paths = (
{
closed = 1;
nodes = (
"348 0 LINE",
"348 18 LINE",
"321 26 OFFCURVE",
"291 35 OFFCURVE",
"268 39 CURVE",
"268 299 LINE",
"413 299 LINE SMOOTH",
"552 299 OFFCURVE",
"639 378 OFFCURVE",
"639 504 CURVE SMOOTH",
"639 617 OFFCURVE",
"589 700 OFFCURVE",
"412 700 CURVE SMOOTH",
"32 700 LINE",
"32 681 LINE",
"61 672 OFFCURVE",
"86 665 OFFCURVE",
"111 660 CURVE",
"111 40 LINE",
"103 39 OFFCURVE",
"58 28 OFFCURVE",
"30 20 CURVE",
"30 0 LINE"
);
},
{
closed = 1;
nodes = (
"268 650 LINE",
"359 650 LINE SMOOTH",
"446 650 OFFCURVE",
"484 601 OFFCURVE",
"484 506 CURVE SMOOTH",
"484 412 OFFCURVE",
"450 348 OFFCURVE",
"359 348 CURVE SMOOTH",
"268 348 LINE"
);
},
{
closed = 1;
nodes = (
"703 0 LINE",
"703 18 LINE",
"677 28 OFFCURVE",
"649 34 OFFCURVE",
"626 39 CURVE",
"476 315 LINE",
"340 315 LINE",
"500 0 LINE"
);
},
{
closed = 1;
nodes = (
"431 879 LINE SMOOTH",
"463 898 OFFCURVE",
"481 916 OFFCURVE",
"481 940 CURVE SMOOTH",
"481 959 OFFCURVE",
"466 982 OFFCURVE",
"432 982 CURVE SMOOTH",
"398 982 OFFCURVE",
"374 954 OFFCURVE",
"368 947 CURVE",
"246 821 LINE",
"271 786 LINE"
);
}
);
width = 721;
}
);
note = Racute;
rightKerningGroup = R;
unicode = 0154;
},
{
glyphname = Rcaron;
lastChange = "2015-11-29 15:32:27 +0000";
layers = (
{
layerId = "956CC02E-6E79-4121-A7B2-01E3BBD48F66";
name = Bold;
paths = (
{
closed = 1;
nodes = (
"348 0 LINE",
"348 18 LINE",
"321 26 OFFCURVE",
"291 35 OFFCURVE",
"268 39 CURVE",
"268 299 LINE",
"413 299 LINE SMOOTH",
"552 299 OFFCURVE",
"639 378 OFFCURVE",
"639 504 CURVE SMOOTH",
"639 617 OFFCURVE",
"589 700 OFFCURVE",
"412 700 CURVE SMOOTH",
"32 700 LINE",
"32 681 LINE",
"61 672 OFFCURVE",
"86 665 OFFCURVE",
"111 660 CURVE",
"111 40 LINE",
"103 39 OFFCURVE",
"58 28 OFFCURVE",
"30 20 CURVE",
"30 0 LINE"
);
},
{
closed = 1;
nodes = (
"268 650 LINE",
"359 650 LINE SMOOTH",
"446 650 OFFCURVE",
"484 601 OFFCURVE",
"484 506 CURVE SMOOTH",
"484 412 OFFCURVE",
"450 348 OFFCURVE",
"359 348 CURVE SMOOTH",
"268 348 LINE"
);
},
{
closed = 1;
nodes = (
"703 0 LINE",
"703 18 LINE",
"677 28 OFFCURVE",
"649 34 OFFCURVE",
"626 39 CURVE",
"476 315 LINE",
"340 315 LINE",
"500 0 LINE"
);
},
{
closed = 1;
nodes = (
"332 786 OFFCURVE",
"386 786 OFFCURVE",
"395 786 CURVE",
"419 822 OFFCURVE",
"506 900 OFFCURVE",
"550 929 CURVE",
"488 974 LINE",
"446 942 OFFCURVE",
"385 882 OFFCURVE",
"361 846 CURVE",
"360 846 OFFCURVE",
"358 846 OFFCURVE",
"357 846 CURVE",
"334 882 OFFCURVE",
"272 942 OFFCURVE",
"231 974 CURVE",
"168 929 LINE",
"213 900 OFFCURVE",
"299 822 OFFCURVE",
"323 786 CURVE"
);
}
);
width = 721;
}
);
note = Rcaron;
rightKerningGroup = R;
unicode = 0158;
},
{
glyphname = Rcommaaccent;
lastChange = "2015-11-29 15:32:32 +0000";
layers = (
{
layerId = "956CC02E-6E79-4121-A7B2-01E3BBD48F66";
name = Bold;
paths = (
{
closed = 1;
nodes = (
"348 0 LINE",
"348 18 LINE",
"321 26 OFFCURVE",
"291 35 OFFCURVE",
"268 39 CURVE",
"268 299 LINE",
"413 299 LINE SMOOTH",
"552 299 OFFCURVE",
"639 378 OFFCURVE",
"639 504 CURVE SMOOTH",
"639 617 OFFCURVE",
"589 700 OFFCURVE",
"412 700 CURVE SMOOTH",
"32 700 LINE",
"32 681 LINE",
"61 672 OFFCURVE",
"86 665 OFFCURVE",
"111 660 CURVE",
"111 40 LINE",
"103 39 OFFCURVE",
"58 28 OFFCURVE",
"30 20 CURVE",
"30 0 LINE"
);
},
{
closed = 1;
nodes = (
"268 650 LINE",
"359 650 LINE SMOOTH",
"446 650 OFFCURVE",
"484 601 OFFCURVE",
"484 506 CURVE SMOOTH",
"484 412 OFFCURVE",
"450 348 OFFCURVE",
"359 348 CURVE SMOOTH",
"268 348 LINE"
);
},
{
closed = 1;
nodes = (
"414 -319 OFFCURVE",
"457 -235 OFFCURVE",
"457 -159 CURVE SMOOTH",
"457 -117 OFFCURVE",
"433 -81 OFFCURVE",
"379 -81 CURVE SMOOTH",
"340 -81 OFFCURVE",
"305 -106 OFFCURVE",
"305 -148 CURVE SMOOTH",
"305 -188 OFFCURVE",
"336 -215 OFFCURVE",
"377 -217 CURVE",
"370 -261 OFFCURVE",
"335 -306 OFFCURVE",
"310 -332 CURVE",
"358 -368 LINE"
);
},
{
closed = 1;
nodes = (
"703 0 LINE",
"703 18 LINE",
"677 28 OFFCURVE",
"649 34 OFFCURVE",
"626 39 CURVE",
"476 315 LINE",
"340 315 LINE",
"500 0 LINE"
);
}
);
width = 721;
}
);
note = Rcommaaccent;
rightKerningGroup = R;
unicode = 0156;
},
{
glyphname = Rdotbelow;
lastChange = "2015-11-29 15:34:12 +0000";
layers = (
{
layerId = "956CC02E-6E79-4121-A7B2-01E3BBD48F66";
name = Bold;
paths = (
{
closed = 1;
nodes = (
"348 0 LINE",
"348 18 LINE",
"321 26 OFFCURVE",
"291 35 OFFCURVE",
"268 39 CURVE",
"268 299 LINE",
"413 299 LINE SMOOTH",
"552 299 OFFCURVE",
"639 378 OFFCURVE",
"639 504 CURVE SMOOTH",
"639 617 OFFCURVE",
"589 700 OFFCURVE",
"412 700 CURVE SMOOTH",
"32 700 LINE",
"32 681 LINE",
"61 672 OFFCURVE",
"86 665 OFFCURVE",
"111 660 CURVE",
"111 40 LINE",
"103 39 OFFCURVE",
"58 28 OFFCURVE",
"30 20 CURVE",
"30 0 LINE"
);
},
{
closed = 1;
nodes = (
"268 650 LINE",
"359 650 LINE SMOOTH",
"446 650 OFFCURVE",
"484 601 OFFCURVE",
"484 506 CURVE SMOOTH",
"484 412 OFFCURVE",
"450 348 OFFCURVE",
"359 348 CURVE SMOOTH",
"268 348 LINE"
);
},
{
closed = 1;
nodes = (
"402 -178 OFFCURVE",
"426 -151 OFFCURVE",
"426 -116 CURVE SMOOTH",
"426 -81 OFFCURVE",
"402 -54 OFFCURVE",
"364 -54 CURVE SMOOTH",
"327 -54 OFFCURVE",
"303 -81 OFFCURVE",
"303 -116 CURVE SMOOTH",
"303 -151 OFFCURVE",
"327 -178 OFFCURVE",
"364 -178 CURVE SMOOTH"
);
},
{
closed = 1;
nodes = (
"703 0 LINE",
"703 18 LINE",
"677 28 OFFCURVE",
"649 34 OFFCURVE",
"626 39 CURVE",
"476 315 LINE",
"340 315 LINE",
"500 0 LINE"
);
}
);
width = 721;
}
);
note = Rdotbelow;
rightKerningGroup = R;
unicode = 1E5A;
},
{
glyphname = Rdotbelowmacron;
lastChange = "2015-11-29 15:34:16 +0000";
layers = (
{
layerId = "956CC02E-6E79-4121-A7B2-01E3BBD48F66";
name = Bold;
paths = (
{
closed = 1;
nodes = (
"348 0 LINE",
"348 18 LINE",
"321 26 OFFCURVE",
"291 35 OFFCURVE",
"268 39 CURVE",
"268 299 LINE",
"413 299 LINE SMOOTH",
"552 299 OFFCURVE",
"639 378 OFFCURVE",
"639 504 CURVE SMOOTH",
"639 617 OFFCURVE",
"589 700 OFFCURVE",
"412 700 CURVE SMOOTH",
"32 700 LINE",
"32 681 LINE",
"61 672 OFFCURVE",
"86 665 OFFCURVE",
"111 660 CURVE",
"111 40 LINE",
"103 39 OFFCURVE",
"58 28 OFFCURVE",
"30 20 CURVE",
"30 0 LINE"
);
},
{
closed = 1;
nodes = (
"268 650 LINE",
"359 650 LINE SMOOTH",
"446 650 OFFCURVE",
"484 601 OFFCURVE",
"484 506 CURVE SMOOTH",
"484 412 OFFCURVE",
"450 348 OFFCURVE",
"359 348 CURVE SMOOTH",
"268 348 LINE"
);
},
{
closed = 1;
nodes = (
"403 -178 OFFCURVE",
"427 -151 OFFCURVE",
"427 -116 CURVE SMOOTH",
"427 -81 OFFCURVE",
"403 -54 OFFCURVE",
"365 -54 CURVE SMOOTH",
"327 -54 OFFCURVE",
"304 -81 OFFCURVE",
"304 -116 CURVE SMOOTH",
"304 -151 OFFCURVE",
"327 -178 OFFCURVE",
"365 -178 CURVE SMOOTH"
);
},
{
closed = 1;
nodes = (
"703 0 LINE",
"703 18 LINE",
"677 28 OFFCURVE",
"649 34 OFFCURVE",
"626 39 CURVE",
"476 315 LINE",
"340 315 LINE",
"500 0 LINE"
);
},
{
closed = 1;
nodes = (
"535 785 LINE",
"535 834 LINE",
"108 834 LINE",
"108 785 LINE"
);
}
);
width = 721;
}
);
note = Rdotbelowmacron;
rightKerningGroup = R;
unicode = 1E5C;
},
{
glyphname = Rlinebelow;
lastChange = "2015-11-29 15:34:20 +0000";
layers = (
{
layerId = "956CC02E-6E79-4121-A7B2-01E3BBD48F66";
name = Bold;
paths = (
{
closed = 1;
nodes = (
"348 0 LINE",
"348 18 LINE",
"321 26 OFFCURVE",
"291 35 OFFCURVE",
"268 39 CURVE",
"268 299 LINE",
"413 299 LINE SMOOTH",
"552 299 OFFCURVE",
"639 378 OFFCURVE",
"639 504 CURVE SMOOTH",
"639 617 OFFCURVE",
"589 700 OFFCURVE",
"412 700 CURVE SMOOTH",
"32 700 LINE",
"32 681 LINE",
"61 672 OFFCURVE",
"86 665 OFFCURVE",
"111 660 CURVE",
"111 40 LINE",
"103 39 OFFCURVE",
"58 28 OFFCURVE",
"30 20 CURVE",
"30 0 LINE"
);
},
{
closed = 1;
nodes = (
"268 650 LINE",
"359 650 LINE SMOOTH",
"446 650 OFFCURVE",
"484 601 OFFCURVE",
"484 506 CURVE SMOOTH",
"484 412 OFFCURVE",
"450 348 OFFCURVE",
"359 348 CURVE SMOOTH",
"268 348 LINE"
);
},
{
closed = 1;
nodes = (
"535 -109 LINE",
"535 -61 LINE",
"145 -61 LINE",
"145 -109 LINE"
);
},
{
closed = 1;
nodes = (
"703 0 LINE",
"703 18 LINE",
"677 28 OFFCURVE",
"649 34 OFFCURVE",
"626 39 CURVE",
"476 315 LINE",
"340 315 LINE",
"500 0 LINE"
);
}
);
width = 721;
}
);
note = Rlinebelow;
rightKerningGroup = R;
unicode = 1E5E;
},
{
glyphname = S;
lastChange = "2015-11-29 15:09:30 +0000";
layers = (
{
layerId = "956CC02E-6E79-4121-A7B2-01E3BBD48F66";
name = Bold;
paths = (
{
closed = 1;
nodes = (
"445 -10 OFFCURVE",
"566 63 OFFCURVE",
"566 195 CURVE SMOOTH",
"566 462 OFFCURVE",
"203 411 OFFCURVE",
"203 555 CURVE SMOOTH",
"203 628 OFFCURVE",
"261 658 OFFCURVE",
"341 658 CURVE SMOOTH",
"391 658 OFFCURVE",
"438 645 OFFCURVE",
"467 621 CURVE",
"471 575 OFFCURVE",
"479 535 OFFCURVE",
"490 500 CURVE",
"527 500 LINE",
"541 637 LINE",
"487 688 OFFCURVE",
"415 710 OFFCURVE",
"308 710 CURVE SMOOTH",
"151 710 OFFCURVE",
"43 651 OFFCURVE",
"43 530 CURVE SMOOTH",
"43 281 OFFCURVE",
"406 356 OFFCURVE",
"406 174 CURVE SMOOTH",
"406 83 OFFCURVE",
"330 42 OFFCURVE",
"249 42 CURVE SMOOTH",
"191 42 OFFCURVE",
"138 65 OFFCURVE",
"106 98 CURVE",
"102 143 OFFCURVE",
"97 196 OFFCURVE",
"85 231 CURVE",
"49 231 LINE",
"34 85 LINE",
"79 29 OFFCURVE",
"177 -10 OFFCURVE",
"290 -10 CURVE SMOOTH"
);
}
);
width = 601;
}
);
leftKerningGroup = S;
note = S;
rightKerningGroup = S;
unicode = 0053;
},
{
glyphname = Sacute;
lastChange = "2015-11-29 15:09:34 +0000";
layers = (
{
layerId = "956CC02E-6E79-4121-A7B2-01E3BBD48F66";
name = Bold;
paths = (
{
closed = 1;
nodes = (
"445 -10 OFFCURVE",
"566 63 OFFCURVE",
"566 195 CURVE SMOOTH",
"566 462 OFFCURVE",
"203 411 OFFCURVE",
"203 555 CURVE SMOOTH",
"203 628 OFFCURVE",
"261 658 OFFCURVE",
"341 658 CURVE SMOOTH",
"391 658 OFFCURVE",
"438 645 OFFCURVE",
"467 621 CURVE",
"471 575 OFFCURVE",
"479 535 OFFCURVE",
"490 500 CURVE",
"527 500 LINE",
"541 637 LINE",
"487 688 OFFCURVE",
"415 710 OFFCURVE",
"308 710 CURVE SMOOTH",
"151 710 OFFCURVE",
"43 651 OFFCURVE",
"43 530 CURVE SMOOTH",
"43 281 OFFCURVE",
"406 356 OFFCURVE",
"406 174 CURVE SMOOTH",
"406 83 OFFCURVE",
"330 42 OFFCURVE",
"249 42 CURVE SMOOTH",
"191 42 OFFCURVE",
"138 65 OFFCURVE",
"106 98 CURVE",
"102 143 OFFCURVE",
"97 196 OFFCURVE",
"85 231 CURVE",
"49 231 LINE",
"34 85 LINE",
"79 29 OFFCURVE",
"177 -10 OFFCURVE",
"290 -10 CURVE SMOOTH"
);
},
{
closed = 1;
nodes = (
"376 879 LINE SMOOTH",
"408 898 OFFCURVE",
"426 916 OFFCURVE",
"426 940 CURVE SMOOTH",
"426 959 OFFCURVE",
"411 982 OFFCURVE",
"377 982 CURVE SMOOTH",
"343 982 OFFCURVE",
"319 954 OFFCURVE",
"313 947 CURVE",
"191 821 LINE",
"216 786 LINE"
);
}
);
width = 601;
}
);
leftKerningGroup = S;
note = Sacute;
rightKerningGroup = S;
unicode = 015A;
},
{
glyphname = Scaron;
lastChange = "2015-11-29 15:09:36 +0000";
layers = (
{
layerId = "956CC02E-6E79-4121-A7B2-01E3BBD48F66";
name = Bold;
paths = (
{
closed = 1;
nodes = (
"445 -10 OFFCURVE",
"566 63 OFFCURVE",
"566 195 CURVE SMOOTH",
"566 462 OFFCURVE",
"203 411 OFFCURVE",
"203 555 CURVE SMOOTH",
"203 628 OFFCURVE",
"261 658 OFFCURVE",
"341 658 CURVE SMOOTH",
"391 658 OFFCURVE",
"438 645 OFFCURVE",
"467 621 CURVE",
"471 575 OFFCURVE",
"479 535 OFFCURVE",
"490 500 CURVE",
"527 500 LINE",
"541 637 LINE",
"487 688 OFFCURVE",
"415 710 OFFCURVE",
"308 710 CURVE SMOOTH",
"151 710 OFFCURVE",
"43 651 OFFCURVE",
"43 530 CURVE SMOOTH",
"43 281 OFFCURVE",
"406 356 OFFCURVE",
"406 174 CURVE SMOOTH",
"406 83 OFFCURVE",
"330 42 OFFCURVE",
"249 42 CURVE SMOOTH",
"191 42 OFFCURVE",
"138 65 OFFCURVE",
"106 98 CURVE",
"102 143 OFFCURVE",
"97 196 OFFCURVE",
"85 231 CURVE",
"49 231 LINE",
"34 85 LINE",
"79 29 OFFCURVE",
"177 -10 OFFCURVE",
"290 -10 CURVE SMOOTH"
);
},
{
closed = 1;
nodes = (
"272 786 OFFCURVE",
"326 786 OFFCURVE",
"335 786 CURVE",
"359 822 OFFCURVE",
"446 900 OFFCURVE",
"490 929 CURVE",
"428 974 LINE",
"386 942 OFFCURVE",
"325 882 OFFCURVE",
"301 846 CURVE",
"300 846 OFFCURVE",
"298 846 OFFCURVE",
"297 846 CURVE",
"274 882 OFFCURVE",
"212 942 OFFCURVE",
"171 974 CURVE",
"108 929 LINE",
"153 900 OFFCURVE",
"239 822 OFFCURVE",
"263 786 CURVE"
);
}
);
width = 601;
}
);
leftKerningGroup = S;
note = Scaron;
rightKerningGroup = S;
unicode = 0160;
},
{
glyphname = Scedilla;
lastChange = "2015-11-29 15:09:36 +0000";
layers = (
{
layerId = "956CC02E-6E79-4121-A7B2-01E3BBD48F66";
name = Bold;
paths = (
{
closed = 1;
nodes = (
"445 -10 OFFCURVE",
"566 63 OFFCURVE",
"566 195 CURVE SMOOTH",
"566 462 OFFCURVE",
"203 411 OFFCURVE",
"203 555 CURVE SMOOTH",
"203 628 OFFCURVE",
"261 658 OFFCURVE",
"341 658 CURVE SMOOTH",
"391 658 OFFCURVE",
"438 645 OFFCURVE",
"467 621 CURVE",
"471 575 OFFCURVE",
"479 535 OFFCURVE",
"490 500 CURVE",
"527 500 LINE",
"541 637 LINE",
"487 688 OFFCURVE",
"415 710 OFFCURVE",
"308 710 CURVE SMOOTH",
"151 710 OFFCURVE",
"43 651 OFFCURVE",
"43 530 CURVE SMOOTH",
"43 281 OFFCURVE",
"406 356 OFFCURVE",
"406 174 CURVE SMOOTH",
"406 83 OFFCURVE",
"330 42 OFFCURVE",
"249 42 CURVE SMOOTH",
"191 42 OFFCURVE",
"138 65 OFFCURVE",
"106 98 CURVE",
"102 143 OFFCURVE",
"97 196 OFFCURVE",
"85 231 CURVE",
"49 231 LINE",
"34 85 LINE",
"79 29 OFFCURVE",
"177 -10 OFFCURVE",
"290 -10 CURVE SMOOTH"
);
},
{
closed = 1;
nodes = (
"364 -252 OFFCURVE",
"430 -216 OFFCURVE",
"430 -145 CURVE SMOOTH",
"430 -102 OFFCURVE",
"394 -60 OFFCURVE",
"310 -60 CURVE",
"351 24 LINE",
"285 24 LINE",
"237 -70 LINE",
"263 -104 LINE",
"270 -103 OFFCURVE",
"278 -102 OFFCURVE",
"286 -102 CURVE SMOOTH",
"317 -102 OFFCURVE",
"354 -111 OFFCURVE",
"354 -145 CURVE SMOOTH",
"354 -187 OFFCURVE",
"316 -200 OFFCURVE",
"272 -200 CURVE SMOOTH",
"244 -200 OFFCURVE",
"214 -193 OFFCURVE",
"194 -182 CURVE",
"170 -221 LINE",
"200 -241 OFFCURVE",
"246 -252 OFFCURVE",
"284 -252 CURVE SMOOTH"
);
}
);
width = 601;
}
);
leftKerningGroup = S;
note = Scedilla;
rightKerningGroup = S;
unicode = 015E;
},
{
glyphname = Scircumflex;
lastChange = "2015-11-29 15:09:34 +0000";
layers = (
{
layerId = "956CC02E-6E79-4121-A7B2-01E3BBD48F66";
name = Bold;
paths = (
{
closed = 1;
nodes = (
"445 -10 OFFCURVE",
"566 63 OFFCURVE",
"566 195 CURVE SMOOTH",
"566 462 OFFCURVE",
"203 411 OFFCURVE",
"203 555 CURVE SMOOTH",
"203 628 OFFCURVE",
"261 658 OFFCURVE",
"341 658 CURVE SMOOTH",
"391 658 OFFCURVE",
"438 645 OFFCURVE",
"467 621 CURVE",
"471 575 OFFCURVE",
"479 535 OFFCURVE",
"490 500 CURVE",
"527 500 LINE",
"541 637 LINE",
"487 688 OFFCURVE",
"415 710 OFFCURVE",
"308 710 CURVE SMOOTH",
"151 710 OFFCURVE",
"43 651 OFFCURVE",
"43 530 CURVE SMOOTH",
"43 281 OFFCURVE",
"406 356 OFFCURVE",
"406 174 CURVE SMOOTH",
"406 83 OFFCURVE",
"330 42 OFFCURVE",
"249 42 CURVE SMOOTH",
"191 42 OFFCURVE",
"138 65 OFFCURVE",
"106 98 CURVE",
"102 143 OFFCURVE",
"97 196 OFFCURVE",
"85 231 CURVE",
"49 231 LINE",
"34 85 LINE",
"79 29 OFFCURVE",
"177 -10 OFFCURVE",
"290 -10 CURVE SMOOTH"
);
},
{
closed = 1;
nodes = (
"212 816 OFFCURVE",
"274 876 OFFCURVE",
"297 912 CURVE",
"298 912 OFFCURVE",
"300 912 OFFCURVE",
"301 912 CURVE",
"325 876 OFFCURVE",
"386 816 OFFCURVE",
"428 783 CURVE",
"490 829 LINE",
"446 857 OFFCURVE",
"359 936 OFFCURVE",
"335 972 CURVE",
"326 972 OFFCURVE",
"272 972 OFFCURVE",
"263 972 CURVE",
"239 936 OFFCURVE",
"153 857 OFFCURVE",
"108 829 CURVE",
"171 783 LINE"
);
}
);
width = 601;
}
);
leftKerningGroup = S;
note = Scircumflex;
rightKerningGroup = S;
unicode = 015C;
},
{
glyphname = Scommaaccent;
lastChange = "2015-11-29 15:09:34 +0000";
layers = (
{
layerId = "956CC02E-6E79-4121-A7B2-01E3BBD48F66";
name = Bold;
paths = (
{
closed = 1;
nodes = (
"445 -10 OFFCURVE",
"566 63 OFFCURVE",
"566 195 CURVE SMOOTH",
"566 462 OFFCURVE",
"203 411 OFFCURVE",
"203 555 CURVE SMOOTH",
"203 628 OFFCURVE",
"261 658 OFFCURVE",
"341 658 CURVE SMOOTH",
"391 658 OFFCURVE",
"438 645 OFFCURVE",
"467 621 CURVE",
"471 575 OFFCURVE",
"479 535 OFFCURVE",
"490 500 CURVE",
"527 500 LINE",
"541 637 LINE",
"487 688 OFFCURVE",
"415 710 OFFCURVE",
"308 710 CURVE SMOOTH",
"151 710 OFFCURVE",
"43 651 OFFCURVE",
"43 530 CURVE SMOOTH",
"43 281 OFFCURVE",
"406 356 OFFCURVE",
"406 174 CURVE SMOOTH",
"406 83 OFFCURVE",
"330 42 OFFCURVE",
"249 42 CURVE SMOOTH",
"191 42 OFFCURVE",
"138 65 OFFCURVE",
"106 98 CURVE",
"102 143 OFFCURVE",
"97 196 OFFCURVE",
"85 231 CURVE",
"49 231 LINE",
"34 85 LINE",
"79 29 OFFCURVE",
"177 -10 OFFCURVE",
"290 -10 CURVE SMOOTH"
);
},
{
closed = 1;
nodes = (
"337 -295 OFFCURVE",
"381 -206 OFFCURVE",
"381 -130 CURVE SMOOTH",
"381 -89 OFFCURVE",
"355 -52 OFFCURVE",
"301 -52 CURVE SMOOTH",
"261 -52 OFFCURVE",
"227 -78 OFFCURVE",
"227 -120 CURVE SMOOTH",
"227 -152 OFFCURVE",
"251 -178 OFFCURVE",
"280 -185 CURVE",
"286 -188 OFFCURVE",
"293 -189 OFFCURVE",
"300 -189 CURVE",
"293 -234 OFFCURVE",
"257 -282 OFFCURVE",
"232 -308 CURVE",
"281 -344 LINE"
);
}
);
width = 601;
}
);
leftKerningGroup = S;
note = Scommaaccent;
rightKerningGroup = S;
unicode = 0218;
},
{
glyphname = Sdotaccent;
lastChange = "2015-11-29 15:09:36 +0000";
layers = (
{
layerId = "956CC02E-6E79-4121-A7B2-01E3BBD48F66";
name = Bold;
paths = (
{
closed = 1;
nodes = (
"445 -10 OFFCURVE",
"566 63 OFFCURVE",
"566 195 CURVE SMOOTH",
"566 462 OFFCURVE",
"203 411 OFFCURVE",
"203 555 CURVE SMOOTH",
"203 628 OFFCURVE",
"261 658 OFFCURVE",
"341 658 CURVE SMOOTH",
"391 658 OFFCURVE",
"438 645 OFFCURVE",
"467 621 CURVE",
"471 575 OFFCURVE",
"479 535 OFFCURVE",
"490 500 CURVE",
"527 500 LINE",
"541 637 LINE",
"487 688 OFFCURVE",
"415 710 OFFCURVE",
"308 710 CURVE SMOOTH",
"151 710 OFFCURVE",
"43 651 OFFCURVE",
"43 530 CURVE SMOOTH",
"43 281 OFFCURVE",
"406 356 OFFCURVE",
"406 174 CURVE SMOOTH",
"406 83 OFFCURVE",
"330 42 OFFCURVE",
"249 42 CURVE SMOOTH",
"191 42 OFFCURVE",
"138 65 OFFCURVE",
"106 98 CURVE",
"102 143 OFFCURVE",
"97 196 OFFCURVE",
"85 231 CURVE",
"49 231 LINE",
"34 85 LINE",
"79 29 OFFCURVE",
"177 -10 OFFCURVE",
"290 -10 CURVE SMOOTH"
);
},
{
closed = 1;
nodes = (
"353 785 OFFCURVE",
"377 812 OFFCURVE",
"377 847 CURVE SMOOTH",
"377 882 OFFCURVE",
"353 909 OFFCURVE",
"316 909 CURVE SMOOTH",
"278 909 OFFCURVE",
"255 882 OFFCURVE",
"255 847 CURVE SMOOTH",
"255 812 OFFCURVE",
"278 785 OFFCURVE",
"316 785 CURVE SMOOTH"
);
}
);
width = 601;
}
);
leftKerningGroup = S;
note = Sdotaccent;
rightKerningGroup = S;
unicode = 1E60;
},
{
glyphname = Sdotbelow;
lastChange = "2015-11-29 15:09:35 +0000";
layers = (
{
layerId = "956CC02E-6E79-4121-A7B2-01E3BBD48F66";
name = Bold;
paths = (
{
closed = 1;
nodes = (
"445 -10 OFFCURVE",
"566 63 OFFCURVE",
"566 195 CURVE SMOOTH",
"566 462 OFFCURVE",
"203 411 OFFCURVE",
"203 555 CURVE SMOOTH",
"203 628 OFFCURVE",
"261 658 OFFCURVE",
"341 658 CURVE SMOOTH",
"391 658 OFFCURVE",
"438 645 OFFCURVE",
"467 621 CURVE",
"471 575 OFFCURVE",
"479 535 OFFCURVE",
"490 500 CURVE",
"527 500 LINE",
"541 637 LINE",
"487 688 OFFCURVE",
"415 710 OFFCURVE",
"308 710 CURVE SMOOTH",
"151 710 OFFCURVE",
"43 651 OFFCURVE",
"43 530 CURVE SMOOTH",
"43 281 OFFCURVE",
"406 356 OFFCURVE",
"406 174 CURVE SMOOTH",
"406 83 OFFCURVE",
"330 42 OFFCURVE",
"249 42 CURVE SMOOTH",
"191 42 OFFCURVE",
"138 65 OFFCURVE",
"106 98 CURVE",
"102 143 OFFCURVE",
"97 196 OFFCURVE",
"85 231 CURVE",
"49 231 LINE",
"34 85 LINE",
"79 29 OFFCURVE",
"177 -10 OFFCURVE",
"290 -10 CURVE SMOOTH"
);
},
{
closed = 1;
nodes = (
"344 -178 OFFCURVE",
"368 -151 OFFCURVE",
"368 -116 CURVE SMOOTH",
"368 -81 OFFCURVE",
"344 -54 OFFCURVE",
"306 -54 CURVE SMOOTH",
"269 -54 OFFCURVE",
"245 -81 OFFCURVE",
"245 -116 CURVE SMOOTH",
"245 -151 OFFCURVE",
"269 -178 OFFCURVE",
"306 -178 CURVE SMOOTH"
);
}
);
width = 601;
}
);
leftKerningGroup = S;
note = Sdotbelow;
rightKerningGroup = S;
unicode = 1E62;
},
{
glyphname = Germandbls;
lastChange = "2015-11-29 15:09:30 +0000";
layers = (
{
layerId = "956CC02E-6E79-4121-A7B2-01E3BBD48F66";
name = Bold;
paths = (
{
closed = 1;
nodes = (
"654 -10 OFFCURVE",
"738 90 OFFCURVE",
"738 206 CURVE SMOOTH",
"738 310 OFFCURVE",
"651 383 OFFCURVE",
"507 401 CURVE",
"654 553 LINE",
"630 627 OFFCURVE",
"535 710 OFFCURVE",
"380 710 CURVE SMOOTH",
"183 710 OFFCURVE",
"96 625 OFFCURVE",
"96 484 CURVE SMOOTH",
"96 40 LINE",
"68 34 OFFCURVE",
"41 27 OFFCURVE",
"15 20 CURVE",
"15 0 LINE",
"301 0 LINE",
"301 26 LINE",
"289 31 OFFCURVE",
"258 38 OFFCURVE",
"250 40 CURVE",
"250 525 LINE SMOOTH",
"250 610 OFFCURVE",
"296 658 OFFCURVE",
"376 658 CURVE SMOOTH",
"454 658 OFFCURVE",
"505 619 OFFCURVE",
"528 570 CURVE",
"348 382 LINE",
"348 356 LINE",
"440 356 LINE SMOOTH",
"535 356 OFFCURVE",
"583 294 OFFCURVE",
"583 206 CURVE SMOOTH",
"583 107 OFFCURVE",
"536 39 OFFCURVE",
"453 39 CURVE SMOOTH",
"416 39 OFFCURVE",
"377 45 OFFCURVE",
"339 57 CURVE",
"339 5 LINE",
"373 -5 OFFCURVE",
"413 -10 OFFCURVE",
"457 -10 CURVE SMOOTH"
);
}
);
width = 768;
}
);
note = uni1E9E;
unicode = 1E9E;
},
{
glyphname = Schwa;
lastChange = "2015-11-29 15:09:30 +0000";
layers = (
{
layerId = "956CC02E-6E79-4121-A7B2-01E3BBD48F66";
name = Bold;
paths = (
{
closed = 1;
nodes = (
"582 -10 OFFCURVE",
"727 111 OFFCURVE",
"727 344 CURVE SMOOTH",
"727 559 OFFCURVE",
"583 710 OFFCURVE",
"335 710 CURVE SMOOTH",
"184 710 OFFCURVE",
"98 662 OFFCURVE",
"51 629 CURVE",
"71 580 LINE",
"162 640 OFFCURVE",
"235 657 OFFCURVE",
"320 657 CURVE SMOOTH",
"489 657 OFFCURVE",
"575 493 OFFCURVE",
"575 328 CURVE SMOOTH",
"575 179 OFFCURVE",
"506 39 OFFCURVE",
"353 39 CURVE SMOOTH",
"234 39 OFFCURVE",
"184 174 OFFCURVE",
"184 294 CURVE",
"586 294 LINE",
"586 346 LINE",
"32 346 LINE",
"32 312 LINE SMOOTH",
"32 138 OFFCURVE",
"130 -10 OFFCURVE",
"358 -10 CURVE SMOOTH"
);
}
);
width = 759;
}
);
note = uni018F;
unicode = 018F;
},
{
glyphname = T;
lastChange = "2015-11-29 15:09:30 +0000";
layers = (
{
layerId = "956CC02E-6E79-4121-A7B2-01E3BBD48F66";
name = Bold;
paths = (
{
closed = 1;
nodes = (
"505 0 LINE",
"505 18 LINE",
"478 26 OFFCURVE",
"441 35 OFFCURVE",
"417 39 CURVE",
"417 650 LINE",
"574 650 LINE",
"576 619 OFFCURVE",
"599 523 OFFCURVE",
"613 501 CURVE",
"647 501 LINE",
"647 700 LINE",
"30 700 LINE",
"30 501 LINE",
"64 501 LINE",
"78 523 OFFCURVE",
"101 619 OFFCURVE",
"103 650 CURVE",
"260 650 LINE",
"260 40 LINE",
"230 33 OFFCURVE",
"199 27 OFFCURVE",
"173 20 CURVE",
"173 0 LINE"
);
}
);
width = 678;
}
);
leftKerningGroup = T;
note = T;
rightKerningGroup = T;
unicode = 0054;
},
{
glyphname = Tbar;
lastChange = "2015-11-29 15:09:36 +0000";
layers = (
{
layerId = "956CC02E-6E79-4121-A7B2-01E3BBD48F66";
name = Bold;
paths = (
{
closed = 1;
nodes = (
"505 0 LINE",
"505 18 LINE",
"478 26 OFFCURVE",
"441 35 OFFCURVE",
"417 39 CURVE",
"417 650 LINE",
"574 650 LINE",
"576 619 OFFCURVE",
"599 523 OFFCURVE",
"613 501 CURVE",
"647 501 LINE",
"647 700 LINE",
"30 700 LINE",
"30 501 LINE",
"64 501 LINE",
"78 523 OFFCURVE",
"101 619 OFFCURVE",
"103 650 CURVE",
"260 650 LINE",
"260 40 LINE",
"230 33 OFFCURVE",
"199 27 OFFCURVE",
"173 20 CURVE",
"173 0 LINE"
);
},
{
closed = 1;
nodes = (
"566 297 LINE",
"566 346 LINE",
"123 346 LINE",
"123 297 LINE"
);
}
);
width = 678;
}
);
leftKerningGroup = T;
note = Tbar;
rightKerningGroup = T;
unicode = 0166;
},
{
glyphname = Tcaron;
lastChange = "2015-11-29 15:09:35 +0000";
layers = (
{
layerId = "956CC02E-6E79-4121-A7B2-01E3BBD48F66";
name = Bold;
paths = (
{
closed = 1;
nodes = (
"505 0 LINE",
"505 18 LINE",
"478 26 OFFCURVE",
"441 35 OFFCURVE",
"417 39 CURVE",
"417 650 LINE",
"574 650 LINE",
"576 619 OFFCURVE",
"599 523 OFFCURVE",
"613 501 CURVE",
"647 501 LINE",
"647 700 LINE",
"30 700 LINE",
"30 501 LINE",
"64 501 LINE",
"78 523 OFFCURVE",
"101 619 OFFCURVE",
"103 650 CURVE",
"260 650 LINE",
"260 40 LINE",
"230 33 OFFCURVE",
"199 27 OFFCURVE",
"173 20 CURVE",
"173 0 LINE"
);
},
{
closed = 1;
nodes = (
"310 786 OFFCURVE",
"364 786 OFFCURVE",
"373 786 CURVE",
"397 822 OFFCURVE",
"484 900 OFFCURVE",
"528 929 CURVE",
"466 974 LINE",
"424 942 OFFCURVE",
"363 882 OFFCURVE",
"339 846 CURVE",
"338 846 OFFCURVE",
"336 846 OFFCURVE",
"335 846 CURVE",
"312 882 OFFCURVE",
"250 942 OFFCURVE",
"209 974 CURVE",
"146 929 LINE",
"191 900 OFFCURVE",
"277 822 OFFCURVE",
"301 786 CURVE"
);
}
);
width = 678;
}
);
leftKerningGroup = T;
note = Tcaron;
rightKerningGroup = T;
unicode = 0164;
},
{
glyphname = Tcedilla;
lastChange = "2015-11-29 15:09:34 +0000";
layers = (
{
layerId = "956CC02E-6E79-4121-A7B2-01E3BBD48F66";
name = Bold;
paths = (
{
closed = 1;
nodes = (
"505 0 LINE",
"505 18 LINE",
"478 26 OFFCURVE",
"441 35 OFFCURVE",
"417 39 CURVE",
"417 650 LINE",
"574 650 LINE",
"576 619 OFFCURVE",
"599 523 OFFCURVE",
"613 501 CURVE",
"647 501 LINE",
"647 700 LINE",
"30 700 LINE",
"30 501 LINE",
"64 501 LINE",
"78 523 OFFCURVE",
"101 619 OFFCURVE",
"103 650 CURVE",
"260 650 LINE",
"260 40 LINE",
"230 33 OFFCURVE",
"199 27 OFFCURVE",
"173 20 CURVE",
"173 0 LINE"
);
},
{
closed = 1;
nodes = (
"385 -252 OFFCURVE",
"451 -216 OFFCURVE",
"451 -145 CURVE SMOOTH",
"451 -104 OFFCURVE",
"420 -65 OFFCURVE",
"345 -61 CURVE",
"341 -61 OFFCURVE",
"334 -60 OFFCURVE",
"331 -60 CURVE",
"372 24 LINE",
"306 24 LINE",
"258 -70 LINE",
"284 -104 LINE",
"291 -103 OFFCURVE",
"299 -102 OFFCURVE",
"307 -102 CURVE SMOOTH",
"338 -102 OFFCURVE",
"375 -111 OFFCURVE",
"375 -145 CURVE SMOOTH",
"375 -187 OFFCURVE",
"337 -200 OFFCURVE",
"294 -200 CURVE SMOOTH",
"265 -200 OFFCURVE",
"235 -193 OFFCURVE",
"215 -182 CURVE",
"191 -221 LINE",
"222 -241 OFFCURVE",
"268 -252 OFFCURVE",
"306 -252 CURVE SMOOTH"
);
}
);
width = 678;
}
);
leftKerningGroup = T;
note = Tcedilla;
rightKerningGroup = T;
unicode = 0162;
},
{
glyphname = Tcommaaccent;
lastChange = "2015-11-29 15:09:36 +0000";
layers = (
{
layerId = "956CC02E-6E79-4121-A7B2-01E3BBD48F66";
name = Bold;
paths = (
{
closed = 1;
nodes = (
"505 0 LINE",
"505 18 LINE",
"478 26 OFFCURVE",
"441 35 OFFCURVE",
"417 39 CURVE",
"417 650 LINE",
"574 650 LINE",
"576 619 OFFCURVE",
"599 523 OFFCURVE",
"613 501 CURVE",
"647 501 LINE",
"647 700 LINE",
"30 700 LINE",
"30 501 LINE",
"64 501 LINE",
"78 523 OFFCURVE",
"101 619 OFFCURVE",
"103 650 CURVE",
"260 650 LINE",
"260 40 LINE",
"230 33 OFFCURVE",
"199 27 OFFCURVE",
"173 20 CURVE",
"173 0 LINE"
);
},
{
closed = 1;
nodes = (
"372 -319 OFFCURVE",
"415 -235 OFFCURVE",
"415 -159 CURVE SMOOTH",
"415 -117 OFFCURVE",
"391 -81 OFFCURVE",
"337 -81 CURVE SMOOTH",
"298 -81 OFFCURVE",
"263 -106 OFFCURVE",
"263 -148 CURVE SMOOTH",
"263 -188 OFFCURVE",
"294 -215 OFFCURVE",
"335 -217 CURVE",
"328 -261 OFFCURVE",
"293 -306 OFFCURVE",
"268 -332 CURVE",
"316 -368 LINE"
);
}
);
width = 678;
}
);
leftKerningGroup = T;
note = Tcommaaccent;
rightKerningGroup = T;
unicode = 021A;
},
{
glyphname = Tdotbelow;
lastChange = "2015-11-29 15:09:35 +0000";
layers = (
{
layerId = "956CC02E-6E79-4121-A7B2-01E3BBD48F66";
name = Bold;
paths = (
{
closed = 1;
nodes = (
"505 0 LINE",
"505 18 LINE",
"478 26 OFFCURVE",
"441 35 OFFCURVE",
"417 39 CURVE",
"417 650 LINE",
"574 650 LINE",
"576 619 OFFCURVE",
"599 523 OFFCURVE",
"613 501 CURVE",
"647 501 LINE",
"647 700 LINE",
"30 700 LINE",
"30 501 LINE",
"64 501 LINE",
"78 523 OFFCURVE",
"101 619 OFFCURVE",
"103 650 CURVE",
"260 650 LINE",
"260 40 LINE",
"230 33 OFFCURVE",
"199 27 OFFCURVE",
"173 20 CURVE",
"173 0 LINE"
);
},
{
closed = 1;
nodes = (
"375 -178 OFFCURVE",
"399 -151 OFFCURVE",
"399 -116 CURVE SMOOTH",
"399 -81 OFFCURVE",
"375 -54 OFFCURVE",
"337 -54 CURVE SMOOTH",
"300 -54 OFFCURVE",
"276 -81 OFFCURVE",
"276 -116 CURVE SMOOTH",
"276 -151 OFFCURVE",
"300 -178 OFFCURVE",
"337 -178 CURVE SMOOTH"
);
}
);
width = 678;
}
);
leftKerningGroup = T;
note = Tdotbelow;
rightKerningGroup = T;
unicode = 1E6C;
},
{
glyphname = Tlinebelow;
lastChange = "2015-11-29 15:09:36 +0000";
layers = (
{
layerId = "956CC02E-6E79-4121-A7B2-01E3BBD48F66";
name = Bold;
paths = (
{
closed = 1;
nodes = (
"505 0 LINE",
"505 18 LINE",
"478 26 OFFCURVE",
"441 35 OFFCURVE",
"417 39 CURVE",
"417 650 LINE",
"574 650 LINE",
"576 619 OFFCURVE",
"599 523 OFFCURVE",
"613 501 CURVE",
"647 501 LINE",
"647 700 LINE",
"30 700 LINE",
"30 501 LINE",
"64 501 LINE",
"78 523 OFFCURVE",
"101 619 OFFCURVE",
"103 650 CURVE",
"260 650 LINE",
"260 40 LINE",
"230 33 OFFCURVE",
"199 27 OFFCURVE",
"173 20 CURVE",
"173 0 LINE"
);
},
{
closed = 1;
nodes = (
"533 -109 LINE",
"533 -61 LINE",
"143 -61 LINE",
"143 -109 LINE"
);
}
);
width = 678;
}
);
leftKerningGroup = T;
note = Tlinebelow;
rightKerningGroup = T;
unicode = 1E6E;
},
{
glyphname = U;
lastChange = "2015-11-29 15:09:31 +0000";
layers = (
{
layerId = "956CC02E-6E79-4121-A7B2-01E3BBD48F66";
name = Bold;
paths = (
{
closed = 1;
nodes = (
"598 -10 OFFCURVE",
"695 69 OFFCURVE",
"695 220 CURVE SMOOTH",
"695 659 LINE",
"708 661 OFFCURVE",
"739 669 OFFCURVE",
"776 682 CURVE",
"776 700 LINE",
"552 700 LINE",
"552 682 LINE",
"581 672 OFFCURVE",
"607 666 OFFCURVE",
"633 661 CURVE",
"633 206 LINE SMOOTH",
"633 83 OFFCURVE",
"543 42 OFFCURVE",
"447 42 CURVE SMOOTH",
"351 42 OFFCURVE",
"263 79 OFFCURVE",
"263 206 CURVE SMOOTH",
"263 659 LINE",
"291 666 OFFCURVE",
"319 672 OFFCURVE",
"343 680 CURVE",
"343 700 LINE",
"26 700 LINE",
"26 682 LINE",
"54 672 OFFCURVE",
"82 665 OFFCURVE",
"106 660 CURVE",
"106 220 LINE SMOOTH",
"106 60 OFFCURVE",
"216 -10 OFFCURVE",
"408 -10 CURVE SMOOTH"
);
}
);
width = 802;
}
);
leftKerningGroup = U;
note = U;
rightKerningGroup = U;
unicode = 0055;
},
{
glyphname = Uacute;
lastChange = "2015-11-29 15:09:34 +0000";
layers = (
{
layerId = "956CC02E-6E79-4121-A7B2-01E3BBD48F66";
name = Bold;
paths = (
{
closed = 1;
nodes = (
"598 -10 OFFCURVE",
"695 69 OFFCURVE",
"695 220 CURVE SMOOTH",
"695 659 LINE",
"708 661 OFFCURVE",
"739 669 OFFCURVE",
"776 682 CURVE",
"776 700 LINE",
"552 700 LINE",
"552 682 LINE",
"581 672 OFFCURVE",
"607 666 OFFCURVE",
"633 661 CURVE",
"633 206 LINE SMOOTH",
"633 83 OFFCURVE",
"543 42 OFFCURVE",
"447 42 CURVE SMOOTH",
"351 42 OFFCURVE",
"263 79 OFFCURVE",
"263 206 CURVE SMOOTH",
"263 659 LINE",
"291 666 OFFCURVE",
"319 672 OFFCURVE",
"343 680 CURVE",
"343 700 LINE",
"26 700 LINE",
"26 682 LINE",
"54 672 OFFCURVE",
"82 665 OFFCURVE",
"106 660 CURVE",
"106 220 LINE SMOOTH",
"106 60 OFFCURVE",
"216 -10 OFFCURVE",
"408 -10 CURVE SMOOTH"
);
},
{
closed = 1;
nodes = (
"515 879 LINE SMOOTH",
"547 898 OFFCURVE",
"565 916 OFFCURVE",
"565 940 CURVE SMOOTH",
"565 959 OFFCURVE",
"550 982 OFFCURVE",
"516 982 CURVE SMOOTH",
"482 982 OFFCURVE",
"458 954 OFFCURVE",
"452 947 CURVE",
"330 821 LINE",
"355 786 LINE"
);
}
);
width = 802;
}
);
leftKerningGroup = U;
note = Uacute;
rightKerningGroup = U;
unicode = 00DA;
},
{
glyphname = Ubreve;
lastChange = "2015-11-29 15:09:35 +0000";
layers = (
{
layerId = "956CC02E-6E79-4121-A7B2-01E3BBD48F66";
name = Bold;
paths = (
{
closed = 1;
nodes = (
"598 -10 OFFCURVE",
"695 69 OFFCURVE",
"695 220 CURVE SMOOTH",
"695 659 LINE",
"708 661 OFFCURVE",
"739 669 OFFCURVE",
"776 682 CURVE",
"776 700 LINE",
"552 700 LINE",
"552 682 LINE",
"581 672 OFFCURVE",
"607 666 OFFCURVE",
"633 661 CURVE",
"633 206 LINE SMOOTH",
"633 83 OFFCURVE",
"543 42 OFFCURVE",
"447 42 CURVE SMOOTH",
"351 42 OFFCURVE",
"263 79 OFFCURVE",
"263 206 CURVE SMOOTH",
"263 659 LINE",
"291 666 OFFCURVE",
"319 672 OFFCURVE",
"343 680 CURVE",
"343 700 LINE",
"26 700 LINE",
"26 682 LINE",
"54 672 OFFCURVE",
"82 665 OFFCURVE",
"106 660 CURVE",
"106 220 LINE SMOOTH",
"106 60 OFFCURVE",
"216 -10 OFFCURVE",
"408 -10 CURVE SMOOTH"
);
},
{
closed = 1;
nodes = (
"509 781 OFFCURVE",
"577 824 OFFCURVE",
"592 915 CURVE",
"506 915 LINE",
"498 842 OFFCURVE",
"452 833 OFFCURVE",
"411 833 CURVE SMOOTH",
"370 833 OFFCURVE",
"323 842 OFFCURVE",
"316 915 CURVE",
"230 915 LINE",
"245 824 OFFCURVE",
"313 781 OFFCURVE",
"411 781 CURVE SMOOTH"
);
}
);
width = 802;
}
);
leftKerningGroup = U;
note = Ubreve;
rightKerningGroup = U;
unicode = 016C;
},
{
glyphname = Ucaron;
lastChange = "2015-11-29 15:09:36 +0000";
layers = (
{
layerId = "956CC02E-6E79-4121-A7B2-01E3BBD48F66";
name = Bold;
paths = (
{
closed = 1;
nodes = (
"598 -10 OFFCURVE",
"695 69 OFFCURVE",
"695 220 CURVE SMOOTH",
"695 659 LINE",
"708 661 OFFCURVE",
"739 669 OFFCURVE",
"776 682 CURVE",
"776 700 LINE",
"552 700 LINE",
"552 682 LINE",
"581 672 OFFCURVE",
"607 666 OFFCURVE",
"633 661 CURVE",
"633 206 LINE SMOOTH",
"633 83 OFFCURVE",
"543 42 OFFCURVE",
"447 42 CURVE SMOOTH",
"351 42 OFFCURVE",
"263 79 OFFCURVE",
"263 206 CURVE SMOOTH",
"263 659 LINE",
"291 666 OFFCURVE",
"319 672 OFFCURVE",
"343 680 CURVE",
"343 700 LINE",
"26 700 LINE",
"26 682 LINE",
"54 672 OFFCURVE",
"82 665 OFFCURVE",
"106 660 CURVE",
"106 220 LINE SMOOTH",
"106 60 OFFCURVE",
"216 -10 OFFCURVE",
"408 -10 CURVE SMOOTH"
);
},
{
closed = 1;
nodes = (
"372 786 OFFCURVE",
"426 786 OFFCURVE",
"435 786 CURVE",
"459 822 OFFCURVE",
"546 900 OFFCURVE",
"590 929 CURVE",
"528 974 LINE",
"486 942 OFFCURVE",
"425 882 OFFCURVE",
"401 846 CURVE",
"400 846 OFFCURVE",
"398 846 OFFCURVE",
"397 846 CURVE",
"374 882 OFFCURVE",
"312 942 OFFCURVE",
"271 974 CURVE",
"208 929 LINE",
"253 900 OFFCURVE",
"339 822 OFFCURVE",
"363 786 CURVE"
);
}
);
width = 802;
}
);
leftKerningGroup = U;
note = Ucaron;
rightKerningGroup = U;
unicode = 01D3;
},
{
glyphname = Ucircumflex;
lastChange = "2015-11-29 15:09:36 +0000";
layers = (
{
layerId = "956CC02E-6E79-4121-A7B2-01E3BBD48F66";
name = Bold;
paths = (
{
closed = 1;
nodes = (
"598 -10 OFFCURVE",
"695 69 OFFCURVE",
"695 220 CURVE SMOOTH",
"695 659 LINE",
"708 661 OFFCURVE",
"739 669 OFFCURVE",
"776 682 CURVE",
"776 700 LINE",
"552 700 LINE",
"552 682 LINE",
"581 672 OFFCURVE",
"607 666 OFFCURVE",
"633 661 CURVE",
"633 206 LINE SMOOTH",
"633 83 OFFCURVE",
"543 42 OFFCURVE",
"447 42 CURVE SMOOTH",
"351 42 OFFCURVE",
"263 79 OFFCURVE",
"263 206 CURVE SMOOTH",
"263 659 LINE",
"291 666 OFFCURVE",
"319 672 OFFCURVE",
"343 680 CURVE",
"343 700 LINE",
"26 700 LINE",
"26 682 LINE",
"54 672 OFFCURVE",
"82 665 OFFCURVE",
"106 660 CURVE",
"106 220 LINE SMOOTH",
"106 60 OFFCURVE",
"216 -10 OFFCURVE",
"408 -10 CURVE SMOOTH"
);
},
{
closed = 1;
nodes = (
"314 816 OFFCURVE",
"376 876 OFFCURVE",
"399 912 CURVE",
"400 912 OFFCURVE",
"402 912 OFFCURVE",
"403 912 CURVE",
"427 876 OFFCURVE",
"488 816 OFFCURVE",
"530 783 CURVE",
"592 829 LINE",
"548 857 OFFCURVE",
"461 936 OFFCURVE",
"437 972 CURVE",
"428 972 OFFCURVE",
"374 972 OFFCURVE",
"365 972 CURVE",
"341 936 OFFCURVE",
"255 857 OFFCURVE",
"210 829 CURVE",
"273 783 LINE"
);
}
);
width = 802;
}
);
leftKerningGroup = U;
note = Ucircumflex;
rightKerningGroup = U;
unicode = 00DB;
},
{
glyphname = Udieresis;
lastChange = "2015-11-29 15:09:35 +0000";
layers = (
{
layerId = "956CC02E-6E79-4121-A7B2-01E3BBD48F66";
name = Bold;
paths = (
{
closed = 1;
nodes = (
"598 -10 OFFCURVE",
"695 69 OFFCURVE",
"695 220 CURVE SMOOTH",
"695 659 LINE",
"708 661 OFFCURVE",
"739 669 OFFCURVE",
"776 682 CURVE",
"776 700 LINE",
"552 700 LINE",
"552 682 LINE",
"581 672 OFFCURVE",
"607 666 OFFCURVE",
"633 661 CURVE",
"633 206 LINE SMOOTH",
"633 83 OFFCURVE",
"543 42 OFFCURVE",
"447 42 CURVE SMOOTH",
"351 42 OFFCURVE",
"263 79 OFFCURVE",
"263 206 CURVE SMOOTH",
"263 659 LINE",
"291 666 OFFCURVE",
"319 672 OFFCURVE",
"343 680 CURVE",
"343 700 LINE",
"26 700 LINE",
"26 682 LINE",
"54 672 OFFCURVE",
"82 665 OFFCURVE",
"106 660 CURVE",
"106 220 LINE SMOOTH",
"106 60 OFFCURVE",
"216 -10 OFFCURVE",
"408 -10 CURVE SMOOTH"
);
},
{
closed = 1;
nodes = (
"341 785 OFFCURVE",
"365 812 OFFCURVE",
"365 847 CURVE SMOOTH",
"365 882 OFFCURVE",
"341 909 OFFCURVE",
"303 909 CURVE SMOOTH",
"266 909 OFFCURVE",
"242 882 OFFCURVE",
"242 847 CURVE SMOOTH",
"242 812 OFFCURVE",
"266 785 OFFCURVE",
"303 785 CURVE SMOOTH"
);
},
{
closed = 1;
nodes = (
"581 785 OFFCURVE",
"605 812 OFFCURVE",
"605 847 CURVE SMOOTH",
"605 882 OFFCURVE",
"581 909 OFFCURVE",
"543 909 CURVE SMOOTH",
"505 909 OFFCURVE",
"482 882 OFFCURVE",
"482 847 CURVE SMOOTH",
"482 812 OFFCURVE",
"505 785 OFFCURVE",
"543 785 CURVE SMOOTH"
);
}
);
width = 802;
}
);
leftKerningGroup = U;
note = Udieresis;
rightKerningGroup = U;
unicode = 00DC;
},
{
glyphname = Udieresisacute;
lastChange = "2015-11-29 15:09:35 +0000";
layers = (
{
layerId = "956CC02E-6E79-4121-A7B2-01E3BBD48F66";
name = Bold;
paths = (
{
closed = 1;
nodes = (
"598 -10 OFFCURVE",
"695 69 OFFCURVE",
"695 220 CURVE SMOOTH",
"695 659 LINE",
"708 661 OFFCURVE",
"739 669 OFFCURVE",
"776 682 CURVE",
"776 700 LINE",
"552 700 LINE",
"552 682 LINE",
"581 672 OFFCURVE",
"607 666 OFFCURVE",
"633 661 CURVE",
"633 206 LINE SMOOTH",
"633 83 OFFCURVE",
"543 42 OFFCURVE",
"447 42 CURVE SMOOTH",
"351 42 OFFCURVE",
"263 79 OFFCURVE",
"263 206 CURVE SMOOTH",
"263 659 LINE",
"291 666 OFFCURVE",
"319 672 OFFCURVE",
"343 680 CURVE",
"343 700 LINE",
"26 700 LINE",
"26 682 LINE",
"54 672 OFFCURVE",
"82 665 OFFCURVE",
"106 660 CURVE",
"106 220 LINE SMOOTH",
"106 60 OFFCURVE",
"216 -10 OFFCURVE",
"408 -10 CURVE SMOOTH"
);
},
{
closed = 1;
nodes = (
"343 785 OFFCURVE",
"367 812 OFFCURVE",
"367 847 CURVE SMOOTH",
"367 881 OFFCURVE",
"343 909 OFFCURVE",
"305 909 CURVE SMOOTH",
"267 909 OFFCURVE",
"244 881 OFFCURVE",
"244 847 CURVE SMOOTH",
"244 812 OFFCURVE",
"267 785 OFFCURVE",
"305 785 CURVE SMOOTH"
);
},
{
closed = 1;
nodes = (
"583 785 OFFCURVE",
"607 812 OFFCURVE",
"607 847 CURVE SMOOTH",
"607 881 OFFCURVE",
"583 909 OFFCURVE",
"545 909 CURVE SMOOTH",
"507 909 OFFCURVE",
"484 881 OFFCURVE",
"484 847 CURVE SMOOTH",
"484 812 OFFCURVE",
"507 785 OFFCURVE",
"545 785 CURVE SMOOTH"
);
},
{
closed = 1;
nodes = (
"521 1037 LINE SMOOTH",
"553 1056 OFFCURVE",
"570 1075 OFFCURVE",
"570 1098 CURVE SMOOTH",
"570 1117 OFFCURVE",
"555 1141 OFFCURVE",
"521 1141 CURVE SMOOTH",
"487 1141 OFFCURVE",
"463 1112 OFFCURVE",
"458 1106 CURVE",
"344 986 LINE",
"369 951 LINE"
);
}
);
width = 802;
}
);
leftKerningGroup = U;
note = Udieresisacute;
rightKerningGroup = U;
unicode = 01D7;
},
{
glyphname = Udieresiscaron;
lastChange = "2015-11-29 15:09:36 +0000";
layers = (
{
layerId = "956CC02E-6E79-4121-A7B2-01E3BBD48F66";
name = Bold;
paths = (
{
closed = 1;
nodes = (
"598 -10 OFFCURVE",
"695 69 OFFCURVE",
"695 220 CURVE SMOOTH",
"695 659 LINE",
"708 661 OFFCURVE",
"739 669 OFFCURVE",
"776 682 CURVE",
"776 700 LINE",
"552 700 LINE",
"552 682 LINE",
"581 672 OFFCURVE",
"607 666 OFFCURVE",
"633 661 CURVE",
"633 206 LINE SMOOTH",
"633 83 OFFCURVE",
"543 42 OFFCURVE",
"447 42 CURVE SMOOTH",
"351 42 OFFCURVE",
"263 79 OFFCURVE",
"263 206 CURVE SMOOTH",
"263 659 LINE",
"291 666 OFFCURVE",
"319 672 OFFCURVE",
"343 680 CURVE",
"343 700 LINE",
"26 700 LINE",
"26 682 LINE",
"54 672 OFFCURVE",
"82 665 OFFCURVE",
"106 660 CURVE",
"106 220 LINE SMOOTH",
"106 60 OFFCURVE",
"216 -10 OFFCURVE",
"408 -10 CURVE SMOOTH"
);
},
{
closed = 1;
nodes = (
"343 842 OFFCURVE",
"367 868 OFFCURVE",
"367 903 CURVE SMOOTH",
"367 938 OFFCURVE",
"343 965 OFFCURVE",
"305 965 CURVE SMOOTH",
"267 965 OFFCURVE",
"244 938 OFFCURVE",
"244 903 CURVE SMOOTH",
"244 868 OFFCURVE",
"267 842 OFFCURVE",
"305 842 CURVE SMOOTH"
);
},
{
closed = 1;
nodes = (
"583 842 OFFCURVE",
"607 868 OFFCURVE",
"607 903 CURVE SMOOTH",
"607 938 OFFCURVE",
"583 965 OFFCURVE",
"545 965 CURVE SMOOTH",
"507 965 OFFCURVE",
"484 938 OFFCURVE",
"484 903 CURVE SMOOTH",
"484 868 OFFCURVE",
"507 842 OFFCURVE",
"545 842 CURVE SMOOTH"
);
},
{
closed = 1;
nodes = (
"461 994 LINE",
"485 1027 OFFCURVE",
"567 1092 OFFCURVE",
"611 1118 CURVE",
"553 1164 LINE",
"512 1135 OFFCURVE",
"451 1081 OFFCURVE",
"427 1048 CURVE",
"423 1048 LINE",
"399 1081 OFFCURVE",
"338 1135 OFFCURVE",
"297 1164 CURVE",
"239 1118 LINE",
"283 1092 OFFCURVE",
"365 1027 OFFCURVE",
"389 994 CURVE"
);
}
);
width = 802;
}
);
leftKerningGroup = U;
note = Udieresiscaron;
rightKerningGroup = U;
unicode = 01D9;
},
